<svg xmlns="http://www.w3.org/2000/svg" viewBox="0 0 35.38 48"><defs><style>.cls-1{fill:#f4427e;}.cls-2{fill:#81ab4a;}.cls-3{fill:#2299f8;}.cls-4{fill:#e0232b;}.cls-5{fill:#ffc107;}</style></defs><g id="Layer_2" data-name="Layer 2"><g id="Layer_13" data-name="Layer 13"><polygon class="cls-1" points="35.38 6.98 23.48 0 23.58 13.79 23.59 13.79 35.38 6.98"/><polygon class="cls-1" points="35.38 6.98 35.38 6.98 35.38 6.98 35.38 6.98"/><polygon class="cls-2" points="11.65 34.31 11.66 34.31 11.77 20.64 11.77 20.64 11.77 20.64 11.77 20.64 11.77 20.64 0.2 27.62 0.2 27.62 0.2 27.62 0.39 41.47 11.65 34.32 11.65 34.31"/><rect class="cls-2" x="11.66" y="34.31" transform="translate(-16.47 11.47) rotate(-32.15)"/><polygon class="cls-2" points="0.39 41.47 0.39 41.47 0.39 41.47 0.39 41.47"/><polygon class="cls-3" points="11.77 20.64 11.9 6.98 11.9 6.98 11.9 6.98 11.9 6.98 11.9 6.98 0 0 0.1 13.79 0.1 13.79 0.1 13.79 0.1 13.79 0.1 13.79 0.2 27.62 11.77 20.64"/><polygon class="cls-4" points="23.59 13.79 23.7 27.61 35.25 20.64 35.38 6.98 35.38 6.98 35.38 6.98 35.38 6.98 23.59 13.79 23.58 13.79 23.58 13.79 23.58 13.79 23.58 13.79 23.58 13.79 23.58 13.8 23.59 13.79"/><polygon class="cls-1" points="35.25 20.64 23.7 27.61 23.7 27.65 23.7 27.65 23.7 27.65 23.7 27.66 23.7 27.66 23.69 27.66 23.87 41.47 23.87 41.47 23.87 41.47 23.87 41.47 23.87 41.47 35.02 48 35.14 34.32 35.15 34.31 35.14 34.31 35.26 20.64 35.25 20.64"/><polygon class="cls-5" points="23.7 27.66 23.7 27.65 23.7 27.65 23.7 27.65 23.7 27.61 23.59 13.79 23.58 13.8 11.77 20.64 11.77 20.64 11.77 20.64 11.66 34.31 11.65 34.31 11.65 34.32 11.66 34.31 11.66 34.31 11.66 34.31 23.69 27.66 23.7 27.66 23.7 27.66"/><polygon class="cls-3" points="11.66 34.31 11.65 34.32 0.39 41.47 0.39 41.47 0.39 41.47 0.39 41.47 11.53 48 11.66 34.32 11.66 34.31 11.66 34.31"/></g></g></svg>