<svg xmlns="http://www.w3.org/2000/svg" viewBox="0 0 350 35"><defs><style>.cls-1{fill:#265797;opacity:0.94;isolation:isolate;}.cls-1,.cls-10,.cls-11,.cls-2,.cls-3{fill-rule:evenodd;}.cls-2{fill:#479951;}.cls-3{fill:#d97b16;}.cls-4{fill:#f79f1a;}.cls-5{fill:#ea001b;}.cls-6{fill:#ff5f01;}.cls-7{fill:#70706e;}.cls-8{fill:#098041;}.cls-9{fill:#e97626;}.cls-10{fill:#005bac;}.cls-11{fill:#f6ac1d;}.cls-12,.cls-13,.cls-14{fill:none;}.cls-12,.cls-13{stroke:#70706e;stroke-width:2.2px;}.cls-13{stroke-linecap:round;stroke-linejoin:round;}</style></defs><g id="Layer_2" data-name="Layer 2"><g id="Layer_13" data-name="Layer 13"><path id="path4510-9" class="cls-1" d="M123.52,25.65c-.1-.06.59-2.45,2.23-7.73l2.73-8.74.36-1.09,5.13.08c6,.1,6.93.17,7.9.61,1.71.78,2.18,2,1.59,4.05A6.88,6.88,0,0,1,140.14,17a1.91,1.91,0,0,0-.68.61c0,.12.19.4.56.7a4.32,4.32,0,0,1,.79.81c.27.47.22,1.4-.15,3a19.46,19.46,0,0,0-.41,2.52l-.08,1.08h-2.48a9.8,9.8,0,0,1-2.64-.14c-.25-.22-.19-.77.23-2.37.47-1.77.5-2.47.12-2.9s-1-.7-2.75-.75c-1.45,0-1.69,0-1.91.15s-.62,1-1.43,3.7l-.69,2.31h-2.48a22.94,22.94,0,0,1-2.62-.09Zm13.06-9.9a2.08,2.08,0,0,0,1.68-2.34,1.27,1.27,0,0,0-.22-.84c-.36-.39-1.44-.53-3.46-.43l-1.76.09-.26.77a11.2,11.2,0,0,0-.63,2.63c0,.18.17.27.49.33a18.24,18.24,0,0,0,4.16-.21Z"/><path id="path4512-4" class="cls-1" d="M144.91,26a2.71,2.71,0,0,1-1.67-1.27c-.49-1,0-3.34,1.77-8.95.43-1.34.78-2.45.78-2.47a1.34,1.34,0,0,1,.2-.21c.17-.15.55-.19,2.07-.19a14.61,14.61,0,0,1,2.19.11l.32.12-.32,1a66.44,66.44,0,0,0-1.75,6.53c-.13.87-.12,1.1,0,1.39.35.65,1.62.79,2.69.29,1.26-.58,1.5-1.08,3.53-7.45a4.26,4.26,0,0,1,.78-1.66l.36-.35h2c1.56,0,2,0,2.09.16s-2.53,8.75-3.61,12.1l-.17.52-2.17.06a15.72,15.72,0,0,1-2.17,0,4.3,4.3,0,0,1,.2-.57c.43-1.12-.11-1.19-1.71-.22a6.22,6.22,0,0,1-3.6,1.24,4.91,4.91,0,0,1-1.87-.18Z"/><path id="path4514-8" class="cls-1" d="M159.32,25.65c-.11-.07.56-2.39,2.53-8.78l2.69-8.69,4.54,0c5.67,0,6.83.13,7.92.62a3.22,3.22,0,0,1,1.73,1.44c.68,1.15.66,2.48,0,4.31A8.07,8.07,0,0,1,173,19.85a25,25,0,0,1-3,.3c-4,.21-3.77.17-4,.67-.1.23-.5,1.44-.89,2.67l-.7,2.25H162a22.86,22.86,0,0,1-2.62-.09ZM171,16.29A2.8,2.8,0,0,0,173.46,15a2.29,2.29,0,0,0,.3-2.16c-.41-.57-1-.69-3.09-.68a12.87,12.87,0,0,0-2,.11,23.09,23.09,0,0,0-1,3.69.62.62,0,0,0,.09.37,16.19,16.19,0,0,0,3.33,0Z"/><path id="path4516-8" class="cls-1" d="M178.43,26c-1.53-.57-1.93-1.53-1.43-3.43.7-2.65,2.23-3.54,7.49-4.33,3.18-.49,4-.84,4.2-1.86.17-.76-.55-1.18-2.05-1.18a2.77,2.77,0,0,0-2.09.73l-.66.49-1.68,0c-2,.05-2.55,0-2.55-.29a4.66,4.66,0,0,1,1.48-1.88A7.39,7.39,0,0,1,184,13c2.32-.54,6.3-.48,7.66.12a3.83,3.83,0,0,1,1.7,1.39c.29.5.18,1-1.2,6C191.5,22.84,191,25,191,25.28v.46h-1.61c-.88,0-1.87,0-2.2.07l-.6.08-.26-.55c-.31-.65-.35-.65-2,0a9.48,9.48,0,0,1-3.8.93,3.87,3.87,0,0,1-2.07-.24Zm7-2.73a3.7,3.7,0,0,0,1.91-2.75V20.1l-.82.07a12.72,12.72,0,0,0-3.55,1,1.69,1.69,0,0,0-.94,1.45c0,.55.09.7.52.87a6.45,6.45,0,0,0,2.88-.21Z"/><path id="path4518-2" class="cls-1" d="M192.55,31.27c-.52-.11-.54-.28-.18-1.56.48-1.72.45-1.68,1.65-1.85s1.86-.44,2.15-.95.3-2.83-.09-8.87a31.77,31.77,0,0,1-.17-5,7.36,7.36,0,0,1,2.44-.15h2.31l0,3.9a22.09,22.09,0,0,0,.19,4c.24.21,1.1-1.11,4.66-7.09l.51-.85h2a12.31,12.31,0,0,1,2.1.09c.07.09-3,5-6.13,9.83-4.41,6.79-5.24,7.72-7.31,8.24a21.76,21.76,0,0,1-4.21.21Z"/><path id="path6141-55" class="cls-2" d="M211.67,29.71l6.07-20,5.77,10.32Z"/><path id="path6141-5-1" class="cls-3" d="M207.92,29.78,214,9.8l5.78,10.33Z"/><g id="g3125"><g id="g3115"><g id="g3110"><path id="path2997" class="cls-4" d="M110.88,17.7a12,12,0,1,1-12-12A12,12,0,0,1,110.88,17.7Z"/><path id="path2995" class="cls-5" d="M96.09,17.7a12,12,0,1,1-12-12,12,12,0,0,1,12,12Z"/><path id="path2999" class="cls-6" d="M91.51,8.25a12,12,0,0,0-2,16.88,11.59,11.59,0,0,0,2,2,12,12,0,0,0,0-18.89Z"/></g><g id="g3043"><g id="text3045"><path id="path3057" class="cls-4" d="M110.85,24.07v-.43h-.11l-.12.3-.13-.31h-.12v.43h.08v-.32l.11.28h.09l.13-.28v.33Zm-.71,0v-.36h.15v-.08h-.36v.08h.15v.36Z"/></g></g></g></g><path id="Path_8690" data-name="Path 8690" class="cls-7" d="M289.2,26.61h-3.57l5-17.91h3.57ZM287.34,9.26a1.3,1.3,0,0,0-1.14-.52H266.58l-1,3.52h17.85l-1,3.75H264.57l-3,10.7h3.57l2-7.18h16a2.23,2.23,0,0,0,1.42-.51,2.4,2.4,0,0,0,.87-1.27l2-7.17A1.42,1.42,0,0,0,287.34,9.26ZM259.53,25.49A1.67,1.67,0,0,1,258,26.7H239.54a1.29,1.29,0,0,1-1.12-.52,1.44,1.44,0,0,1-.16-1.27l4.49-16.17h3.58l-4,14.45H256.6l4-14.45h3.57l-4.65,16.75Z"/><path id="Path_8691" data-name="Path 8691" class="cls-8" d="M300.33,8.73l4.51,9-9.49,9Z"/><path id="Path_8692" data-name="Path 8692" class="cls-9" d="M297.15,8.73l4.52,9-9.5,9Z"/><g id="Visa"><g id="形状_1" data-name="形状 1"><g id="形状_1-2" data-name="形状 1"><g id="Group_8455" data-name="Group 8455"><path id="Path_8686" data-name="Path 8686" class="cls-10" d="M26.18,9,23.35,26.4h4.53L30.71,9ZM19.54,9,15.23,21l-.51-2.58h0l-.12-.57a14.35,14.35,0,0,0-4-5.1,17.63,17.63,0,0,0-2-1.39L12.5,26.4h4.71L24.42,9Zm17.67,4.82c0-2,4.41-1.71,6.35-.64l.64-3.74a13.16,13.16,0,0,0-4.07-.75c-2.24,0-7.58,1-7.58,5.75,0,4.5,6.26,4.55,6.26,6.91s-5.61,1.94-7.47.45l-.67,3.9a12.59,12.59,0,0,0,5.11,1c3.09,0,7.75-1.6,7.75-6C43.53,16.22,37.21,15.8,37.21,13.83ZM55.69,9H52.05A2.08,2.08,0,0,0,50,10.3L43.2,26.4h4.72l.95-2.59h5.75l.53,2.59h4.16ZM50.17,20.25l2.38-6.51,1.34,6.51Z"/></g></g></g><g id="形状_1-3" data-name="形状 1"><g id="形状_1-4" data-name="形状 1"><g id="Group_8456" data-name="Group 8456"><path id="Path_8687" data-name="Path 8687" class="cls-11" d="M13.26,10.64a2,2,0,0,0-2.19-1.57H3.8l-.09.3a18,18,0,0,1,6.85,3.38,13.63,13.63,0,0,1,4.25,5.73Z"/></g></g></g></g><g id="_39" data-name=" 39"><path id="Path_2817" data-name="Path 2817" class="cls-12" d="M334.22,3.78a.55.55,0,0,1,.58,0l11.25,7.5a.53.53,0,0,1,.15.73.52.52,0,0,1-.44.23h-22.5a.52.52,0,0,1-.52-.52.54.54,0,0,1,.23-.44Z"/><path id="Path_2818" data-name="Path 2818" class="cls-13" d="M329,14.72v7.41"/><path id="Path_2819" data-name="Path 2819" class="cls-13" d="M334.51,14.72v7.41"/><path id="Path_2820" data-name="Path 2820" class="cls-13" d="M340.08,14.72v7.41"/><path id="Path_2821" data-name="Path 2821" class="cls-13" d="M325.86,24.6h17.31"/><path id="Path_2822" data-name="Path 2822" class="cls-13" d="M322.77,27.7h23.49"/></g><rect class="cls-14" width="350" height="35"/></g></g></svg>