<svg xmlns="http://www.w3.org/2000/svg" viewBox="0 0 128.58 160"><defs><style>.cls-1{fill:#222;}</style></defs><g id="Layer_2" data-name="Layer 2"><g id="Heart"><path id="Path_3055" data-name="Path 3055" class="cls-1" d="M118.93,15.61h-6.05A17.54,17.54,0,0,0,95.51,0H33.07A17.53,17.53,0,0,0,15.71,15.61H9.66a9.76,9.76,0,0,0,0,19.51h6l7.67,107.32A17.58,17.58,0,0,0,40.88,160H87.71a17.55,17.55,0,0,0,17.56-17.42l7.67-107.46h6a9.76,9.76,0,0,0,0-19.51ZM33.07,3.9H95.51A13.69,13.69,0,0,1,109,15.61H19.55A13.69,13.69,0,0,1,33.07,3.9Zm68.29,138.54A13.67,13.67,0,0,1,87.71,156.1H40.88a13.7,13.7,0,0,1-13.66-13.75v0L19.56,35.12H42.83V46.83H37a5.85,5.85,0,0,0-5.85,5.85V76.1A5.85,5.85,0,0,0,37,82H52.58a5.85,5.85,0,0,0,5.86-5.85V52.68a5.85,5.85,0,0,0-5.86-5.85H46.73V35.12H109ZM52.58,50.73a2,2,0,0,1,2,2h0V76.1a2,2,0,0,1-2,2H37a2,2,0,0,1-2-2V52.68a2,2,0,0,1,2-2h15.6Zm66.35-19.51H9.66a5.86,5.86,0,1,1-.15-11.71H118.93a5.86,5.86,0,0,1,0,11.71Z"/></g></g></svg>