<svg xmlns="http://www.w3.org/2000/svg" viewBox="0 0 151.02 200"><defs><style>.cls-1{fill:#222;}</style></defs><g id="Layer_2" data-name="Layer 2"><g id="Heart"><path id="Path_3054" data-name="Path 3054" class="cls-1" d="M139.49,19.59h-7A21,21,0,0,0,111.64,0H39.38A21,21,0,0,0,18.51,19.59h-7A11.53,11.53,0,0,0,0,31.12v.62A11.55,11.55,0,0,0,11.53,43.27h7l9.05,135.1C27.55,190.3,36.7,200,48,200h55.1c11.25,0,20.41-9.71,20.4-21.49l9.06-135.24h7A11.54,11.54,0,0,0,151,31.74v-.62A11.53,11.53,0,0,0,139.49,19.59ZM39.38,4.08h72.26a17,17,0,0,1,16.87,15.51h-106A17,17,0,0,1,39.38,4.08Zm80,174.28c0,9.69-7.33,17.56-16.33,17.56H48c-9,0-16.33-7.87-16.34-17.7l-9-135H50.51V58.78h-7a6.79,6.79,0,0,0-6.79,6.78v29.7A6.79,6.79,0,0,0,43.52,102H61.58a6.79,6.79,0,0,0,6.79-6.78V65.56a6.79,6.79,0,0,0-6.79-6.78h-7V43.26h73.84ZM61.58,62.86a2.7,2.7,0,0,1,2.7,2.7v29.7a2.7,2.7,0,0,1-2.7,2.7H43.52a2.7,2.7,0,0,1-2.7-2.7h0V65.56a2.69,2.69,0,0,1,2.69-2.7H61.58Zm85.36-31.12a7.45,7.45,0,0,1-7.45,7.44h-128a7.45,7.45,0,0,1-7.45-7.44v-.62a7.47,7.47,0,0,1,7.45-7.45h128a7.47,7.47,0,0,1,7.45,7.45Z"/></g></g></svg>