<svg xmlns="http://www.w3.org/2000/svg" viewBox="0 0 24 24"><defs><style>.cls-1{fill:#fff;}.cls-2{fill:none;}</style></defs><g id="Layer_2" data-name="Layer 2"><g id="Layer_13" data-name="Layer 13"><path class="cls-1" d="M3.4,10.58a.9.9,0,0,1-.9-.9V3.45a.9.9,0,0,1,.9-.9H9.63a.9.9,0,0,1,0,1.8H4.3V9.68A.9.9,0,0,1,3.4,10.58Zm17,2.71a.9.9,0,0,0-.9.9v5.33H14.14a.9.9,0,0,0,0,1.8h6.23a.9.9,0,0,0,.9-.9V14.19A.9.9,0,0,0,20.37,13.29Zm1.05-9.15a.81.81,0,0,0-.54-.51l-.19,0a8.74,8.74,0,0,0-1.32-.09A17.11,17.11,0,0,0,9.06,7.2l-.14.11a13.58,13.58,0,0,0-4.2,6.14,20.25,20.25,0,0,0-1.13,5.26l0,.35h0c0,.28,0,.59,0,1,0,.2,0,.41,0,.61l0,.39h.06a.69.69,0,0,0,.18.24.82.82,0,0,0,.57.2h0a.79.79,0,0,0,.73-.73v-.2c0-.2,0-.41,0-.62s0-.63,0-.93v0a2.65,2.65,0,0,1,1.45-1.76L7,17H7a3.51,3.51,0,0,1,1.1-.26A13.84,13.84,0,0,0,10,16.67l.37-.05h0a9.57,9.57,0,0,0,4-1.93l.25-.19v0a.86.86,0,0,0,0-1,1,1,0,0,0-.56-.31H12.86l.45-.14-.06-.22.15.19.1,0a16.55,16.55,0,0,0,3-1.29,8,8,0,0,0,1.22-.76,1.51,1.51,0,0,0,.23-.21.94.94,0,0,0,.25-.44.84.84,0,0,0-.4-.93,1,1,0,0,0-.35-.12H16a15.44,15.44,0,0,0,2.84-1.44l0,0,.3-.24a10.46,10.46,0,0,0,1.69-1.64,2.79,2.79,0,0,0,.58-1.1h.06l0-.65Z"/><rect class="cls-2" width="24" height="24"/></g></g></svg>