<svg xmlns="http://www.w3.org/2000/svg" viewBox="0 0 24 24"><defs><style>.cls-1{fill:none;}.cls-2{fill:#fff;}</style></defs><g id="Layer_2" data-name="Layer 2"><g id="Layer_13" data-name="Layer 13"><path class="cls-1" d="M20,5v7.66L18.33,9.38A1.4,1.4,0,0,0,16.06,9l-5.8,5.92L8.81,13.41a1.39,1.39,0,0,0-1-.44,1.35,1.35,0,0,0-1,.44L4,16.35V5A1,1,0,0,1,5,4H19A1,1,0,0,1,20,5Z"/><path class="cls-2" d="M19,2H5A3,3,0,0,0,2,5V19a2.74,2.74,0,0,0,.12.81,3,3,0,0,0,.47,1,2.78,2.78,0,0,0,.64.64A3,3,0,0,0,5,22H19a3,3,0,0,0,2.67-1.65A2.93,2.93,0,0,0,22,19V5A3,3,0,0,0,19,2Zm1,10.66L18.33,9.37a1.45,1.45,0,0,0-1-.77A1.43,1.43,0,0,0,16.06,9l-5.8,5.92L8.81,13.41a1.39,1.39,0,0,0-1-.44,1.35,1.35,0,0,0-1,.44L4,16.35V5A1,1,0,0,1,5,4H19a1,1,0,0,1,1,1Z"/><circle class="cls-2" cx="8.02" cy="7.6" r="1.5"/><rect class="cls-1" width="24" height="24"/></g></g></svg>