<svg xmlns="http://www.w3.org/2000/svg" viewBox="0 0 24 24"><defs><style>.cls-1{fill:#fff;}.cls-2{fill:none;}</style></defs><g id="Layer_2" data-name="Layer 2"><g id="Layer_13" data-name="Layer 13"><path id="Path_3500" data-name="Path 3500" class="cls-1" d="M9.65,2.32H20.54a1,1,0,0,1,1.09.9V18.5a2.79,2.79,0,0,0,2.18-2.56V3.22A3,3,0,0,0,20.54.5H9.65A3.28,3.28,0,0,0,6.57,2.32Z"/><path class="cls-2" d="M18.18,6.5v7.66l-1.67-3.28a1.4,1.4,0,0,0-2.27-.36l-5.8,5.92L7,14.91a1.39,1.39,0,0,0-1-.44,1.35,1.35,0,0,0-1,.44L2.18,17.85V6.5a1,1,0,0,1,1-1h14A1,1,0,0,1,18.18,6.5Z"/><path class="cls-1" d="M17.19,3.5h-14a3,3,0,0,0-3,3v14a2.74,2.74,0,0,0,.12.81,3,3,0,0,0,.47,1,2.78,2.78,0,0,0,.64.64,3,3,0,0,0,1.77.59h14a3,3,0,0,0,2.67-1.65,2.93,2.93,0,0,0,.33-1.35V6.5A3,3,0,0,0,17.19,3.5Zm1,10.66-1.67-3.29a1.45,1.45,0,0,0-1-.77,1.43,1.43,0,0,0-1.23.42l-5.8,5.92L7,14.91a1.39,1.39,0,0,0-1-.44,1.35,1.35,0,0,0-1,.44L2.19,17.85V6.5a1,1,0,0,1,1-1h14a1,1,0,0,1,1,1Z"/><circle class="cls-1" cx="6.21" cy="9.1" r="1.5"/><rect class="cls-2" width="24" height="24"/></g></g></svg>