<svg xmlns="http://www.w3.org/2000/svg" viewBox="0 0 24 24"><defs><style>.cls-1{fill:#fff;}.cls-2{fill:none;}</style></defs><g id="Layer_2" data-name="Layer 2"><g id="Layer_13" data-name="Layer 13"><path class="cls-1" d="M22,10.77V4.43a2.48,2.48,0,0,0-.77-1.74A2.45,2.45,0,0,0,19.46,2H13.24a2.34,2.34,0,0,0-1.82.73L2.7,11.45a2.58,2.58,0,0,0,0,3.59h0L9,21.27a2.71,2.71,0,0,0,1.81.73,2.34,2.34,0,0,0,1.82-.73l8.68-8.68A2.56,2.56,0,0,0,22,10.77ZM17.68,8.14h-.09a1.78,1.78,0,0,1-1.72-1.81h0V6.24A1.78,1.78,0,0,1,16.42,5a1.76,1.76,0,0,1,1.27-.48h.09A1.73,1.73,0,0,1,19,5l0,0a1.77,1.77,0,0,1,.49,1.27v.08A1.78,1.78,0,0,1,17.68,8.14ZM12.56,21.23Z"/><rect class="cls-2" width="24" height="24"/></g></g></svg>