<svg xmlns="http://www.w3.org/2000/svg" width="48" height="48" viewBox="0 0 48 48">
  <path id="_5279123_-_social_media_social_network_tweet_twitter" data-name="5279123 - social media social network tweet twitter" d="M24,0A24,24,0,1,1,0,24,24.011,24.011,0,0,1,24,0ZM19.773,36.765c10.62,0,16.427-8.8,16.427-16.427,0-.251,0-.5-.012-.742A11.827,11.827,0,0,0,39.074,16.6a11.717,11.717,0,0,1-3.317.91,5.77,5.77,0,0,0,2.538-3.2,11.693,11.693,0,0,1-3.664,1.4,5.777,5.777,0,0,0-9.986,3.951,5.292,5.292,0,0,0,.156,1.317A16.378,16.378,0,0,1,12.9,14.95a5.771,5.771,0,0,0,1.8,7.7,5.672,5.672,0,0,1-2.61-.718V22a5.78,5.78,0,0,0,4.634,5.663,5.758,5.758,0,0,1-1.521.2,5.506,5.506,0,0,1-1.09-.108A5.764,5.764,0,0,0,19.5,31.772a11.605,11.605,0,0,1-7.172,2.467,10.508,10.508,0,0,1-1.377-.084,16.086,16.086,0,0,0,8.824,2.61Z" fill="#666" fill-rule="evenodd"/>
</svg>
