<svg xmlns="http://www.w3.org/2000/svg" viewBox="0 0 24 24"><defs><style>.cls-1{fill:#222;}.cls-2{fill:none;}</style></defs><g id="Layer_2" data-name="Layer 2"><g id="Heart"><path class="cls-1" d="M13.94,14.26h0l0,0,0,0,.08-.06h0a.61.61,0,0,0,.05-.8.65.65,0,0,0-.39-.24H11.31a10.67,10.67,0,0,1,1.63-.61h0l.05,0h0l.09,0h0a16.57,16.57,0,0,0,3-1.3,8.73,8.73,0,0,0,1.23-.77c.07,0,.14-.12.21-.18a.78.78,0,0,0,.19-.36.61.61,0,0,0-.3-.69.67.67,0,0,0-.31-.1H14.48l.22-.09.73-.29A15.75,15.75,0,0,0,18.71,7h0L18.79,7h0l.08,0h0a9.6,9.6,0,0,0,1.71-1.66A2.63,2.63,0,0,0,21.16,4h0V3.93h0V3.84h0a.59.59,0,0,0-.42-.53h-.09l-.09,0h0A16.85,16.85,0,0,0,8.79,6.94h0L8.72,7h0l-.07.06h0c-4.35,3.48-5.23,9.23-5.4,11.57l0,.1h0c0,.6,0,1.21,0,1.82h0v.19h0a.58.58,0,0,0,.18.3.55.55,0,0,0,.38.15h0A.58.58,0,0,0,4.21,21a.67.67,0,0,0,.15-.32h0v-.18h0a15.33,15.33,0,0,1,0-1.66h0v-.06a3,3,0,0,1,1.69-2h0l.09-.05h0l.08,0h0a3.46,3.46,0,0,1,1.38-.34,13.29,13.29,0,0,0,1.89-.09H9.7A9.48,9.48,0,0,0,13.94,14.26Zm-4.48.85a12.94,12.94,0,0,1-1.87.08,4.8,4.8,0,0,0-1.89.48h0a4.13,4.13,0,0,0-1,.55A14.13,14.13,0,0,1,9.42,7.9h0A16.07,16.07,0,0,1,19.8,4.35a1.39,1.39,0,0,1-.15.19A7.87,7.87,0,0,1,18.09,6,14.19,14.19,0,0,1,15,7.58l-.69.28-1,.39a8.09,8.09,0,0,0-1.15.55h0l-.08.05h0l-.08,0h0a.7.7,0,0,0-.23.31.66.66,0,0,0,0,.58.81.81,0,0,0,.62.39h3a15.89,15.89,0,0,1-2.72,1.16h0a12.81,12.81,0,0,0-2.32.9,12.27,12.27,0,0,0-1.55.86h0l-.08.06h0l-.08,0h0a.61.61,0,0,0,.34,1h2.78A6.81,6.81,0,0,1,9.46,15.11Z"/><path class="cls-1" d="M4.23,9.54V4.22H9.54a.75.75,0,0,0,0-1.5H3.48a.75.75,0,0,0-.75.75V9.54a.75.75,0,1,0,1.5,0Z"/><path class="cls-1" d="M20.52,13.71a.76.76,0,0,0-.75.75v5.32H14.46a.75.75,0,0,0,0,1.5h6.06a.75.75,0,0,0,.75-.75V14.46A.75.75,0,0,0,20.52,13.71Z"/><rect class="cls-2" width="24" height="24"/></g></g></svg>