<svg xmlns="http://www.w3.org/2000/svg" viewBox="0 0 24 24"><defs><style>.cls-1{fill:#222;}.cls-2{fill:none;}</style></defs><g id="Layer_2" data-name="Layer 2"><g id="Heart"><path class="cls-1" d="M10.71,12.54H3a.75.75,0,0,0-.75.75V21a.76.76,0,0,0,.75.75h7.71a.75.75,0,0,0,.75-.75V13.29A.74.74,0,0,0,10.71,12.54ZM10,20.25H3.75V14H10Zm3.43-8.89h7.5a.75.75,0,0,0,.75-.75V3.11a.74.74,0,0,0-.75-.75h-7.5a.75.75,0,0,0-.75.75v7.5A.76.76,0,0,0,13.39,11.36Zm.75-7.5h6v6h-6ZM10.71,2.25H3A.76.76,0,0,0,2.25,3v7.71a.75.75,0,0,0,.75.75h7.71a.74.74,0,0,0,.75-.75V3A.75.75,0,0,0,10.71,2.25ZM10,10H3.75V3.75H10Zm11,2.58H13.29a.74.74,0,0,0-.75.75V21a.75.75,0,0,0,.75.75H21a.76.76,0,0,0,.75-.75V13.29A.75.75,0,0,0,21,12.54Zm-.75,7.71H14V14h6.21Z"/><rect class="cls-2" width="24" height="24"/></g></g></svg>