<svg xmlns="http://www.w3.org/2000/svg" viewBox="0 0 24 24"><defs><style>.cls-1{fill:#222;}.cls-2{fill:none;}</style></defs><g id="Layer_2" data-name="Layer 2"><g id="Heart"><path class="cls-1" d="M21.5,1.25H2.5A1.25,1.25,0,0,0,1.25,2.5v5a1.23,1.23,0,0,0,1,1.2V19.88a2.88,2.88,0,0,0,2.87,2.87H18.88a2.88,2.88,0,0,0,2.87-2.87V8.7a1.23,1.23,0,0,0,1-1.2v-5A1.25,1.25,0,0,0,21.5,1.25ZM2.75,2.75h18.5v4.5H2.75Zm17.5,17.13a1.38,1.38,0,0,1-1.37,1.37H5.12a1.38,1.38,0,0,1-1.37-1.37V8.75h16.5ZM8.75,14.5a.76.76,0,0,1,.75-.75h5a.75.75,0,0,1,0,1.5h-5A.76.76,0,0,1,8.75,14.5Z"/><rect class="cls-2" width="24" height="24"/></g></g></svg>