<svg xmlns="http://www.w3.org/2000/svg" viewBox="0 0 24 24"><defs><style>.cls-1{fill:#222;}.cls-2{fill:none;}</style></defs><g id="Layer_2" data-name="Layer 2"><g id="Layer_13" data-name="Layer 13"><path class="cls-1" d="M19.82,1.25H4.18A2.93,2.93,0,0,0,1.25,4.18V19.82a2.93,2.93,0,0,0,2.93,2.93H19.82a2.93,2.93,0,0,0,2.93-2.93V4.18A2.93,2.93,0,0,0,19.82,1.25Zm-2.07,6.5h3.5v3.5h-3.5Zm-1.5,3.5H7.75V2.75h8.5Zm-10,0H2.75V7.75h3.5Zm-3.5,1.5h3.5v3.5H2.75Zm5,0h8.5v8.5H7.75Zm10,0h3.5v3.5h-3.5Zm3.5-8.57V6.25h-3.5V2.75h2.07A1.43,1.43,0,0,1,21.25,4.18ZM4.18,2.75H6.25v3.5H2.75V4.18A1.43,1.43,0,0,1,4.18,2.75ZM2.75,19.82V17.75h3.5v3.5H4.18A1.43,1.43,0,0,1,2.75,19.82Zm17.07,1.43H17.75v-3.5h3.5v2.07A1.43,1.43,0,0,1,19.82,21.25Z"/><rect class="cls-2" width="24" height="24"/></g></g></svg>