<svg xmlns="http://www.w3.org/2000/svg" viewBox="0 0 24 24"><defs><style>.cls-1{fill:#222;}.cls-2{fill:none;}</style></defs><g id="Layer_2" data-name="Layer 2"><g id="Heart"><path class="cls-1" d="M21.45,10.94a1.84,1.84,0,0,0-.67-.66L5.07,2.49a1.91,1.91,0,0,0-.9-.23A1.81,1.81,0,0,0,2.25,3.94V20.13A1.8,1.8,0,0,0,4,21.75h.12a2.38,2.38,0,0,0,1-.24l15.7-7.79a2,2,0,0,0,.91-1.25A2,2,0,0,0,21.45,10.94Zm-1.22,1.18a.53.53,0,0,1-.17.29L4.4,20.17a.81.81,0,0,1-.34.08.31.31,0,0,1-.31-.19V4a.3.3,0,0,1,.33-.26.7.7,0,0,1,.31.07L20,11.57a.57.57,0,0,1,.15.16A.45.45,0,0,1,20.23,12.12Z"/><rect class="cls-2" width="24" height="24"/></g></g></svg>