<svg xmlns="http://www.w3.org/2000/svg" viewBox="0 0 24 24"><defs><style>.cls-1{fill:#222;}.cls-2{fill:none;}</style></defs><g id="Layer_2" data-name="Layer 2"><g id="Layer_13" data-name="Layer 13"><path class="cls-1" d="M22.38,2.26a.77.77,0,0,0-.75,0l-6,3.44L8.7,2.24h0a.83.83,0,0,0-.32-.07H8.29A.79.79,0,0,0,8,2.25H8L1.63,5.89a.76.76,0,0,0-.38.66V21.09a.74.74,0,0,0,.75.75.69.69,0,0,0,.37-.1l6-3.43,6.91,3.45h0a.83.83,0,0,0,.32.07h.07a.79.79,0,0,0,.26-.08h0l6.36-3.63a.76.76,0,0,0,.38-.66V2.91A.74.74,0,0,0,22.38,2.26ZM9.11,4.12,14.89,7V19.88L9.11,17ZM2.75,7,7.61,4.2V17L2.75,19.8Zm18.5,10L16.39,19.8V7L21.25,4.2Z"/><rect class="cls-2" width="24" height="24"/></g></g></svg>