<svg xmlns="http://www.w3.org/2000/svg" width="48.723" height="41.5" viewBox="0 0 48.723 41.5"><g transform="translate(-0.749 -3.75)"><path d="M38.793,33.208v7.648a1.5,1.5,0,0,1-2.3,1.257L19.516,32.056V15.293L36.488,5.235a1.5,1.5,0,0,1,2.3,1.257V33.208Z" fill="none" stroke="#000" stroke-linecap="round" stroke-miterlimit="10" stroke-width="2.5"/><path d="M10.4,15.4h8.382V32.161H9.772A8.393,8.393,0,0,1,10.4,15.4Z" fill="none" stroke="#000" stroke-linecap="round" stroke-miterlimit="10" stroke-width="2.5"/><path d="M10.5,33h4.086v9.534A1.432,1.432,0,0,1,13.124,44H12.076a1.432,1.432,0,0,1-1.467-1.467V33Z" fill="none" stroke="#000" stroke-linecap="round" stroke-miterlimit="10" stroke-width="2.5"/><path d="M39.526,32.475V15.083a8.7,8.7,0,1,1,0,17.392Z" fill="none" stroke="#000" stroke-linecap="round" stroke-miterlimit="10" stroke-width="2.5"/></g></svg>