<svg xmlns="http://www.w3.org/2000/svg" viewBox="0 0 24 24"><defs><style>.cls-1{fill:#222;}.cls-2{fill:none;}</style></defs><g id="Layer_2" data-name="Layer 2"><g id="Heart"><path class="cls-1" d="M20.18,16.47l-.24-.16a4.32,4.32,0,0,1-1.23-1A3.59,3.59,0,0,1,17.93,13a3.85,3.85,0,0,1,1.71-3.14l.68-.44-.5-.64a5.3,5.3,0,0,0-4.28-2h0A7,7,0,0,0,13,7.32l-.46.18-.23.07-.12,0a2,2,0,0,1-.57-.11L11,7.26a6.65,6.65,0,0,0-2.15-.52A5.57,5.57,0,0,0,5.52,8a6.28,6.28,0,0,0-2.17,5.21,14.75,14.75,0,0,0,1.67,6A9.64,9.64,0,0,0,6.8,21.73,3.26,3.26,0,0,0,9,22.82H9.1a5.86,5.86,0,0,0,2-.48,6.72,6.72,0,0,1,.64-.23,1.86,1.86,0,0,1,.55-.09,3.53,3.53,0,0,1,1.49.34,4,4,0,0,0,1.77.43,3.13,3.13,0,0,0,2-.87A8.21,8.21,0,0,0,19.15,20a14.17,14.17,0,0,0,1-2c.12-.28.21-.51.28-.71l.19-.54Zm-1.38,1a12.57,12.57,0,0,1-.93,1.78,7.12,7.12,0,0,1-1.31,1.6,1.67,1.67,0,0,1-1,.46,2.56,2.56,0,0,1-1.1-.28,5,5,0,0,0-2.16-.49,3.13,3.13,0,0,0-1,.16c-.25.07-.5.17-.79.28a4.5,4.5,0,0,1-1.45.37,1.81,1.81,0,0,1-1.2-.62,8.2,8.2,0,0,1-1.54-2.18,13.33,13.33,0,0,1-1.51-5.34,4.88,4.88,0,0,1,1.61-4,4.16,4.16,0,0,1,2.32-.92,5.2,5.2,0,0,1,1.62.43l.72.25a3.55,3.55,0,0,0,1,.18A2.33,2.33,0,0,0,12.66,9l.33-.1.59-.23a5.31,5.31,0,0,1,2-.5h0a3.8,3.8,0,0,1,2.54.92,5.31,5.31,0,0,0-1.69,3.81,5.06,5.06,0,0,0,1.12,3.34,6,6,0,0,0,1.28,1.13ZM12.2,6.91c2,0,4.09-1.86,4.16-4.82l0-.92-.91.17a4.7,4.7,0,0,0-2.77,1.6,4.62,4.62,0,0,0-1.27,3.23v.76ZM13.8,4l0,0a3.38,3.38,0,0,1,.84-.72,3.24,3.24,0,0,1-1.6,2A3.18,3.18,0,0,1,13.8,4Z"/><rect class="cls-2" width="24" height="24"/></g></g></svg>