<svg xmlns="http://www.w3.org/2000/svg" width="48.498" height="48.5" viewBox="0 0 48.498 48.5"><g transform="translate(-0.75 -0.75)"><path d="M3.043,48.07a1.25,1.25,0,1,0,2.5-.139ZM18.028,13.822l-.774-.982h0Zm24.352-2.486.758.994ZM27.972,25.372l-.3-1.213ZM9.864,36.558l-.49-1.15Zm20.114-6.4.755,1ZM26.761,18.693l-.687-1.044ZM18.214,29.826l.744,1ZM47.92,4.488l.2-1.234Zm.078.1,1.247.079ZM18.8,14.8C30.42,5.65,42.971,4.963,47.722,5.722l.395-2.469C42.762,2.4,29.486,3.2,17.255,12.84ZM46.75,4.506a4.582,4.582,0,0,1-1.017,1.911,21.531,21.531,0,0,1-4.111,3.926l1.517,1.987a23.969,23.969,0,0,0,4.587-4.4,6.605,6.605,0,0,0,1.519-3.262Zm-5.128,5.837a38.7,38.7,0,0,1-8.091,4.047c-1.517.614-3.053,1.21-4.323,1.739a20.824,20.824,0,0,0-3.134,1.52l1.374,2.089a18.913,18.913,0,0,1,2.72-1.3c1.265-.526,2.726-1.092,4.3-1.73a40.734,40.734,0,0,0,8.67-4.378ZM27.12,20.665H38.831v-2.5H27.12Zm11.711,0a1,1,0,0,1-.3-.112,1.119,1.119,0,0,1-.519-1.216.787.787,0,0,1,.129-.294,2.055,2.055,0,0,1-.219.194,21.193,21.193,0,0,1-2.78,1.706,40.607,40.607,0,0,1-7.467,3.216l.6,2.426a42.642,42.642,0,0,0,8.05-3.441,23.265,23.265,0,0,0,3.153-1.952,4.409,4.409,0,0,0,.509-.466,1.863,1.863,0,0,0,.451-.8,1.382,1.382,0,0,0-.655-1.538,1.886,1.886,0,0,0-.951-.226Zm-11.16,3.494a33.491,33.491,0,0,0-6,2.319,32.289,32.289,0,0,0-4.2,2.344l1.488,2.009a30.763,30.763,0,0,1,3.8-2.1,31.131,31.131,0,0,1,5.517-2.143Zm-9.4,7.07H29.915v-2.5H18.271Zm10.952-2.066c-1.319,1-5.683,4.227-10.149,4.791l.313,2.48c5.213-.658,10.07-4.312,11.346-5.279ZM19.074,33.954a32.817,32.817,0,0,1-4.869.22,11.912,11.912,0,0,0-4.831,1.234l.981,2.3a9.477,9.477,0,0,1,3.907-1.035,34.623,34.623,0,0,0,5.126-.239ZM5.539,47.93a37.978,37.978,0,0,1,.074-4.81L3.12,42.937a40.456,40.456,0,0,0-.077,5.133Zm.074-4.81C6.233,34.707,9.417,22.2,18.8,14.8L17.255,12.84C7.05,20.881,3.759,34.259,3.12,42.937Zm3.761-7.713a10.36,10.36,0,0,0-6.249,7.479l2.484.283a7.943,7.943,0,0,1,4.746-5.463Zm20.541-4.179a1.149,1.149,0,0,1-.692-2.066l1.51,1.992a1.351,1.351,0,0,0-.818-2.426Zm-3.84-13.58a1.769,1.769,0,0,0-.7.841,1.521,1.521,0,0,0,.089,1.28,1.854,1.854,0,0,0,1.655.895v-2.5a.417.417,0,0,1,.168.044.822.822,0,0,1,.367.356.979.979,0,0,1,.058.813.746.746,0,0,1-.265.359Zm-8.6,11.172a1.334,1.334,0,0,0,.8,2.408v-2.5a1.166,1.166,0,0,1,.687,2.1Zm30.252-23.1a1.159,1.159,0,0,1-.972-1.216l2.495.158a1.341,1.341,0,0,0-1.128-1.411Z"/></g></svg>