<svg xmlns="http://www.w3.org/2000/svg" viewBox="0 0 24 24"><defs><style>.cls-1{fill:#222;}.cls-2{fill:none;}</style></defs><g id="Layer_2" data-name="Layer 2"><g id="Layer_13" data-name="Layer 13"><path class="cls-1" d="M2.62,9.87H21.37a1.18,1.18,0,0,0,1-.52,1.19,1.19,0,0,0,.18-.9A1.16,1.16,0,0,0,22,7.7L12.66,1.45a1.18,1.18,0,0,0-1.32,0h0L2,7.7a1.18,1.18,0,0,0,.65,2.17ZM12,2.81l8.34,5.56H3.66ZM7.36,18.11a.75.75,0,0,1-.75-.75V11.18a.75.75,0,1,1,1.5,0v6.18A.74.74,0,0,1,7.36,18.11Zm4.64,0a.75.75,0,0,1-.75-.75V11.18a.75.75,0,0,1,1.5,0v6.18A.74.74,0,0,1,12,18.11Zm4.64,0a.74.74,0,0,1-.75-.75V11.18a.75.75,0,0,1,1.5,0v6.18A.75.75,0,0,1,16.64,18.11Zm-11.85.56H19.21a.75.75,0,0,1,0,1.5H4.79a.75.75,0,1,1,0-1.5ZM22.54,22a.76.76,0,0,1-.75.75H2.21a.75.75,0,0,1,0-1.5H21.79A.76.76,0,0,1,22.54,22Z"/><rect class="cls-2" width="24" height="24"/></g></g></svg>