<svg xmlns="http://www.w3.org/2000/svg" viewBox="0 0 24 24"><defs><style>.cls-1{fill:#222;}.cls-2{fill:none;}</style></defs><g id="Layer_2" data-name="Layer 2"><g id="Layer_13" data-name="Layer 13"><path class="cls-1" d="M21.45,4.32a.93.93,0,0,0-.36-.4V3.84l-.41-.06A16.12,16.12,0,0,0,9.3,7.31l-.15.11C4.94,10.79,4.1,16.35,3.94,18.53L3.86,19h.05a14.2,14.2,0,0,0,0,1.46l0,.5H4a1.46,1.46,0,0,0,.16.19.9.9,0,0,0,.62.22h0a.93.93,0,0,0,.6-.29,1,1,0,0,0,.17-.28l.07,0,0-.41c0-.51,0-1,0-1.54a2.52,2.52,0,0,1,1.11-1.5h0L7.51,17h0a3,3,0,0,1,.87-.17,13.93,13.93,0,0,0,1.83-.08l.19,0a9.32,9.32,0,0,0,4.15-1.93l.4-.31,0-.08a.9.9,0,0,0-.1-.93.91.91,0,0,0-.58-.35h-.5L14,13h0A16.17,16.17,0,0,0,16.6,11.8a8.08,8.08,0,0,0,1.21-.75,2.29,2.29,0,0,0,.23-.21,1,1,0,0,0,.26-.48.93.93,0,0,0-.44-1,1.19,1.19,0,0,0-.45-.13h-.83a14.09,14.09,0,0,0,2.21-1.16l0,0,.68-.48,0,0a8.37,8.37,0,0,0,1.39-1.4,2.77,2.77,0,0,0,.57-1h.06l.08-.83Zm-8,8.73-.07-.25.15.25ZM18.1,6.43a13.69,13.69,0,0,1-2.86,1.44l-.65.26c-.33.13-.65.25-.92.37a8.58,8.58,0,0,0-.82.37v0l-.75.47.06.07a1.28,1.28,0,0,0-.11.2,1,1,0,0,0,.07.83,1.08,1.08,0,0,0,.85.52h1.43c-.41.17-.82.32-1.24.45a12.67,12.67,0,0,0-2.24.87,11.52,11.52,0,0,0-1.25.67v0L9,13.4l.06.09a.9.9,0,0,0,.08.93.94.94,0,0,0,.64.36h1.1a4.66,4.66,0,0,1-.77.17A11,11,0,0,1,8.36,15a4.72,4.72,0,0,0-1.9.48l-.3.13A12.54,12.54,0,0,1,10.3,8.73a15,15,0,0,1,8.92-3.3A7.56,7.56,0,0,1,18.1,6.43ZM3.43,10.72a1,1,0,0,1-1-1V3.66a1,1,0,0,1,1-1H9.49a1,1,0,0,1,0,2H4.43V9.72A1,1,0,0,1,3.43,10.72Zm17.5,3.38v6.06a1,1,0,0,1-1,1H13.87a1,1,0,0,1,0-2h5.06V14.1a1,1,0,0,1,2,0Z"/><rect class="cls-2" width="24" height="24"/></g></g></svg>