<svg xmlns="http://www.w3.org/2000/svg" viewBox="0 0 24 24"><defs><style>.cls-1{fill:#222;}.cls-2{fill:none;}</style></defs><g id="Layer_2" data-name="Layer 2"><g id="Layer_13" data-name="Layer 13"><path class="cls-1" d="M16.79,14.18A7.36,7.36,0,1,0,7,14L5.25,21.22a1.26,1.26,0,0,0,.15.93,1.17,1.17,0,0,0,.76.56,1,1,0,0,0,.3,0,1.24,1.24,0,0,0,.78-.28L12,18.63l4.71,3.81a1.26,1.26,0,0,0,1.75-.19,1.25,1.25,0,0,0,.23-1.1ZM6.14,8.61A5.86,5.86,0,1,1,12,14.47,5.87,5.87,0,0,1,6.14,8.61Zm6.64,8.72a1.23,1.23,0,0,0-1.56,0L6.9,20.82,8.33,15A7.35,7.35,0,0,0,12,16a7.28,7.28,0,0,0,3.48-.88L17,20.76Z"/><rect class="cls-2" width="24" height="24"/></g></g></svg>