<svg xmlns="http://www.w3.org/2000/svg" viewBox="0 0 24 24"><defs><style>.cls-1{fill:#222;}.cls-2{fill:none;}</style></defs><g id="Layer_2" data-name="Layer 2"><g id="Layer_13" data-name="Layer 13"><path id="_2561458_-_list" data-name=" 2561458 - list" class="cls-1" d="M21,6.75H8a.75.75,0,0,1,0-1.5H21a.75.75,0,0,1,0,1.5ZM21.75,12a.76.76,0,0,0-.75-.75H8a.75.75,0,0,0,0,1.5H21A.76.76,0,0,0,21.75,12Zm0,6a.76.76,0,0,0-.75-.75H8a.75.75,0,0,0,0,1.5H21A.76.76,0,0,0,21.75,18ZM3.53,6.53a.75.75,0,0,0,0-1.06.77.77,0,0,0-1.06,0A.75.75,0,1,0,3.53,6.53Zm0,6a.75.75,0,0,0,0-1.06.77.77,0,0,0-1.06,0,.75.75,0,1,0,1.06,1.06Zm0,6a.75.75,0,0,0,0-1.06.77.77,0,0,0-1.06,0,.75.75,0,1,0,1.06,1.06Z"/><rect class="cls-2" width="24" height="24"/></g></g></svg>