<svg xmlns="http://www.w3.org/2000/svg" viewBox="0 0 24 24"><defs><style>.cls-1{fill:#222;}.cls-2{fill:none;}</style></defs><g id="Layer_2" data-name="Layer 2"><g id="Layer_13" data-name="Layer 13"><path class="cls-1" d="M19,3.25H16.75V2a.75.75,0,0,0-1.5,0V3.25H8.75V2a.75.75,0,0,0-1.5,0V3.25H5A2.75,2.75,0,0,0,2.25,6V20A2.75,2.75,0,0,0,5,22.75H19A2.75,2.75,0,0,0,21.75,20V6A2.75,2.75,0,0,0,19,3.25ZM5,4.75H7.25V6a.75.75,0,0,0,1.5,0V4.75h6.5V6a.75.75,0,0,0,1.5,0V4.75H19A1.25,1.25,0,0,1,20.25,6V9.25H3.75V6A1.25,1.25,0,0,1,5,4.75Zm14,16.5H5A1.25,1.25,0,0,1,3.75,20V10.75h16.5V20A1.25,1.25,0,0,1,19,21.25Z"/><rect class="cls-2" width="24" height="24"/></g></g></svg>