<svg xmlns="http://www.w3.org/2000/svg" viewBox="0 0 32 32"><defs><style>.cls-1{fill:#222;}</style></defs><g id="Layer_2" data-name="Layer 2"><g id="Heart"><path id="_2561279_-_cart_shopping" data-name=" 2561279 - cart shopping" class="cls-1" d="M10.55,32a3.75,3.75,0,1,1,3.75-3.74A3.75,3.75,0,0,1,10.55,32Zm0-5.45a1.71,1.71,0,1,0,1.71,1.71A1.71,1.71,0,0,0,10.55,26.55ZM26.89,32a3.75,3.75,0,1,1,3.75-3.74A3.75,3.75,0,0,1,26.89,32Zm0-5.45a1.71,1.71,0,1,0,1.71,1.71A1.71,1.71,0,0,0,26.89,26.55ZM26,22.47H11.57a3.72,3.72,0,0,1-3.73-3.26L5.77,3.52A1.71,1.71,0,0,0,4.08,2H1A1,1,0,0,1,1,0H4.09a3.74,3.74,0,0,1,3.7,3.26l.47,3.55H31a1.06,1.06,0,0,1,.79.37A1,1,0,0,1,32,8L29.69,19.46A3.74,3.74,0,0,1,26,22.47Zm-.05-2a1.71,1.71,0,0,0,1.72-1.37l2-10.21H8.53L9.86,18.94a1.71,1.71,0,0,0,1.71,1.49Z"/></g></g></svg>