<svg xmlns="http://www.w3.org/2000/svg" width="50" height="50" viewBox="0 0 50 50"><g transform="translate(-810 -743)"><circle cx="25" cy="25" r="25" transform="translate(810 743)" fill="#0092ff"/><path d="M14.322,0A14.021,14.021,0,0,0,0,14.314,14.193,14.193,0,0,0,4.5,24.9a1.2,1.2,0,0,1,.386.84l.078,2.624A1.15,1.15,0,0,0,6.57,29.409l2.841-1.291a1.112,1.112,0,0,1,.764-.059,15.152,15.152,0,0,0,4.147.567A14.021,14.021,0,0,0,28.644,14.314,14.021,14.021,0,0,0,14.322,0Z" transform="translate(821 752.997)" fill="#fff" fill-rule="evenodd"/><g transform="translate(826 766)"><ellipse cx="2.02" cy="2.097" rx="2.02" ry="2.097" fill="#0092ff"/><ellipse cx="2.02" cy="2.097" rx="2.02" ry="2.097" transform="translate(6.756 0.047)" fill="#0092ff"/><ellipse cx="2.02" cy="2.097" rx="2.02" ry="2.097" transform="translate(13.513 0.047)" fill="#0092ff"/></g></g></svg>