<svg xmlns="http://www.w3.org/2000/svg" width="50" height="50" viewBox="0 0 50 50"><g transform="translate(-1261 -490)"><g transform="translate(1261 490)" fill="none" stroke="#000" stroke-width="2.5"><circle cx="25" cy="25" r="25" stroke="none"/><circle cx="25" cy="25" r="23.75" fill="none"/></g><path d="M1468.086,503.46a.49.49,0,0,0-.376-.16h0a.487.487,0,0,0-.376.16l-21.653,22.514-9.939-8.91a.526.526,0,0,0-.753.053h0a.329.329,0,0,0-.107.374c.054.16.054.267.161.374l10.262,9.283a.5.5,0,0,0,.7-.053l22.028-22.888a.557.557,0,0,0,.054-.747Z" transform="translate(-165.527 -0.8)" stroke="#000" stroke-width="2"/></g></svg>