<svg xmlns="http://www.w3.org/2000/svg" viewBox="0 0 24 24"><defs><style>.cls-1{fill:#222;}.cls-2{fill:none;}</style></defs><g id="Layer_2" data-name="Layer 2"><g id="Heart"><path class="cls-1" d="M19.71,3.75a3.4,3.4,0,0,0-3.36-3H7.65a3.4,3.4,0,0,0-3.36,3,2.05,2.05,0,0,0-2,2.05v.4A2.05,2.05,0,0,0,4.3,8.25h0L5.42,20.63A2.88,2.88,0,0,0,8.5,23.25h7a2.88,2.88,0,0,0,3.08-2.56L19.69,8.25h0a2.05,2.05,0,0,0,2.05-2V5.8A2.05,2.05,0,0,0,19.71,3.75ZM7.65,2.25h8.7a1.9,1.9,0,0,1,1.86,1.5H5.79A1.9,1.9,0,0,1,7.65,2.25Zm9.43,18.38c0,.6-.72,1.12-1.58,1.12h-7a1.44,1.44,0,0,1-1.59-1.19L5.82,8.25H9.25v.5H9A1.25,1.25,0,0,0,7.75,10v3A1.25,1.25,0,0,0,9,14.25h2A1.25,1.25,0,0,0,12.25,13V10A1.25,1.25,0,0,0,11,8.75h-.25v-.5h7.43ZM10.75,10.25v2.5H9.25v-2.5Zm9.5-4a.55.55,0,0,1-.55.55H4.3a.55.55,0,0,1-.55-.55V5.8a.55.55,0,0,1,.55-.55H19.7a.55.55,0,0,1,.55.55Z"/><rect class="cls-2" width="24" height="24"/></g></g></svg>