<svg xmlns="http://www.w3.org/2000/svg" width="24.001" height="24.001" viewBox="0 0 24.001 24.001">
  <g id="Group_3428" data-name="Group 3428" transform="translate(-22 -264)">
    <g id="Path_2931" data-name="Path 2931" transform="translate(22 264)" fill="none">
      <path d="M12,0A12,12,0,1,1,0,12,12,12,0,0,1,12,0Z" stroke="none"/>
      <path d="M 12.000732421875 1.000001907348633 C 9.062332153320313 1.000001907348633 6.299802780151367 2.144283294677734 4.222042083740234 4.222042083740234 C 2.144283294677734 6.299802780151367 1.000001907348633 9.062332153320313 1.000001907348633 12.000732421875 C 1.000001907348633 14.93913269042969 2.144283294677734 17.70166206359863 4.222042083740234 19.77942276000977 C 6.299802780151367 21.85718154907227 9.062332153320313 23.00146293640137 12.000732421875 23.00146293640137 C 14.93913269042969 23.00146293640137 17.70166206359863 21.85718154907227 19.77942276000977 19.77942276000977 C 21.85718154907227 17.70166206359863 23.00146293640137 14.93913269042969 23.00146293640137 12.000732421875 C 23.00146293640137 9.062332153320313 21.85718154907227 6.299802780151367 19.77942276000977 4.222042083740234 C 17.70166206359863 2.144283294677734 14.93913269042969 1.000001907348633 12.000732421875 1.000001907348633 M 12.000732421875 1.9073486328125e-06 C 18.6285514831543 1.9073486328125e-06 24.00146293640137 5.372913360595703 24.00146293640137 12.000732421875 C 24.00146293640137 18.6285514831543 18.6285514831543 24.00146293640137 12.000732421875 24.00146293640137 C 5.372913360595703 24.00146293640137 1.9073486328125e-06 18.6285514831543 1.9073486328125e-06 12.000732421875 C 1.9073486328125e-06 5.372913360595703 5.372913360595703 1.9073486328125e-06 12.000732421875 1.9073486328125e-06 Z" stroke="none" fill="#666"/>
    </g>
    <path id="Shape" d="M11.192,9.874a1.319,1.319,0,1,0,1.319,1.319,1.33,1.33,0,0,0-1.319-1.319Zm2.637,3.956L4,18.385,8.555,8.555,18.385,4l-4.555,9.829Z" transform="translate(22.795 264.795)" fill="#666" fill-rule="evenodd"/>
  </g>
</svg>
