<svg xmlns="http://www.w3.org/2000/svg" width="24" height="24" viewBox="0 0 24 24">
  <g id="Group_5174" data-name="Group 5174" transform="translate(-1162.487 -1098.319)">
    <path id="Path_3184" data-name="Path 3184" d="M1165.146,1109.364v-1.909a4.574,4.574,0,0,1,4.568-4.568h11.553l-2.537-2.537a.75.75,0,1,1,1.06-1.061l3.818,3.818h0a.757.757,0,0,1,.162.241.751.751,0,0,1-.162.82l-3.818,3.818a.75.75,0,0,1-1.06-1.061l2.537-2.538h-11.553a3.072,3.072,0,0,0-3.068,3.068v1.909a.75.75,0,0,1-1.5,0Zm17.932,1.16a.75.75,0,0,0-.75.75v1.909a3.072,3.072,0,0,1-3.068,3.068h-11.553l2.537-2.538a.75.75,0,1,0-1.06-1.06l-3.818,3.817h0a.75.75,0,0,0-.162.242.749.749,0,0,0,0,.578.752.752,0,0,0,.162.241l3.818,3.818a.75.75,0,0,0,1.06-1.06l-2.537-2.538h11.553a4.573,4.573,0,0,0,4.568-4.568v-1.909A.75.75,0,0,0,1183.078,1110.524Z" fill="#4d4d4d"/>
    <rect id="Rectangle_1608" data-name="Rectangle 1608" width="24" height="24" transform="translate(1162.487 1098.319)" fill="none"/>
  </g>
</svg>
