<svg xmlns="http://www.w3.org/2000/svg" viewBox="0 0 24 24"><defs><style>.cls-1{fill:#222;}.cls-2{fill:none;}</style></defs><g id="Layer_2" data-name="Layer 2"><g id="Layer_13" data-name="Layer 13"><path class="cls-1" d="M12,2.25A9.76,9.76,0,0,0,2.25,12v7A2.75,2.75,0,0,0,5,21.75H6A2.75,2.75,0,0,0,8.75,19V16A2.75,2.75,0,0,0,6,13.25H3.75V12a8.25,8.25,0,0,1,16.5,0v1.25H18A2.75,2.75,0,0,0,15.25,16v3A2.75,2.75,0,0,0,18,21.75h1A2.75,2.75,0,0,0,21.75,19V12A9.76,9.76,0,0,0,12,2.25ZM6,14.75A1.25,1.25,0,0,1,7.25,16v3A1.25,1.25,0,0,1,6,20.25H5A1.25,1.25,0,0,1,3.75,19V14.75ZM20.25,19A1.25,1.25,0,0,1,19,20.25H18A1.25,1.25,0,0,1,16.75,19V16A1.25,1.25,0,0,1,18,14.75h2.25V19Z"/><rect id="Rectangle_1608" data-name="Rectangle 1608" class="cls-2" width="24" height="24"/></g></g></svg>