<svg xmlns="http://www.w3.org/2000/svg" width="44.809" height="49.994" viewBox="0 0 44.809 49.994"><g transform="translate(-3.343 -0.992)"><path d="M5.86,24.8H5.822a2.552,2.552,0,0,0-2.479,2.6v4.7a2.552,2.552,0,0,0,2.452,2.6,2.435,2.435,0,0,1,0,4.859,2.552,2.552,0,0,0-2.451,2.6v4.7a2.552,2.552,0,0,0,2.479,2.6H44.61a2.552,2.552,0,0,0,2.479-2.6v-4.7a2.552,2.552,0,0,0-2.452-2.6,2.434,2.434,0,0,1,0-4.858,2.552,2.552,0,0,0,2.452-2.6v-4.7a2.552,2.552,0,0,0-2.479-2.6H5.86Zm.146,7.239V27.458H44.427v4.577a5.1,5.1,0,0,0,0,10.166v4.577H36.294a1.331,1.331,0,0,0-2.591,0H6.005V42.2a5.1,5.1,0,0,0,0-10.167Zm30.324-1.824a1.331,1.331,0,1,0-2.662,0v1.125a1.331,1.331,0,0,0,2.662,0Zm0,5.625a1.331,1.331,0,1,0-2.662,0V36.96a1.331,1.331,0,1,0,2.662,0Zm0,5.625a1.331,1.331,0,1,0-2.662,0v1.125a1.331,1.331,0,1,0,2.662,0Z" transform="translate(0 1.545)" fill-rule="evenodd"/><path d="M6,25.668,4.141,27.525l1.883,1.883L7.88,27.55,11.3,24.128l6.843-6.843L31.729,3.7l3.236,3.237a5.1,5.1,0,0,0,7.189,7.189l3.236,3.237L39.64,23.113a1.332,1.332,0,0,0-1.833,1.832l-2.579,2.579L37.1,28.863l3.431-2.877,6.843-6.843.013-.013.013-.014a2.552,2.552,0,0,0-.085-3.59L44,12.2a2.552,2.552,0,0,0-3.57-.1,2.434,2.434,0,0,1-3.435-3.435,2.552,2.552,0,0,0-.1-3.57L33.567,1.774a2.552,2.552,0,0,0-3.59-.085l-.014.013-.013.013L16.263,15.4,9.419,22.246ZM27.95,11.373a1.331,1.331,0,1,0-1.882,1.883l.8.8a1.331,1.331,0,1,0,1.883-1.882Zm3.977,3.977a1.331,1.331,0,0,0-1.882,1.883l.8.8a1.331,1.331,0,0,0,1.883-1.882ZM35.9,19.328a1.331,1.331,0,1,0-1.882,1.883l.8.8A1.331,1.331,0,0,0,36.7,20.123Z" transform="translate(0.052 0)" fill-rule="evenodd"/></g></svg>