<svg xmlns="http://www.w3.org/2000/svg" viewBox="0 0 24 24"><defs><style>.cls-1{fill:#222;}.cls-2{fill:none;}</style></defs><g id="Layer_2" data-name="Layer 2"><g id="Layer_13" data-name="Layer 13"><path class="cls-1" d="M16.19,18.31a.67.67,0,0,1,.21.49v.45a.7.7,0,0,1-.7.7h0a.7.7,0,0,1-.7-.7V18.8a.72.72,0,0,1,.7-.7h0A.69.69,0,0,1,16.19,18.31Zm-.49-2.46h0a.72.72,0,0,0-.7.7V17a.69.69,0,0,0,.21.49.64.64,0,0,0,.49.21.72.72,0,0,0,.7-.7v-.45a.67.67,0,0,0-.21-.49A.69.69,0,0,0,15.7,15.85Zm0-2.25h0a.71.71,0,0,0-.7.7v.45a.73.73,0,0,0,.21.5.68.68,0,0,0,.49.2h0a.7.7,0,0,0,.7-.7V14.3A.71.71,0,0,0,15.7,13.6ZM13.34,6.35,13,6h0a.7.7,0,0,0-1.19.5A.7.7,0,0,0,12,7l.32.32a.72.72,0,0,0,.5.2h0a.7.7,0,0,0,.49-1.19Zm1.59,1.59-.32-.32a.73.73,0,0,0-1,0,.71.71,0,0,0,0,1l.32.32a.69.69,0,0,0,.5.2.67.67,0,0,0,.49-.2.7.7,0,0,0,.2-.49A.72.72,0,0,0,14.93,7.94ZM16.2,9.21a.7.7,0,0,0-1,1l.32.32A.7.7,0,0,0,16.72,10a.7.7,0,0,0-.2-.5Zm4.6.15L18.19,12h1.35a1.19,1.19,0,0,1,1.16,1.21v1.88a1.19,1.19,0,0,1-1.14,1.2.82.82,0,0,0-.75.76.8.8,0,0,0,.76.85,1.2,1.2,0,0,1,1.13,1.21V21a1.18,1.18,0,0,1-1.15,1.2H4A1.17,1.17,0,0,1,2.88,21V19.08A1.19,1.19,0,0,1,4,17.87a.8.8,0,0,0,.74-.75A.81.81,0,0,0,4,16.26a1.18,1.18,0,0,1-1.13-1.21V13.18a1.15,1.15,0,0,1,.83-1.13l9.88-9.88a1.19,1.19,0,0,1,1.68,0L16.6,3.52a1.19,1.19,0,0,1,0,1.66.82.82,0,0,0,0,1.06.81.81,0,0,0,1.14.08,1.18,1.18,0,0,1,1.66,0l1.32,1.32A1.18,1.18,0,0,1,20.8,9.36Zm-3.26,1.28,2.1-2.09L18.57,7.47a2.2,2.2,0,0,1-2.74-.09,2.27,2.27,0,0,1-.77-1.51,2.19,2.19,0,0,1,.43-1.48L14.41,3.31,5.76,12H16.22l.43-.43a.68.68,0,0,1,.49-.92A.78.78,0,0,1,17.54,10.64Zm-.1,6.6a2.22,2.22,0,0,1,1.87-2.36V13.37H4.37l-.1.09v1.42a2.2,2.2,0,0,1,0,4.36v1.52h10.8a.69.69,0,0,1,.47-.39.7.7,0,0,1,.8.39h3V19.24A2.19,2.19,0,0,1,17.44,17.24Z"/><rect class="cls-2" width="24" height="24"/></g></g></svg>