<svg xmlns="http://www.w3.org/2000/svg" viewBox="0 0 24 24"><defs><style>.cls-1{fill:#222;}.cls-2{fill:none;}</style></defs><g id="Layer_2" data-name="Layer 2"><g id="Layer_13" data-name="Layer 13"><path class="cls-1" d="M22.69,12.28l-.08.13s0,.06-.05.08l-5.26,6a.76.76,0,0,1-.56.26.73.73,0,0,1-.5-.19.74.74,0,0,1-.07-1L21,12,16.17,6.49a.75.75,0,0,1,1.13-1l5.26,6a.14.14,0,0,1,.05.08l.08.13a.35.35,0,0,1,0,.14.5.5,0,0,1,0,.28A.35.35,0,0,1,22.69,12.28ZM7.76,5.44a.74.74,0,0,0-1.06.07l-5.26,6a.14.14,0,0,0-.05.08l-.08.13a.35.35,0,0,0,0,.14.5.5,0,0,0,0,.28.35.35,0,0,0,0,.14l.08.13s0,.06.05.08l5.26,6a.76.76,0,0,0,.56.26.73.73,0,0,0,.5-.19.74.74,0,0,0,.07-1L3,12,7.83,6.49A.74.74,0,0,0,7.76,5.44Zm7.11-2.15a.75.75,0,0,0-.95.48l-5.26,16a.74.74,0,0,0,.47.94.67.67,0,0,0,.24,0,.75.75,0,0,0,.71-.52l5.26-16A.74.74,0,0,0,14.87,3.29Z"/><rect class="cls-2" width="24" height="24"/></g></g></svg>