<svg xmlns="http://www.w3.org/2000/svg" viewBox="0 0 100 100"><defs><style>.cls-1{fill:#222;}.cls-2{fill:none;}.cls-3{isolation:isolate;}</style></defs><g id="Layer_2" data-name="Layer 2"><g id="Heart"><g id="Group_6683" data-name="Group 6683"><g id="Group_6681" data-name="Group 6681"><g id="Ellipse_520" data-name="Ellipse 520"><path class="cls-1" d="M37.91,78.5A5.54,5.54,0,1,1,43.45,73,5.55,5.55,0,0,1,37.91,78.5Zm0-9.07A3.54,3.54,0,1,0,41.45,73,3.55,3.55,0,0,0,37.91,69.43Z"/></g><g id="Ellipse_521" data-name="Ellipse 521"><path class="cls-1" d="M65.18,78.5A5.54,5.54,0,1,1,70.73,73,5.54,5.54,0,0,1,65.18,78.5Zm0-9.07A3.54,3.54,0,1,0,68.73,73,3.54,3.54,0,0,0,65.18,69.43Z"/></g><g id="Path_2993" data-name="Path 2993"><path class="cls-1" d="M63.73,62.63H39.62a5.58,5.58,0,0,1-5.54-4.82L30.62,31.69a3.55,3.55,0,0,0-3.51-3.07c-.86,0-1.67,0-2.39-.07a17.13,17.13,0,0,0-2,0l-.6.09A1,1,0,0,1,21,27.77a1,1,0,0,1,.84-1.14l.67-.09a15.91,15.91,0,0,1,2.29,0c.69,0,1.47.07,2.3.07a5.57,5.57,0,0,1,5.5,4.81l3.45,26.12a3.55,3.55,0,0,0,3.55,3.08h24a3.53,3.53,0,0,0,3.56-2.85l3.82-19A1,1,0,0,1,72.2,38,1,1,0,0,1,73,39.15l-3.82,19A5.54,5.54,0,0,1,63.73,62.63Z"/></g></g><g id="Group_6682" data-name="Group 6682"><g id="Group_297" data-name="Group 297"><g id="Ellipse_37" data-name="Ellipse 37"><circle class="cls-2" cx="51.5" cy="36.5" r="14"/><path class="cls-1" d="M51.51,50.5c-.41,0-.83,0-1.24,0l.18-2a9.18,9.18,0,0,0,1.06,0q.39,0,.78,0l.13,2C52.12,50.49,51.81,50.5,51.51,50.5Zm3-.33-.43-2a11.89,11.89,0,0,0,1.76-.53l.73,1.86A14.84,14.84,0,0,1,54.55,50.17Zm-6.4-.07a13.2,13.2,0,0,1-2-.68l.77-1.84a11.54,11.54,0,0,0,1.75.57Zm10.4-1.5-1-1.73a11.3,11.3,0,0,0,1.51-1l1.26,1.56A14.16,14.16,0,0,1,58.55,48.6Zm-14.36-.16a13.52,13.52,0,0,1-1.74-1.26l1.29-1.53a11.48,11.48,0,0,0,1.5,1.09ZM61.88,45.9l-1.49-1.34a11.18,11.18,0,0,0,1.13-1.46l1.67,1.1A13.49,13.49,0,0,1,61.88,45.9Zm-21-.23a14.31,14.31,0,0,1-1.28-1.73l1.69-1.06a14.18,14.18,0,0,0,1.1,1.48Zm23.32-3.35-1.82-.83a12.05,12.05,0,0,0,.63-1.74L65,40.3A13.2,13.2,0,0,1,64.24,42.32ZM38.64,42a13.65,13.65,0,0,1-.7-2l1.94-.5a11.88,11.88,0,0,0,.59,1.74ZM65.4,38.19l-2-.24a11.76,11.76,0,0,0,.09-1.45c0-.13,0-.26,0-.4l2-.06c0,.15,0,.31,0,.46A13.69,13.69,0,0,1,65.4,38.19Zm-27.83-.31a12.63,12.63,0,0,1-.07-1.38c0-.26,0-.51,0-.77l2,.11c0,.22,0,.44,0,.66a11.71,11.71,0,0,0,.06,1.19Zm25.72-3.61a11.15,11.15,0,0,0-.48-1.78l1.89-.67a13.9,13.9,0,0,1,.56,2.08ZM39.76,34l-2-.41a13.64,13.64,0,0,1,.61-2.07l1.87.71A12.35,12.35,0,0,0,39.76,34Zm22.31-3.2a12,12,0,0,0-1-1.55l1.59-1.21a13.31,13.31,0,0,1,1.17,1.81Zm-21-.24-1.74-1a13.7,13.7,0,0,1,1.21-1.79l1.57,1.25A12,12,0,0,0,41.06,30.57Zm18.79-2.69a12.17,12.17,0,0,0-1.42-1.18l1.15-1.63a13.57,13.57,0,0,1,1.66,1.37Zm-16.5-.19L42,26.23a13.62,13.62,0,0,1,1.69-1.34l1.11,1.66A13.1,13.1,0,0,0,43.35,27.69Zm13.49-1.94a12.73,12.73,0,0,0-1.71-.69l.61-1.91a15,15,0,0,1,2,.81ZM46.4,25.64l-.85-1.81a12.83,12.83,0,0,1,2-.77L48.12,25A10.53,10.53,0,0,0,46.4,25.64Zm6.94-1a12.24,12.24,0,0,0-3.42,0l-.26-2a14.34,14.34,0,0,1,4,0Z"/></g></g><g id="_0" data-name=" 0" class="cls-3"><g class="cls-3"><path class="cls-1" d="M48.23,35.26a5.91,5.91,0,0,1,1-3.58,3.81,3.81,0,0,1,5.58,0,6.12,6.12,0,0,1,.92,3.68v2a5.92,5.92,0,0,1-1,3.6,3.78,3.78,0,0,1-5.57,0,6.25,6.25,0,0,1-.92-3.7Zm1.9,2.41a4.69,4.69,0,0,0,.46,2.26,1.62,1.62,0,0,0,2.75-.06,4.88,4.88,0,0,0,.45-2.37V34.92a4.56,4.56,0,0,0-.46-2.21,1.68,1.68,0,0,0-2.76,0,4.84,4.84,0,0,0-.44,2.35Z"/></g></g></g></g><g id="Ellipse_89" data-name="Ellipse 89"><circle class="cls-2" cx="50" cy="50" r="50"/><path class="cls-1" d="M50,100a50,50,0,1,1,50-50A50.06,50.06,0,0,1,50,100ZM50,2A48,48,0,1,0,98,50,48.05,48.05,0,0,0,50,2Z"/></g></g></g></svg>