<svg xmlns="http://www.w3.org/2000/svg" viewBox="0 0 24 24"><defs><style>.cls-1{fill:#222;}.cls-2{fill:none;}</style></defs><g id="Layer_2" data-name="Layer 2"><g id="Layer_13" data-name="Layer 13"><path class="cls-1" d="M12,1A11,11,0,1,0,23,12,11,11,0,0,0,12,1Zm0,20a9,9,0,1,1,9-9A9,9,0,0,1,12,21ZM15.92,6.81,9.56,8.93a1,1,0,0,0-.63.63L6.81,15.92a1,1,0,0,0,1,1.32,1.19,1.19,0,0,0,.32,0l6.36-2.12a1,1,0,0,0,.63-.63l2.12-6.36a1,1,0,0,0-1.27-1.27Zm-2.59,6.52-4,1.33,1.33-4,4-1.33Z"/><rect class="cls-2" width="24" height="24"/></g></g></svg>