<svg xmlns="http://www.w3.org/2000/svg" width="48" height="48" viewBox="0 0 48 48"><path d="M23.908,48h0Zm.169,0h0Zm-.243,0h0Zm.32,0h0Zm-.391,0h0Zm.468,0h0Zm.077,0h0Zm-.636,0h0Zm.713,0h0ZM23.6,48h0Zm.865,0h0Zm-.936,0h0Zm-.088,0h0Zm1.1,0h0Zm-1.178,0h0Zm1.255,0h0Zm.077,0h0Zm-1.4,0h0Zm-.067,0h0Zm1.548,0h0Zm.077,0h0Zm-1.722,0h0Zm-.07,0h0Zm1.869,0h0Zm-1.938,0h0Zm2.015,0h0Zm-2.112,0,.036,0h-.036Zm2.189,0h-.009l.036,0h-.027Zm-2.258,0,.037,0h-.037Zm2.335,0H25.14l.037,0Zm-2.4,0,.037,0h-.037Zm2.479,0h-.026l.037,0Zm.077,0-.034,0,.03,0,.035,0-.032,0Zm-2.618,0,.03,0-.034,0-.032,0,.035,0Zm2.694,0h-.015l.038,0Zm-2.8,0,.038,0H22.59Zm-.068,0,.038,0h-.038Zm2.942,0H25.44l.038,0h-.014Zm-3.007,0,.034,0-.032,0-.032,0,.03,0Zm3.083,0-.032,0,.034,0,.03,0-.032,0Zm.076,0h-.011l.036,0-.025,0Zm-3.258,0,.036,0h-.011Zm-.068,0,.036,0h-.036Zm3.4,0h-.02l.036,0Zm-3.47-.006.033,0-.025,0h-.007Zm3.546,0-.025,0,.033,0h-.007Zm-3.636-.007.029,0h-.007Zm3.713,0h-.007l.029,0Zm.076-.006h-.014l.029,0Zm-3.858,0,.029,0h-.029ZM22,47.917l.025,0H22Zm4,0H25.98l.025,0Zm-4.077-.007h0Zm4.153,0h0Zm.076-.007h-.007l.017,0Zm-4.309,0,.017,0H21.84Zm-.07-.006h0Zm4.455,0h0Zm-5.975-.19a24,24,0,1,1,7.5,0V30.937h5.592L34.406,24H27.75V19.5c0-1.9.93-3.748,3.911-3.748h3.026V9.844a36.906,36.906,0,0,0-5.372-.469c-5.482,0-9.065,3.323-9.065,9.338V24H14.156v6.937H20.25Z" fill="#666" fill-rule="evenodd"/></svg>