<svg xmlns="http://www.w3.org/2000/svg" viewBox="0 0 47.77 65"><defs><style>.cls-1{fill:#666;}</style></defs><g id="Layer_2" data-name="Layer 2"><g id="Layer_13" data-name="Layer 13"><path class="cls-1" d="M47.76,20.76s0,0,0-.06a.4.4,0,0,0-.12-.23L27.3.15A.48.48,0,0,0,27.07,0H3.22A3.22,3.22,0,0,0,0,3.21V61.79H0A3.22,3.22,0,0,0,3.22,65H44.55a3.22,3.22,0,0,0,3.22-3.21v-41S47.76,20.78,47.76,20.76ZM44.55,64H3.22A2.22,2.22,0,0,1,1,61.79V3.21A2.21,2.21,0,0,1,3.22,1H26.45V18.11a3.21,3.21,0,0,0,3.21,3.21H46.77V61.79A2.22,2.22,0,0,1,44.55,64Z"/></g></g></svg>