<svg xmlns="http://www.w3.org/2000/svg" viewBox="0 0 24 24"><defs><style>.cls-1{fill:#fff;}.cls-2{fill:none;}</style></defs><g id="Layer_2" data-name="Layer 2"><g id="Layer_13" data-name="Layer 13"><path id="icon50" class="cls-1" d="M10.3,19.5a1,1,0,0,1-.63-.23L2.32,13a1,1,0,0,1,0-1.42L9.64,4.75a1,1,0,0,1,1.07-.16.93.93,0,0,1,.41.35,1,1,0,0,1,.17.53V8.31C18.4,8.73,21.11,15.15,22,18L22,18a1,1,0,0,1-.51,1.06,1,1,0,0,1-.74.07,1,1,0,0,1-.53-.43c-2.1-3-4.59-3.58-8.92-3.62v3.43a.9.9,0,0,1-.16.53l-.06.09a1,1,0,0,1-.67.36ZM3.76,12.22l6,5.17V14.57a1.05,1.05,0,0,1,.3-.69,1,1,0,0,1,.64-.29c3.31,0,6.28.19,8.76,2.17-1.37-2.71-4-5.89-8.72-6a1,1,0,0,1-.68-.28,1,1,0,0,1-.3-.72V6.66Zm7.53-3.43h0Zm-.52-.5h0Z"/><rect class="cls-2" width="24" height="24"/></g></g></svg>