<svg xmlns="http://www.w3.org/2000/svg" viewBox="0 0 24 24"><defs><style>.cls-1{fill:#222;}.cls-2{fill:none;}</style></defs><g id="Layer_2" data-name="Layer 2"><g id="Heart"><path class="cls-1" d="M21.41,11.59a1.59,1.59,0,0,0-.75-1L5,1.47a1.57,1.57,0,0,0-.81-.22h0a1.6,1.6,0,0,0-1.6,1.6v18.3A1.63,1.63,0,0,0,3.73,22.7a2,2,0,0,0,.41.05A1.57,1.57,0,0,0,5,22.53l15.71-9.15a1.61,1.61,0,0,0,.58-.58A1.55,1.55,0,0,0,21.41,11.59ZM4,19.86V3.94l7.89,8ZM13,13l1.93,2L5.62,20.41ZM6.05,3.84,14.9,9,13,10.91Zm13.86,8.25-3.66,2.13L14,12l2.2-2.2,3.67,2.13S20,12,19.91,12.09Z"/><rect class="cls-2" width="24" height="24"/></g></g></svg>