<svg xmlns="http://www.w3.org/2000/svg" width="49.929" height="39" viewBox="0 0 49.929 39"><g transform="translate(-689.942 -5398)"><path d="M41.844,9.664h0l2.323.7,3.689,1.117a1,1,0,0,1,.667,1.247L40.405,39.537a1,1,0,0,1-1.247.667l-1.366-.414-1.161-.352h0" transform="translate(690 5393)" fill="none" stroke="#000" stroke-linecap="round" stroke-linejoin="round" stroke-width="2.5"/><path d="M8.549,9.489l-.581.176-2.323.7L1.957,11.485a1,1,0,0,0-.667,1.247L9.408,39.537a1,1,0,0,0,1.247.667l1.366-.414,1.161-.352.313-.155" transform="translate(690 5393)" fill="none" stroke="#000" stroke-linecap="round" stroke-linejoin="round" stroke-width="2.5"/><path d="M13.606,42.75V6.25H36.341v36.5Z" transform="translate(690 5393)" fill="none" stroke="#000" stroke-width="2.5"/></g></svg>