<svg xmlns="http://www.w3.org/2000/svg" viewBox="0 0 24 24"><defs><style>.cls-1{fill:#222;}.cls-2{fill:none;}</style></defs><g id="Layer_2" data-name="Layer 2"><g id="Layer_13" data-name="Layer 13"><path class="cls-1" d="M20,14H15.78l.45-4H20a1,1,0,0,0,0-2H16.45L17,3.11a1,1,0,0,0-2-.22L14.44,8h-4L11,3.11a1,1,0,0,0-2-.22L8.44,8H4a1,1,0,0,0,0,2H8.22l-.45,4H4a1,1,0,0,0,0,2H7.55L7,20.89A1,1,0,0,0,7.89,22H8a1,1,0,0,0,1-.89L9.56,16h4L13,20.89a1,1,0,0,0,.88,1.1H14a1,1,0,0,0,1-.89L15.56,16H20a1,1,0,0,0,0-2ZM9.78,14l.45-4h4l-.45,4Z"/><rect class="cls-2" width="24" height="24"/></g></g></svg>