<svg xmlns="http://www.w3.org/2000/svg" viewBox="0 0 10.54 16.34"><defs><style>.cls-1{fill:#fff;stroke:#fff;stroke-linecap:round;stroke-linejoin:round;stroke-width:0.34px;}.cls-2{fill:#222;}</style></defs><g id="Layer_2" data-name="Layer 2"><g id="Layer_1-2" data-name="Layer 1"><g id="tag-multiple-2"><path class="cls-1" d="M10.37,14.31a1.68,1.68,0,0,1-.56,1.3,2,2,0,0,1-1.3.56H2A1.85,1.85,0,0,1,.17,14.36h0V5.27A1.7,1.7,0,0,1,.73,4L4,.72A1.8,1.8,0,0,1,6.5.66l.07.06h0L9.81,4a1.87,1.87,0,0,1,.56,1.3v9"/></g><circle id="Ellipse_41" data-name="Ellipse 41" class="cls-2" cx="5.23" cy="6.27" r="1.86"/><path id="Path_138" data-name="Path 138" class="cls-2" d="M1.77,11a2.08,2.08,0,0,1,2-2.18h3a2.08,2.08,0,0,1,2,2.18"/></g></g></svg>