<svg xmlns="http://www.w3.org/2000/svg" width="62.602" height="96.998" viewBox="0 0 62.602 96.998"><g transform="translate(0.005 -0.002)"><g transform="translate(0.996 1.002)"><path d="M61.592,85a10,10,0,0,1-3.31,7.71A11.618,11.618,0,0,1,50.574,96H12A11,11,0,0,1,1,85.26H1v-54a10,10,0,0,1,3.31-7.71L23.587,4.3a10.648,10.648,0,0,1,15.048-.36L39,4.3h0L58.283,23.58a11.1,11.1,0,0,1,3.31,7.71V85" transform="translate(-0.996 -1.002)" fill="none" stroke="#fff" stroke-linecap="round" stroke-linejoin="round" stroke-width="2"/><ellipse cx="11.05" cy="11.04" rx="11.05" ry="11.04" transform="translate(19.04 25.158)" fill="none" stroke="#fff" stroke-linecap="round" stroke-linejoin="round" stroke-width="2"/><path d="M10.49,65.51c0-7.17,5.239-13,11.7-13h17.7c6.449,0,11.678,5.82,11.688,13" transform="translate(-0.996 -1.002)" fill="none" stroke="#fff" stroke-linecap="round" stroke-linejoin="round" stroke-width="2"/></g></g></svg>