<svg xmlns="http://www.w3.org/2000/svg" width="14.195" height="21.503" viewBox="0 0 14.195 21.503">
  <g id="Group_3081" data-name="Group 3081" transform="translate(0.75 0.75)">
    <path id="tag-multiple-2" d="M-12307.663,481.056a1.665,1.665,0,0,0,2.421,0,1.693,1.693,0,0,0,0-2.435,1.664,1.664,0,0,0-2.421,0,1.685,1.685,0,0,0,0,2.435h0m7.553,11.828a2.1,2.1,0,0,1-.687,1.623,2.436,2.436,0,0,1-1.62.7h-8.077a2.31,2.31,0,0,1-2.311-2.261h0V481.578a2.1,2.1,0,0,1,.694-1.624l4.039-4.059a2.225,2.225,0,0,1,3.232,0h0l4.042,4.059a2.341,2.341,0,0,1,.687,1.624v11.306" transform="translate(12312.805 -475.2)" fill="rgba(0,0,0,0)" stroke="#222" stroke-linecap="round" stroke-linejoin="round" stroke-miterlimit="10" stroke-width="1.5"/>
    <path id="Path_138-2" d="M-12308.6,495.92c.057-2.968,1.048-5.32,2.208-5.32l3.258.056c1.157,0,2.1,2.464,2.042,5.376" transform="translate(12311.104 -481.446)" fill="rgba(0,0,0,0)" stroke="#222" stroke-linecap="round" stroke-linejoin="round" stroke-miterlimit="10" stroke-width="1.5"/>
  </g>
</svg>
