<svg xmlns="http://www.w3.org/2000/svg" viewBox="0 0 24 24"><defs><style>.cls-1{fill:none;}.cls-2{fill:#222;}</style></defs><g id="Layer_2" data-name="Layer 2"><g id="Heart"><rect class="cls-1" width="24" height="24"/><path class="cls-2" d="M22.52,2.59a.64.64,0,0,0-.29-.16h0a1.08,1.08,0,0,0-.19,0h0L2,2.25a.76.76,0,0,0-.71.5.77.77,0,0,0,.25.84L10,10.2l1.52,10.9a.75.75,0,0,0,.6.64h.14a.77.77,0,0,0,.66-.39L22.66,3.49A.76.76,0,0,0,22.52,2.59ZM19.25,3.87l-8.53,5L4.2,3.76ZM12.68,18.65,11.5,10.16l8.55-5Z"/></g></g></svg>