<svg xmlns="http://www.w3.org/2000/svg" viewBox="0 0 24 24"><defs><style>.cls-1{fill:#222;}.cls-2{fill:none;}</style></defs><g id="Layer_2" data-name="Layer 2"><g id="Heart"><path class="cls-1" d="M20.45,4.13A6,6,0,0,0,16.1,2.35,6.55,6.55,0,0,0,12,3.84,6.5,6.5,0,0,0,7.89,2.35H7.77a6.13,6.13,0,0,0-6,6.22C1.75,12.73,5.37,16,9.92,20l1.28,1.28a1.13,1.13,0,0,0,1.6,0l1.25-1.25.11-.1c4.69-4.24,8.09-7.31,8.09-11.39V8.46A6.09,6.09,0,0,0,20.45,4.13Zm.37,4.44c0,3.45-3.2,6.34-7.62,10.34L12,20.1,10.9,19C6.42,15,3.18,12.09,3.18,8.56a4.69,4.69,0,0,1,4.7-4.78,5.1,5.1,0,0,1,3.61,1.53l.51.52.51-.52a5.1,5.1,0,0,1,3.6-1.53,4.69,4.69,0,0,1,3.33,1.37,4.63,4.63,0,0,1,1.38,3.31h.71Z"/><rect class="cls-2" width="24" height="24"/></g></g></svg>