<svg xmlns="http://www.w3.org/2000/svg" viewBox="0 0 24 24"><defs><style>.cls-1{fill:#222;}.cls-2{fill:none;}</style></defs><g id="Layer_2" data-name="Layer 2"><g id="Heart"><path class="cls-1" d="M21,5.25H16.75V4A2.75,2.75,0,0,0,14,1.25H10A2.75,2.75,0,0,0,7.25,4V5.25H3a.75.75,0,0,0,0,1.5H4.25V20A2.75,2.75,0,0,0,7,22.75H17A2.75,2.75,0,0,0,19.75,20V6.75H21a.75.75,0,0,0,0-1.5ZM8.75,4A1.25,1.25,0,0,1,10,2.75h4A1.25,1.25,0,0,1,15.25,4V5.25H8.75Zm9.5,16A1.25,1.25,0,0,1,17,21.25H7A1.25,1.25,0,0,1,5.75,20V6.75h12.5Zm-7.5-9v6a.75.75,0,0,1-1.5,0V11a.75.75,0,0,1,1.5,0Zm4,0v6a.75.75,0,0,1-1.5,0V11a.75.75,0,0,1,1.5,0Z"/><rect class="cls-2" width="24" height="24"/></g></g></svg>