<svg xmlns="http://www.w3.org/2000/svg" viewBox="0 0 24 24"><defs><style>.cls-1{fill:#222;}.cls-2{fill:none;}</style></defs><g id="Layer_2" data-name="Layer 2"><g id="Layer_1-2" data-name="Layer 1"><path class="cls-1" d="M19.6,4.4A10.75,10.75,0,1,0,12,22.75a10.82,10.82,0,0,0,6.54-2.22.75.75,0,0,0,.14-1.05.76.76,0,0,0-1.06-.14A9.24,9.24,0,0,1,2.75,12,9.25,9.25,0,0,1,18.54,5.46,9.18,9.18,0,0,1,21.25,12v1.07a2.25,2.25,0,0,1-3.86,1.54A2.23,2.23,0,0,1,16.75,13v-.57s0-.1,0-.15,0-.11,0-.16V12s0-.08,0-.12A4.51,4.51,0,1,0,15.81,15a4.49,4.49,0,0,0,.5.65A3.75,3.75,0,0,0,22.75,13V12A10.68,10.68,0,0,0,19.6,4.4ZM12.28,15.27a3,3,0,1,1,3-3.15v.31A3,3,0,0,1,12.28,15.27Z"/><rect class="cls-2" width="24" height="24"/></g></g></svg>