<svg xmlns="http://www.w3.org/2000/svg" width="25.001" height="25.001" viewBox="0 0 25.001 25.001">
  <g id="Group_3427" data-name="Group 3427" transform="translate(-9165 954)">
    <path id="Rectangle_233" data-name="Rectangle 233" d="M484.958,196.591v6.173h0a1.881,1.881,0,0,1-1.148,1.6,2.055,2.055,0,0,1-2.631-.357c-.416-.642-.112-1.654.969-2.209a2.391,2.391,0,0,1,2.019-.138v-8.078L492.082,192v9.974h0a1.881,1.881,0,0,1-1.148,1.6,2.055,2.055,0,0,1-2.631-.357c-.416-.642-.112-1.654.969-2.209a2.392,2.392,0,0,1,2.019-.138v-5.545Zm0,0" transform="translate(8689.722 -1139.662)" fill="#222" fill-rule="evenodd"/>
    <g id="Path_2946" data-name="Path 2946" transform="translate(9165 -954)" fill="none">
      <path d="M12.5,0A12.5,12.5,0,1,1,0,12.5,12.5,12.5,0,0,1,12.5,0Z" stroke="none"/>
      <path d="M 12.50048828125 1.499998092651367 C 9.562148094177246 1.499998092651367 6.799688339233398 2.644248962402344 4.721967697143555 4.721967697143555 C 2.644248962402344 6.799688339233398 1.499998092651367 9.562148094177246 1.499998092651367 12.50048828125 C 1.499998092651367 15.43882846832275 2.644248962402344 18.2012882232666 4.721967697143555 20.27900886535645 C 6.799688339233398 22.35672760009766 9.562148094177246 23.50097846984863 12.50048828125 23.50097846984863 C 15.43882846832275 23.50097846984863 18.2012882232666 22.35672760009766 20.27900886535645 20.27900886535645 C 22.35672760009766 18.2012882232666 23.50097846984863 15.43882846832275 23.50097846984863 12.50048828125 C 23.50097846984863 9.562148094177246 22.35672760009766 6.799688339233398 20.27900886535645 4.721967697143555 C 18.2012882232666 2.644248962402344 15.43882846832275 1.499998092651367 12.50048828125 1.499998092651367 M 12.50048828125 -1.9073486328125e-06 C 19.40431785583496 -1.9073486328125e-06 25.00097846984863 5.596658706665039 25.00097846984863 12.50048828125 C 25.00097846984863 19.40431785583496 19.40431785583496 25.00097846984863 12.50048828125 25.00097846984863 C 5.596658706665039 25.00097846984863 -1.9073486328125e-06 19.40431785583496 -1.9073486328125e-06 12.50048828125 C -1.9073486328125e-06 5.596658706665039 5.596658706665039 -1.9073486328125e-06 12.50048828125 -1.9073486328125e-06 Z" stroke="none" fill="#222"/>
    </g>
  </g>
</svg>
