<svg xmlns="http://www.w3.org/2000/svg" viewBox="0 0 24 24"><defs><style>.cls-1{fill:#222;}.cls-2{fill:none;}</style></defs><g id="Layer_2" data-name="Layer 2"><g id="Heart"><path class="cls-1" d="M19.25,13v6.4a2.88,2.88,0,0,1-2.88,2.88H4.63a2.88,2.88,0,0,1-2.88-2.88V7.63A2.88,2.88,0,0,1,4.63,4.75H11a.75.75,0,1,1,0,1.5H4.63A1.38,1.38,0,0,0,3.25,7.63V19.37a1.38,1.38,0,0,0,1.38,1.38H16.37a1.38,1.38,0,0,0,1.38-1.38V13a.75.75,0,1,1,1.5,0ZM22.19,2.21a.71.71,0,0,0-.4-.4.75.75,0,0,0-.29-.06h-6a.75.75,0,0,0,0,1.5h4.19L12,11A.75.75,0,0,0,12,12,.75.75,0,0,0,13,12l7.72-7.72V8.5a.75.75,0,0,0,1.5,0v-6A.75.75,0,0,0,22.19,2.21Z"/><rect class="cls-2" width="24" height="24"/></g></g></svg>