<svg xmlns="http://www.w3.org/2000/svg" viewBox="0 0 24 24"><defs><style>.cls-1{fill:#222;}.cls-2{fill:none;}</style></defs><g id="Layer_2" data-name="Layer 2"><g id="Heart"><path class="cls-1" d="M9.56,16.5a.76.76,0,0,1-.75.75h-2a5.41,5.41,0,0,1-5.46-4.78A5.25,5.25,0,0,1,6.54,6.75H8.81a.75.75,0,1,1,0,1.5H6.54A3.76,3.76,0,0,0,2.8,12.34a3.91,3.91,0,0,0,4,3.41h2A.76.76,0,0,1,9.56,16.5Zm13.13-5a5.41,5.41,0,0,0-5.46-4.78H14.81a.75.75,0,0,0,0,1.5h2.42a3.91,3.91,0,0,1,4,3.41,3.76,3.76,0,0,1-3.74,4.09H14.81a.75.75,0,0,0,0,1.5h2.65a5.25,5.25,0,0,0,5.23-5.72ZM7.25,12a.76.76,0,0,0,.75.75h8a.75.75,0,0,0,0-1.5H8A.76.76,0,0,0,7.25,12Z"/><rect class="cls-2" width="24" height="24"/></g></g></svg>