<svg xmlns="http://www.w3.org/2000/svg" viewBox="0 0 24 24"><defs><style>.cls-1{fill:#222;}.cls-2{fill:none;}</style></defs><g id="Layer_2" data-name="Layer 2"><g id="Heart"><path class="cls-1" d="M19.66,6H17.79a.72.72,0,0,0,.2-.49V4.34a3.1,3.1,0,0,0-3.1-3.09H4.34A3.1,3.1,0,0,0,1.25,4.34V14.89A3.1,3.1,0,0,0,4.34,18H5.52a.72.72,0,0,0,.49-.2v1.87a3.1,3.1,0,0,0,3.1,3.09H19.66a3.1,3.1,0,0,0,3.09-3.09V9.11A3.1,3.1,0,0,0,19.66,6ZM6,9.11v7.57a.76.76,0,0,0-.49-.19H4.34a1.6,1.6,0,0,1-1.59-1.6V4.34A1.6,1.6,0,0,1,4.34,2.75H14.89a1.6,1.6,0,0,1,1.6,1.59V5.52a.76.76,0,0,0,.19.49H9.11A3.1,3.1,0,0,0,6,9.11ZM21.25,19.66a1.6,1.6,0,0,1-1.59,1.59H9.11a1.6,1.6,0,0,1-1.6-1.59V9.11a1.6,1.6,0,0,1,1.6-1.6H19.66a1.6,1.6,0,0,1,1.59,1.6Z"/><rect class="cls-2" width="24" height="24"/></g></g></svg>