<svg xmlns="http://www.w3.org/2000/svg" viewBox="0 0 24 24"><defs><style>.cls-1{fill:none;}.cls-2{fill:#222;}</style></defs><g id="Layer_2" data-name="Layer 2"><g id="Heart"><rect class="cls-1" width="24" height="24"/><path class="cls-2" d="M21.15,17.66,14,4.22a2.26,2.26,0,0,0-4,0L2.85,17.66a2.2,2.2,0,0,0,.06,2.22A2.23,2.23,0,0,0,4.83,21H19.17a2.23,2.23,0,0,0,1.92-1.09A2.2,2.2,0,0,0,21.15,17.66Zm-1.34,1.45a.74.74,0,0,1-.64.36H4.83a.74.74,0,0,1-.64-.36.75.75,0,0,1,0-.74L11.34,4.92a.75.75,0,0,1,1.32,0l7.17,13.45A.75.75,0,0,1,19.81,19.11Zm-8.56-5.58v-5a.75.75,0,0,1,1.5,0v5a.75.75,0,1,1-1.5,0Zm2,2.89A1.29,1.29,0,1,1,12,15.13,1.29,1.29,0,0,1,13.29,16.42Z"/></g></g></svg>