<svg xmlns="http://www.w3.org/2000/svg" viewBox="0 0 24 24"><defs><style>.cls-1{fill:#222;}.cls-2{fill:none;}</style></defs><g id="Layer_2" data-name="Layer 2"><g id="Heart"><path class="cls-1" d="M12.34,3.36a1.71,1.71,0,0,0-1.85.45L5.87,8.2H3.3A1.54,1.54,0,0,0,1.75,9.71v4.58A1.53,1.53,0,0,0,3.3,15.8H5.87l4.6,4.36a1.89,1.89,0,0,0,1.3.59,1.45,1.45,0,0,0,.54-.11A1.7,1.7,0,0,0,13.25,19V4.89A1.58,1.58,0,0,0,12.34,3.36ZM3.25,14.29l0-4.59H5s0,.07,0,.11v4.37s0,.08,0,.11ZM11.75,19c0,.14,0,.23,0,.26a.6.6,0,0,1-.24-.17l-5-4.76a.2.2,0,0,1,0-.11V9.79s0-.09,0-.08l5.07-4.82c.11-.1.2-.13.2-.16a.42.42,0,0,1,0,.16ZM22,14.47a.75.75,0,0,1,0,1.06.75.75,0,0,1-1.06,0L18.5,13.06,16,15.53a.75.75,0,0,1-1.06,0,.75.75,0,0,1,0-1.06L17.44,12,15,9.53A.75.75,0,1,1,16,8.47l2.47,2.47L21,8.47A.75.75,0,0,1,22,9.53L19.56,12Z"/><rect class="cls-2" width="24" height="24"/></g></g></svg>