<svg xmlns="http://www.w3.org/2000/svg" viewBox="0 0 24 24"><defs><style>.cls-1{fill:#222;}.cls-2{fill:none;}</style></defs><g id="Layer_2" data-name="Layer 2"><g id="Heart"><path class="cls-1" d="M21.27,3.14V20.85a1.14,1.14,0,0,1-.81,1.07,1,1,0,0,1-.4.08,1.27,1.27,0,0,1-.73-.24l-7.51-5.5L4.7,21.72a1.18,1.18,0,0,1-1.23.15,1.14,1.14,0,0,1-.74-1V3.14a1.15,1.15,0,0,1,.39-.84A1.11,1.11,0,0,1,3.94,2H20a1.19,1.19,0,0,1,.79.23,1.16,1.16,0,0,1,.45.78Z"/><rect class="cls-2" width="24" height="24"/></g></g></svg>