<svg xmlns="http://www.w3.org/2000/svg" width="58.208" height="65.029" viewBox="0 0 58.208 65.029">
  <g id="Path" transform="translate(3.079 1.839)" fill="#fff" stroke-linecap="square" stroke-linejoin="round" stroke-miterlimit="10">
    <path d="M 5.844564437866211 62.93994903564453 C 3.767374515533447 62.93994903564453 1.868434548377991 62.27534103393555 0.3530145883560181 61.01797866821289 C -1.283205389976501 59.660400390625 -2.382065296173096 57.65798950195313 -2.824775457382202 55.22723007202148 L -2.8288254737854 55.20500946044922 L -2.8288254737854 55.18243026733398 L -2.8288254737854 30.69988059997559 L -2.8288254737854 5.862730026245117 L -2.8288254737854 5.840569972991943 L -2.824925422668457 5.818750381469727 C -2.493585348129272 3.964690208435059 -1.463855385780334 2.118320226669312 0.0002245971700176597 0.7530701756477356 C 1.14601457118988 -0.3153898417949677 3.082364559173584 -1.58903980255127 5.800234794616699 -1.58903980255127 C 7.105184555053711 -1.58903980255127 8.440054893493652 -1.285429835319519 9.76777458190918 -0.6866398453712463 L 9.77956485748291 -0.6813198328018188 L 9.790754318237305 -0.6748098134994507 L 51.41957473754883 23.55392074584961 L 51.43027496337891 23.56015014648438 L 51.44031524658203 23.56740951538086 C 53.70002365112305 25.2015495300293 55.01371383666992 28.12824058532715 54.86871337890625 31.20535087585449 C 54.72953414916992 34.15874862670898 53.26298522949219 36.66872024536133 50.8451042175293 38.09165954589844 L 29.52444458007813 50.4846305847168 L 9.215564727783203 62.34630966186523 L 9.194534301757813 62.35858917236328 L 9.171525001525879 62.36658096313477 C 8.076534271240234 62.74703979492188 6.957184791564941 62.93994903564453 5.844564437866211 62.93994903564453 Z" stroke="none"/>
    <path d="M 5.80023193359375 -1.339038848876953 C 1.328372955322266 -1.339038848876953 -1.946929931640625 2.326881408691406 -2.578826904296875 5.86273193359375 L -2.578826904296875 30.69988059997559 L -2.578826904296875 55.18243026733398 C -1.661186218261719 60.22081756591797 1.939659118652344 62.68994140625 5.844554901123047 62.68994140625 C 6.919643402099609 62.68994140625 8.017993927001953 62.50271224975586 9.089473724365234 62.13042068481445 L 29.3988151550293 50.26848983764648 L 50.71829605102539 37.87619781494141 C 56.04487609863281 34.74147796630859 55.62853622436523 26.90470123291016 51.29381561279297 23.76998138427734 L 9.664993286132813 -0.458740234375 C 8.307788848876953 -1.070827484130859 7.010623931884766 -1.339038848876953 5.80023193359375 -1.339038848876953 M 5.800235748291016 -1.839038848876953 C 7.140865325927734 -1.839038848876953 8.51031494140625 -1.527988433837891 9.870555877685547 -0.9145317077636719 C 9.886264801025391 -0.907440185546875 9.901603698730469 -0.8995513916015625 9.91650390625 -0.8908805847167969 L 51.54532623291016 23.33784103393555 C 51.55959320068359 23.34614944458008 51.57343292236328 23.35514831542969 51.58681488037109 23.36481857299805 C 53.91412353515625 25.04785919189453 55.26736450195313 28.05669021606445 55.11842346191406 31.21713066101074 C 54.97520446777344 34.25638961791992 53.46384429931641 36.84059143066406 50.97189331054688 38.30712127685547 L 29.65008544921875 50.70077133178711 L 9.341644287109375 62.56217193603516 C 9.313674926757813 62.57851028442383 9.284175872802734 62.59209060668945 9.253574371337891 62.60272216796875 C 8.132133483886719 62.99237060546875 6.985176086425781 63.18994140625 5.844554901123047 63.18994140625 C 3.708354949951172 63.18994140625 1.754215240478516 62.50542068481445 0.1933746337890625 61.21038055419922 C -1.488643646240234 59.81478881835938 -2.617355346679688 57.7613410949707 -3.070735931396484 55.27201843261719 C -3.076114654541016 55.24246215820313 -3.078826904296875 55.21247863769531 -3.078826904296875 55.18243026733398 L -3.078826904296875 30.69988059997559 L -3.078826904296875 5.86273193359375 C -3.078826904296875 5.833240509033203 -3.076213836669922 5.803798675537109 -3.071025848388672 5.774768829345703 C -2.730365753173828 3.868568420410156 -1.673084259033203 1.971591949462891 -0.1702766418457031 0.570220947265625 C 1.008373260498047 -0.52886962890625 3.000965118408203 -1.839038848876953 5.800235748291016 -1.839038848876953 Z" stroke="none" fill="#fff"/>
  </g>
</svg>
