<svg xmlns="http://www.w3.org/2000/svg" viewBox="0 0 24 24"><defs><style>.cls-1{fill:#222;}.cls-2{fill:none;}</style></defs><g id="Layer_2" data-name="Layer 2"><g id="Heart"><path class="cls-1" d="M12,1.63h0A10.38,10.38,0,1,0,22.38,12,10.38,10.38,0,0,0,12,1.63ZM20.79,12A8.79,8.79,0,1,1,12,3.21,8.81,8.81,0,0,1,20.79,12ZM18,14.27a6.18,6.18,0,0,1-4.61,4.6A5.9,5.9,0,0,1,12,19a6.19,6.19,0,0,1-6-4.78.77.77,0,0,1,.09-.59.83.83,0,0,1,.5-.36.8.8,0,0,1,1,.59,4.61,4.61,0,0,0,3.43,3.44,4.62,4.62,0,0,0,5.57-3.43.8.8,0,0,1,.36-.5.77.77,0,0,1,.59-.09A.79.79,0,0,1,18,14.27ZM7.46,9.5a1.21,1.21,0,1,1,1.21,1.21A1.21,1.21,0,0,1,7.46,9.5Zm6.67,0a1.21,1.21,0,1,1,1.2,1.21A1.21,1.21,0,0,1,14.13,9.5Z"/><rect class="cls-2" width="24" height="24"/></g></g></svg>