<svg xmlns="http://www.w3.org/2000/svg" width="22.5" height="25.501" viewBox="0 0 22.5 25.501">
  <g id="Group_3428" data-name="Group 3428" transform="translate(-628.127 -790.25)">
    <path id="Path_2942" data-name="Path 2942" d="M37.258,57.906A4.808,4.808,0,1,0,42.066,53.1,4.813,4.813,0,0,0,37.258,57.906Zm8.847,0a4.039,4.039,0,1,1-4.039-4.039A4.043,4.043,0,0,1,46.1,57.906Z" transform="translate(597.025 747.018)" fill="#222" stroke="#222" stroke-width="0.6"/>
    <path id="Path_2943" data-name="Path 2943" d="M49.668,33.436c-.206-.676-.429-1.43-.46-1.565-.026-.338-.452-.6-.992-.6h-.5L47.4,29.023a1.388,1.388,0,0,0-1.433-.925H31.391a1.387,1.387,0,0,0-1.436.942l-.312,2.232h-.5c-.54,0-.966.261-.992.6-.031.135-.255.889-.461,1.564a.288.288,0,0,0-.013.089c0,.345.413.617.947.631l.186.022c.227,2.432,1.579,16.887,1.614,17.334A1.53,1.53,0,0,0,31.755,52.7l.093.021c.488.112,1.632.376,6.6.376,5.1,0,6.037-.2,6.794-.368l.138-.03c1.073-.225,1.269-.748,1.319-1.178.042-.359,1.383-14.838,1.613-17.322.217-.022.361-.038.425-.046.536-.014.949-.287.949-.631A.323.323,0,0,0,49.668,33.436Zm-18.736-4.3a.441.441,0,0,1,.459-.272H45.972c.231,0,.428.117.456.256l.3,2.148H30.635Zm14.78,22.314c-.029.249-.071.4-.592.505l-.147.032c-.662.143-1.569.34-6.53.34-4.821,0-5.907-.25-6.316-.345L32,51.957c-.143-.028-.559-.179-.584-.492-.035-.449-1.332-14.327-1.6-17.195,1.44.115,4.232.27,8.81.27,4.382,0,7.166-.142,8.69-.255C47.053,37.078,45.752,51.112,45.713,51.454Zm2.894-18.062c-.008,0-.231.029-.676.068-.016,0-.03-.009-.047-.01a.615.615,0,0,0-.223.033c-1.363.112-4.254.287-9.038.287-5.019,0-7.888-.192-9.125-.3a.613.613,0,0,0-.259-.048.529.529,0,0,0-.076.017c-.261-.026-.4-.043-.4-.044l-.038,0c.256-.844.355-1.192.394-1.347H48.248c.038.155.138.5.393,1.347Z" transform="translate(600.695 762.402)" fill="#222" stroke="#222" stroke-width="0.5"/>
  </g>
</svg>
