<svg xmlns="http://www.w3.org/2000/svg" viewBox="0 0 24 24"><defs><style>.cls-1{fill:#222;}.cls-2{fill:none;}</style></defs><g id="Layer_2" data-name="Layer 2"><g id="Heart"><path class="cls-1" d="M20.72,4,20,3.28a3.51,3.51,0,0,0-5,0L4.09,14.22a1.36,1.36,0,0,0-.35.6L2.3,20a1.35,1.35,0,0,0,.36,1.33h0a1.41,1.41,0,0,0,.59.35,1.49,1.49,0,0,0,.36.05A1.5,1.5,0,0,0,4,21.7l5.2-1.44a1.36,1.36,0,0,0,.6-.35L20.72,9A3.51,3.51,0,0,0,20.72,4ZM8.82,18.77,5.14,15.32v0l9.77-9.77,3.56,3.58ZM19.66,7.9,19.54,8,16,4.45l.12-.11a2,2,0,0,1,2.84,0h0l.72.72A2,2,0,0,1,19.66,7.9Z"/><rect class="cls-2" width="24" height="24"/></g></g></svg>