<svg xmlns="http://www.w3.org/2000/svg" viewBox="0 0 24 24"><defs><style>.cls-1{fill:none;}.cls-2{fill:#222;}</style></defs><g id="Layer_2" data-name="Layer 2"><g id="Heart"><rect class="cls-1" width="24" height="24"/><path class="cls-2" d="M19.2,2.25H4.8A2.5,2.5,0,0,0,2.25,4.71V15A2.51,2.51,0,0,0,4.8,17.46H7.65v1.82c0,.1,0,2.47,1.42,2.47h.28L14,17.46H19.2A2.51,2.51,0,0,0,21.75,15V4.71A2.5,2.5,0,0,0,19.2,2.25ZM20.25,15a1,1,0,0,1-1.05,1H13.41L9.84,19.31l-.63.57a4.35,4.35,0,0,1-.06-.6V16H4.8a1,1,0,0,1-1-1V4.71a1,1,0,0,1,1-1H19.2a1,1,0,0,1,1.05,1Z"/></g></g></svg>