<svg xmlns="http://www.w3.org/2000/svg" width="24.209" height="24" viewBox="0 0 24.209 24">
  <path id="Instagram" d="M6.987,2.752H17.222a6.962,6.962,0,0,1,6.987,6.9V19.856a6.962,6.962,0,0,1-6.987,6.9H6.987A6.962,6.962,0,0,1,0,19.856V9.648A6.963,6.963,0,0,1,6.987,2.752Zm5.052,5.52a6.766,6.766,0,1,1-6.766,6.766,6.768,6.768,0,0,1,6.766-6.766Zm0,2.285a4.481,4.481,0,1,1-4.481,4.481A4.482,4.482,0,0,1,12.039,10.558Zm6.546-3.223a1.1,1.1,0,1,1-1.1,1.1,1.1,1.1,0,0,1,1.1-1.1ZM7.823,4.712h8.563a5.847,5.847,0,0,1,5.845,5.814v8.606a5.846,5.846,0,0,1-5.845,5.814H7.823a5.847,5.847,0,0,1-5.846-5.814V10.527A5.847,5.847,0,0,1,7.823,4.712Z" transform="translate(0 -2.752)" fill="#4d4d4d" fill-rule="evenodd"/>
</svg>
