<svg xmlns="http://www.w3.org/2000/svg" viewBox="0 0 24 24"><defs><style>.cls-1{fill:#222;}.cls-2{fill:none;}</style></defs><g id="Layer_2" data-name="Layer 2"><g id="Layer_13" data-name="Layer 13"><path class="cls-1" d="M18.66,13.59a.26.26,0,0,1,0,.35.27.27,0,0,1-.16.06.26.26,0,0,1-.2-.1l-1.47-1.85a.25.25,0,0,1,.39-.31Zm2.78-1.35-3.3-1.3a.24.24,0,0,0-.32.14.24.24,0,0,0,.14.32l3.3,1.3a.15.15,0,0,0,.09,0,.26.26,0,0,0,.24-.16A.25.25,0,0,0,21.44,12.24ZM17.82,9.92a.25.25,0,0,0,.25.23h0L20.45,10a.26.26,0,0,0,.23-.28.26.26,0,0,0-.27-.23l-2.36.19A.25.25,0,0,0,17.82,9.92ZM17.3,6.07a1.75,1.75,0,0,0,.16-.71,1.68,1.68,0,0,0-3.21-.71l-2.81,6A3.43,3.43,0,0,1,14,12.74a1.59,1.59,0,0,0,.36-.41h0c0-.05,0-.11.08-.16h0a.83.83,0,0,1,1-.12.85.85,0,0,1,.4.78l.06,0a2.21,2.21,0,0,1-.18.34h0a3.31,3.31,0,0,1-1.56,1.34,3.46,3.46,0,0,1-1.1,2.08l-5,4.5a3.42,3.42,0,0,1-2.3.88H5.66a3.46,3.46,0,0,1-2.38-1.14,3.38,3.38,0,0,1-.88-2.48A3.43,3.43,0,0,1,3.53,16l5-4.5a3.24,3.24,0,0,1,1.11-.66A3.3,3.3,0,0,1,9.89,10l2.84-6.09a3.36,3.36,0,1,1,6.09,2.84L18.25,8a.83.83,0,0,1-1.11.4.84.84,0,0,1-.41-1.11ZM9.83,12.71l-.12.1-5,4.5a1.7,1.7,0,0,0-.55,1.16,1.68,1.68,0,0,0,1.59,1.76A1.62,1.62,0,0,0,7,19.81l5-4.5a1.76,1.76,0,0,0,.4-.55,3.17,3.17,0,0,1-.84-.27A3.38,3.38,0,0,1,9.83,12.71Z"/><rect class="cls-2" width="24" height="24"/></g></g></svg>