<svg xmlns="http://www.w3.org/2000/svg" viewBox="0 0 24 24"><defs><style>.cls-1{fill:#222;}.cls-2{fill:none;}</style></defs><g id="Layer_2" data-name="Layer 2"><g id="Layer_13" data-name="Layer 13"><path class="cls-1" d="M21.75,13A9.75,9.75,0,1,1,5.1,6.11a.75.75,0,0,1,1.06,0,.74.74,0,0,1,0,1.06,8.26,8.26,0,1,0,11.67,0,.75.75,0,0,1,1.06-1.06A9.7,9.7,0,0,1,21.75,13ZM12,12.75a.74.74,0,0,0,.75-.75V2a.75.75,0,0,0-1.5,0V12A.75.75,0,0,0,12,12.75Z"/><rect class="cls-2" width="24" height="24"/></g></g></svg>