<svg xmlns="http://www.w3.org/2000/svg" xmlns:xlink="http://www.w3.org/1999/xlink" width="68.369" height="42.942" viewBox="0 0 68.369 42.942">
  <defs>
    <linearGradient id="linear-gradient" x1="0.035" y1="0.08" x2="0.983" y2="0.935" gradientUnits="objectBoundingBox">
      <stop offset="0" stop-color="#0092ff"/>
      <stop offset="0.192" stop-color="#5acf5f"/>
      <stop offset="0.46" stop-color="#fdc203"/>
      <stop offset="0.779" stop-color="#fd0001"/>
      <stop offset="1" stop-color="#c401ff"/>
    </linearGradient>
  </defs>
  <g id="Logo" transform="translate(-2.07 -3.6)">
    <path id="Path_3076" data-name="Path 3076" d="M18.1,12.2h0ZM11.459,5.98a2.94,2.94,0,0,1,.725.06C11.942,6.04,11.7,5.98,11.459,5.98Zm-.242,0A14.808,14.808,0,0,0,9.587,6.1a14.808,14.808,0,0,1,1.631-.121h0ZM7.05,6.826l.544-.181Z" transform="translate(25.098 11.994)" fill="#ffbf09"/>
    <path id="Path_3077" data-name="Path 3077" d="M64.943,4.14H7.566a5.516,5.516,0,0,0-5.5,5.5V38.325a5.516,5.516,0,0,0,5.5,5.5H64.943a5.516,5.516,0,0,0,5.5-5.5V9.636A5.477,5.477,0,0,0,64.943,4.14ZM43.261,21.474h0Z" transform="translate(0 2.721)" fill="url(#linear-gradient)"/>
    <g id="Group_4514" data-name="Group 4514" transform="translate(25.866 16.404)">
      <path id="Path_3078" data-name="Path 3078" d="M26.907,16.229v1.329c0,.181-.06.362-.06.6h0c0,.121-.06.181-.06.3s-.06.181-.06.3a.858.858,0,0,1-.121.362c0,.06-.06.121-.06.181s-.06.121-.06.181-.06.121-.06.181a.332.332,0,0,0-.181.3l-.181.362a.859.859,0,0,1-.121.362h0c0,.06-.06.121-.06.181v.06a.6.6,0,0,0-.242.3h0c-.06.121-.181.3-.242.423-.121.121-.181.3-.3.423-.06.121-.181.3-.242.423l-.362.362a1.083,1.083,0,0,1-.3.423l-.362.362a1.6,1.6,0,0,1-.362.3l-.181.181-.362.362c-.06,0-.121.06-.242.121-.121.121-.242.181-.362.3l-.906.544c-.06,0-.121.06-.181.121-.181.06-.3.121-.483.181-.06.06-.181.06-.242.121-.06,0-.121.06-.181.06-.121.06-.181.06-.3.121a.363.363,0,0,1-.242.06c-.06,0-.181.06-.242.06s-.181.06-.242.06a3.405,3.405,0,0,1-.725.242c-.181,0-.362.06-.544.06a.363.363,0,0,0-.242.06h-2.6a.363.363,0,0,1-.242-.06,1.763,1.763,0,0,1-.544-.121,3.564,3.564,0,0,1-.846-.121c-.06,0-.181-.06-.242-.06s-.181-.06-.242-.06-.181-.06-.242-.06a.458.458,0,0,1-.242-.121c-.06,0-.121-.06-.181-.06-.121-.121-.181-.121-.242-.181a4.161,4.161,0,0,1-.483-.181.458.458,0,0,0-.242-.121c-.3-.181-.544-.362-.846-.544-.121-.121-.3-.181-.423-.3-.181-.121-.362-.3-.6-.483l-.181-.181a1.6,1.6,0,0,1-.362-.3,1.6,1.6,0,0,1-.3-.362,2.627,2.627,0,0,1-.362-.423c-.121-.121-.181-.242-.3-.362h0a1.264,1.264,0,0,1-.242-.362l-.06-.06a3.464,3.464,0,0,1-.242-.423,1.264,1.264,0,0,1-.242-.362.211.211,0,0,0-.06-.121C7.158,21.061,7.1,21,7.1,20.94h0a1.32,1.32,0,0,0-.181-.3c-.121-.362-.242-.664-.362-1.027,0-.06-.06-.121-.06-.181s-.06-.121-.06-.181-.06-.121-.06-.181a3.849,3.849,0,0,0-.121-.423v-.121h0c-.06-.121-.06-.3-.121-.423,0-.121-.06-.242-.06-.362v-.121a.766.766,0,0,0-.06-.362V15.142a.453.453,0,0,1,.06-.3c0-.181.06-.362.06-.544a1.138,1.138,0,0,1,.121-.483c.06-.181.06-.362.121-.483,0-.06.06-.181.06-.242s.06-.181.06-.242.06-.181.06-.242.06-.181.06-.242a.7.7,0,0,0,.3-.423c.06-.121.121-.3.181-.423,0-.06.06-.06.06-.121s.06-.121.121-.181c0-.06.06-.06.06-.121a1.32,1.32,0,0,0,.181-.3c.06-.121.121-.181.181-.3.06-.06.06-.121.121-.181a1.06,1.06,0,0,1,.242-.3,2.557,2.557,0,0,1,.3-.423h0l.362-.362h0l.362-.362a1.6,1.6,0,0,1,.3-.362l.181-.181.181-.181A.314.314,0,0,0,10,8.015l.181-.181a2.557,2.557,0,0,1,.423-.3,1.514,1.514,0,0,0,.423-.242h0c.121-.06.3-.181.423-.242.06-.06.121-.06.242-.121a3.585,3.585,0,0,1,.483-.242c.181-.06.423-.181.664-.242l.362-.181c.242-.06.483-.121.785-.181.06,0,.121-.06.181-.06a.222.222,0,0,0,.181-.06c.181-.06.362-.06.544-.121a13.741,13.741,0,0,1,1.57-.121H16.7a2.941,2.941,0,0,1,.725.06c.181,0,.3.06.483.06h.06a.457.457,0,0,1,.242.06.457.457,0,0,1,.242.06.457.457,0,0,1,.242.06c.06,0,.121.06.242.06a1.867,1.867,0,0,1,.483.121,1.536,1.536,0,0,0,.423.121c.06,0,.181.06.242.06s.181.06.242.06a.858.858,0,0,0,.362.121.187.187,0,0,1,.121.06.6.6,0,0,0,.3.242,3.061,3.061,0,0,0-.785,1.993h0V9.4h0v.121c0,.121.06.181.06.3a.211.211,0,0,0,.06.121v.06a.211.211,0,0,0,.06.121.211.211,0,0,1,.06.121.211.211,0,0,0,.06.121c0,.06.06.06.06.121a.13.13,0,0,0,.121.121c.242.242.3.362.423.483l.121.121.121.121.121.121c.06-.06.06,0,.121,0s.06.06.121.06a.974.974,0,0,0,.423.242c.06,0,.121.06.181.06s.181.06.242.06a.222.222,0,0,1,.181.06h1.208c.121,0,.181-.06.3-.06.06,0,.121,0,.121-.06.06-.06.181-.06.242-.121.06,0,.06-.06.121-.06a.458.458,0,0,1,.242-.121c.06,0,.06-.06.121-.06l.06-.06h0l.06-.06h0c.06-.06.121-.121.181-.121A9.48,9.48,0,0,1,26.907,16.229Z" transform="translate(-6.01 -5.72)" fill="#eff1f3"/>
      <circle id="Ellipse_632" data-name="Ellipse 632" cx="2.537" cy="2.537" r="2.537" transform="translate(7.912 7.972)" fill="#848383"/>
    </g>
    <path id="Path_3079" data-name="Path 3079" d="M23.252,4.4A18.6,18.6,0,1,0,41.855,23,18.61,18.61,0,0,0,23.252,4.4Zm-.121,32.192A13.771,13.771,0,1,1,36.9,22.821,13.764,13.764,0,0,1,23.131,36.592Z" transform="translate(13.002 4.032)" fill="#fff"/>
    <path id="Path_3080" data-name="Path 3080" d="M10.468,3.6H5.153A2.037,2.037,0,0,0,3.1,5.653h9.362A1.951,1.951,0,0,0,10.468,3.6Z" transform="translate(5.191 0)" fill="#444"/>
  </g>
</svg>
