<svg xmlns="http://www.w3.org/2000/svg" viewBox="0 0 24 24"><defs><style>.cls-1{fill:#222;}.cls-2{fill:none;}</style></defs><g id="Layer_2" data-name="Layer 2"><g id="Layer_13" data-name="Layer 13"><path class="cls-1" d="M12,1a9.19,9.19,0,0,0-9.18,9.18c0,6.82,8.27,12.42,8.63,12.65a1,1,0,0,0,1.1,0c.36-.23,8.63-5.83,8.63-12.65A9.19,9.19,0,0,0,12,1Zm0,19.77C10.23,19.45,4.82,15,4.82,10.18a7.18,7.18,0,0,1,14.36,0C19.18,15,13.77,19.45,12,20.77ZM12,6.46a3.73,3.73,0,1,0,3.73,3.72A3.73,3.73,0,0,0,12,6.46Zm0,5.45a1.73,1.73,0,1,1,1.73-1.73A1.74,1.74,0,0,1,12,11.91Z"/><rect class="cls-2" width="24" height="24"/></g></g></svg>