<svg xmlns="http://www.w3.org/2000/svg" viewBox="0 0 24 24"><defs><style>.cls-1{fill:#222;}.cls-2{fill:none;}</style></defs><g id="Layer_2" data-name="Layer 2"><g id="Layer_13" data-name="Layer 13"><path class="cls-1" d="M12,1.25a9,9,0,0,0-8.93,8.93c0,6.69,8.17,12.21,8.51,12.44a.74.74,0,0,0,.84,0c.34-.23,8.51-5.75,8.51-12.44A9,9,0,0,0,12,1.25Zm0,19.83c-1.62-1.19-7.43-5.8-7.43-10.9a7.43,7.43,0,0,1,14.86,0C19.43,15.27,13.62,19.89,12,21.08Z"/><path class="cls-1" d="M12,6.7a3.48,3.48,0,1,0,3.48,3.48A3.48,3.48,0,0,0,12,6.7Zm0,5.46a2,2,0,1,1,2-2A2,2,0,0,1,12,12.16Z"/><rect class="cls-2" width="24" height="24"/></g></g></svg>