<svg xmlns="http://www.w3.org/2000/svg" width="35.063" height="52.507" viewBox="0 0 35.063 52.507"><path d="M27.517,4C17.324,4,11,10.14,11,19.909,11,32.283,21.476,47.82,26.384,53.867a.456.456,0,0,0,.151.1.461.461,0,0,0,.359,0,.455.455,0,0,0,.151-.1c6.229-7.443,16.517-22.515,16.517-34.051C43.656,8.187,34.973,4,27.517,4Zm1.038,22.049a6.432,6.432,0,0,1-3.95-.487,6.31,6.31,0,0,1-2.88-2.709,6.192,6.192,0,0,1,1.113-7.371,6.418,6.418,0,0,1,7.477-1.1,6.3,6.3,0,0,1,2.748,2.839,6.178,6.178,0,0,1,.494,3.893,6.356,6.356,0,0,1-1.758,3.2,6.5,6.5,0,0,1-3.244,1.733Z" transform="translate(-9.75 -2.75)" fill="none" stroke="#000" stroke-miterlimit="10" stroke-width="2.5"/></svg>