<svg xmlns="http://www.w3.org/2000/svg" viewBox="0 0 24 24"><defs><style>.cls-1{fill:#222;}.cls-2{fill:none;}</style></defs><g id="Layer_2" data-name="Layer 2"><g id="Layer_13" data-name="Layer 13"><path id="_2561366_-_paperclip" data-name=" 2561366 - paperclip" class="cls-1" d="M8.39,22.75A6.58,6.58,0,0,1,3.74,11.52l8.92-8.91a4.63,4.63,0,1,1,6.55,6.55l-8.92,8.92a2.69,2.69,0,0,1-3.81-3.81L14.72,6A.75.75,0,0,1,15.78,7.1L7.54,15.33A1.2,1.2,0,1,0,9.23,17L18.15,8.1a3.13,3.13,0,0,0,0-4.43,3.19,3.19,0,0,0-4.43,0L4.8,12.59A5.07,5.07,0,0,0,12,19.76l8.92-8.91a.74.74,0,0,1,1.06,0,.75.75,0,0,1,0,1.06L13,20.82A6.49,6.49,0,0,1,8.39,22.75Z"/><rect id="Rectangle_1608" data-name="Rectangle 1608" class="cls-2" width="24" height="24"/></g></g></svg>