<svg xmlns="http://www.w3.org/2000/svg" xmlns:xlink="http://www.w3.org/1999/xlink" viewBox="0 0 104 104"><defs><style>.cls-1{fill:none;}.cls-2{clip-path:url(#clip-path);}.cls-3{fill:#fff;opacity:0.56;isolation:isolate;}.cls-4{fill:#ff345e;}.cls-5{fill:#ff007f;}.cls-6{fill:#8000ff;}.cls-7{fill:#2aaaf4;}.cls-8{fill:#ff7f00;}.cls-9{fill:lime;}.cls-10{fill:#ff0;}.cls-11{fill:#ff3a2d;}.cls-12{fill:#0080ff;}.cls-13{fill:blue;}.cls-14{fill:red;}.cls-15{fill:aqua;}.cls-16{fill:#4de14b;}.cls-17{fill:#f0f;}.cls-18{fill:#fed13f;}</style><clipPath id="clip-path"><circle class="cls-1" cx="52" cy="52" r="52"/></clipPath></defs><g id="Layer_2" data-name="Layer 2"><g id="Layer_13" data-name="Layer 13"><g class="cls-2"><g id="Group_4257" data-name="Group 4257"><rect id="Rectangle_466" data-name="Rectangle 466" class="cls-3" width="104" height="104" rx="16"/><path id="Rectangle_467" data-name="Rectangle 467" class="cls-4" d="M16,0H26V26H0V16A16,16,0,0,1,16,0Z"/><rect id="Rectangle_475" data-name="Rectangle 475" class="cls-5" y="52" width="26" height="26"/><rect id="Rectangle_471" data-name="Rectangle 471" class="cls-6" y="26" width="26" height="26"/><path id="Rectangle_479" data-name="Rectangle 479" class="cls-7" d="M0,78H26v26H16A16,16,0,0,1,0,88V78Z"/><rect id="Rectangle_469" data-name="Rectangle 469" class="cls-8" x="52" width="26" height="26"/><rect id="Rectangle_477" data-name="Rectangle 477" class="cls-9" x="52" y="52" width="26" height="26"/><rect id="Rectangle_473" data-name="Rectangle 473" class="cls-10" x="52" y="26" width="26" height="26"/><rect id="Rectangle_481" data-name="Rectangle 481" class="cls-11" x="52" y="78" width="26" height="26"/><rect id="Rectangle_468" data-name="Rectangle 468" class="cls-12" x="26" width="26" height="26"/><rect id="Rectangle_476" data-name="Rectangle 476" class="cls-13" x="26" y="52" width="26" height="26"/><rect id="Rectangle_472" data-name="Rectangle 472" class="cls-14" x="26" y="26" width="26" height="26"/><rect id="Rectangle_480" data-name="Rectangle 480" class="cls-15" x="26" y="78" width="26" height="26"/><path id="Rectangle_470" data-name="Rectangle 470" class="cls-16" d="M78,0H88a16,16,0,0,1,16,16V26H78V0Z"/><rect id="Rectangle_478" data-name="Rectangle 478" class="cls-12" x="78" y="52" width="26" height="26"/><rect id="Rectangle_474" data-name="Rectangle 474" class="cls-17" x="78" y="26" width="26" height="26"/><path id="Rectangle_482" data-name="Rectangle 482" class="cls-18" d="M78,78h26V88a16,16,0,0,1-16,16H78V78Z"/></g></g></g></g></svg>