<svg xmlns="http://www.w3.org/2000/svg" viewBox="0 0 18 18"><defs><style>.cls-1{fill:#fff;fill-rule:evenodd;}.cls-2{fill:none;}</style></defs><g id="Layer_2" data-name="Layer 2"><g id="Heart"><path id="Path_3051" data-name="Path 3051" class="cls-1" d="M16.28,14.14V5.37a3.64,3.64,0,0,0-3.62-3.65H3.86A1,1,0,0,0,4,1.47,3.15,3.15,0,0,1,5.73.86h8.62a2.82,2.82,0,0,1,2.79,2.79v8.62A3.07,3.07,0,0,1,16.53,14,1.28,1.28,0,0,0,16.28,14.14Z"/><path id="Path_3052" data-name="Path 3052" class="cls-1" d="M12.64,16.68H4.09A2.74,2.74,0,0,1,1.32,14V5.37A2.11,2.11,0,0,1,3.19,3a3.38,3.38,0,0,1,.45,0h8.54A2.74,2.74,0,0,1,15,5.74v8.61a2.13,2.13,0,0,1-1.88,2.33,1.69,1.69,0,0,1-.45,0Z"/><path id="Path_3050" data-name="Path 3050" class="cls-2" d="M3.64,18h8.55a3.68,3.68,0,0,0,3.43-2.38A3.65,3.65,0,0,0,18,12.24V3.64A3.69,3.69,0,0,0,14.36,0H5.76A3.59,3.59,0,0,0,2.38,2.38,3.68,3.68,0,0,0,0,5.81v8.55A3.69,3.69,0,0,0,3.64,18Zm12.19-3.44V5.81a3.63,3.63,0,0,0-3.61-3.64H3.44A2.81,2.81,0,0,1,5.76.86h8.6a2.8,2.8,0,0,1,2.78,2.78v8.6a2.8,2.8,0,0,1-1.32,2.32Zm-3.64,2.58H3.64A2.8,2.8,0,0,1,.86,14.36V5.81A2.78,2.78,0,0,1,3.63,3h8.56A2.75,2.75,0,0,1,15,5.73v8.63a2.78,2.78,0,0,1-2.77,2.78Z"/></g></g></svg>