<svg xmlns="http://www.w3.org/2000/svg" viewBox="0 0 24 24"><defs><style>.cls-1{fill:#fff;}.cls-2{fill:none;}</style></defs><g id="Layer_2" data-name="Layer 2"><g id="Layer_13" data-name="Layer 13"><path class="cls-1" d="M21.65,2.24A1,1,0,0,0,20.84,2l-12,2A1,1,0,0,0,8,5V16H5a3,3,0,0,0,0,6H7a3,3,0,0,0,3-3V5.85L20,4.18V14H17a3,3,0,0,0,0,6h2a3,3,0,0,0,3-3V3A1,1,0,0,0,21.65,2.24ZM8,19a1,1,0,0,1-1,1H5a1,1,0,0,1,0-2H8Zm12-2a1,1,0,0,1-1,1H17a1,1,0,0,1,0-2h3Z"/><rect class="cls-2" width="24" height="24"/></g></g></svg>