<svg xmlns="http://www.w3.org/2000/svg" viewBox="0 0 24 24"><defs><style>.cls-1{fill:#222;}.cls-2{fill:none;}</style></defs><g id="Layer_2" data-name="Layer 2"><g id="Layer_13" data-name="Layer 13"><path class="cls-1" d="M21.48,2.43a.7.7,0,0,0-.6-.17l-12,2A.75.75,0,0,0,8.25,5V16.25H5a2.75,2.75,0,0,0,0,5.5H7A2.75,2.75,0,0,0,9.75,19V5.64l10.5-1.75V14.25H17a2.75,2.75,0,0,0,0,5.5h2A2.75,2.75,0,0,0,21.75,17V3A.74.74,0,0,0,21.48,2.43ZM8.25,19A1.25,1.25,0,0,1,7,20.25H5a1.25,1.25,0,0,1,0-2.5H8.25Zm12-2A1.25,1.25,0,0,1,19,18.25H17a1.25,1.25,0,0,1,0-2.5h3.25Z"/><rect class="cls-2" width="24" height="24"/></g></g></svg>