<svg xmlns="http://www.w3.org/2000/svg" viewBox="0 0 24 24"><defs><style>.cls-1{fill:#222;}.cls-2{fill:none;}</style></defs><g id="Layer_2" data-name="Layer 2"><g id="Layer_13" data-name="Layer 13"><path class="cls-1" d="M7.91,6a.75.75,0,0,1,.75-.75h13a.75.75,0,0,1,0,1.5h-13A.76.76,0,0,1,7.91,6Zm13.75,5.25h-13a.75.75,0,0,0,0,1.5h13a.75.75,0,0,0,0-1.5Zm0,6h-13a.75.75,0,0,0,0,1.5h13a.75.75,0,0,0,0-1.5ZM3.92,12.68l.5-.46A1.82,1.82,0,0,0,5,11a1.26,1.26,0,0,0-.45-1,1.91,1.91,0,0,0-1.22-.37A1.85,1.85,0,0,0,2.1,10a1.4,1.4,0,0,0-.49,1.1h.92a.78.78,0,0,1,.21-.56.86.86,0,0,1,.65-.23.77.77,0,0,1,.54.18.65.65,0,0,1,.19.47c0,.27-.22.6-.64,1L1.72,13.65v.63H5.23v-.75H2.89Zm.34,5.23a1.36,1.36,0,0,0,.59-.41.92.92,0,0,0,.2-.59,1.14,1.14,0,0,0-.45-1,2,2,0,0,0-1.26-.36A2,2,0,0,0,2.13,16a1.11,1.11,0,0,0-.47.94h.92a.46.46,0,0,1,.21-.4,1,1,0,0,1,.56-.15.87.87,0,0,1,.59.17.56.56,0,0,1,.19.44.57.57,0,0,1-.21.46,1,1,0,0,1-.65.18H2.78v.68H3.3c.61,0,.91.23.91.67a.6.6,0,0,1-.21.48,1,1,0,0,1-.63.17,1,1,0,0,1-.62-.17A.53.53,0,0,1,2.52,19H1.59a1.15,1.15,0,0,0,.49,1,2,2,0,0,0,1.26.37A2.14,2.14,0,0,0,4.63,20a1.19,1.19,0,0,0,.5-1A1,1,0,0,0,4.26,17.91Zm-1-9.63h.92V3.66H4l-2.08.68v.75l1.27-.33Z"/><rect class="cls-2" width="24" height="24"/></g></g></svg>