<svg xmlns="http://www.w3.org/2000/svg" width="52.496" height="41.268" viewBox="0 0 52.496 41.268"><g transform="translate(-689.811 -5610.551)"><path d="M2,10.211V41.7a1.154,1.154,0,0,0,1.087,1.211H50.909A1.154,1.154,0,0,0,52,41.7V23.189c0-4.014-2.92-7.268-6.521-7.268H34.606v-5.71A1.154,1.154,0,0,0,33.519,9H3.087A1.154,1.154,0,0,0,2,10.211Z" transform="translate(689.061 5602.801)" fill="none" stroke="#000" stroke-width="2.5"/><circle cx="4.342" cy="4.342" r="4.342" transform="translate(701.47 5641.886)" fill="#fff" stroke="#000" stroke-width="2.5"/><circle cx="4.342" cy="4.342" r="4.342" transform="translate(729.053 5641.886)" fill="#fff" stroke="#000" stroke-width="2.5"/><path d="M32,15V41.982" transform="translate(691.689 5603.734)" fill="none" stroke="#000" stroke-width="2.5"/></g></svg>