<svg xmlns="http://www.w3.org/2000/svg" viewBox="0 0 24 24"><defs><style>.cls-1{fill:#222;}.cls-2{fill:none;}</style></defs><g id="Layer_2" data-name="Layer 2"><g id="Layer_13" data-name="Layer 13"><path class="cls-1" d="M21.75,14.7a9.86,9.86,0,0,1-9.67,8.05,9.11,9.11,0,0,1-1.79-.17A9.83,9.83,0,1,1,16.34,4.06l-.62-1.82a.74.74,0,0,1,.46-1,.77.77,0,0,1,1,.47L18.6,6,14.33,7.49a1,1,0,0,1-.24,0,.75.75,0,0,1-.25-1.46l1.88-.65a7.83,7.83,0,0,0-2.13-.7,8.33,8.33,0,1,0,6.68,9.71.75.75,0,0,1,1.48.27ZM10.53,8.25A.76.76,0,0,0,9.78,9v6.75h4.69a.75.75,0,0,0,0-1.5H11.28V9A.76.76,0,0,0,10.53,8.25Z"/><rect class="cls-2" width="24" height="24"/></g></g></svg>