<svg xmlns="http://www.w3.org/2000/svg" viewBox="0 0 24 24"><defs><style>.cls-1{fill:#222;}.cls-2{fill:none;}</style></defs><g id="Layer_2" data-name="Layer 2"><g id="Layer_13" data-name="Layer 13"><path class="cls-1" d="M20.33,4.13H3.67a2,2,0,0,0-2,2V17.83a2.05,2.05,0,0,0,2,2.05H20.33a2.07,2.07,0,0,0,2.05-2.05V6.17A2.05,2.05,0,0,0,20.33,4.13Zm.46,2V17.83a.45.45,0,0,1-.46.46H3.67a.45.45,0,0,1-.46-.46V6.17a.45.45,0,0,1,.46-.46H20.33A.45.45,0,0,1,20.79,6.17Zm-1.71.46H15.75a.79.79,0,0,0-.56.23.77.77,0,0,0-.23.56v4.16a.79.79,0,0,0,.23.56.8.8,0,0,0,.56.24h3.33a.82.82,0,0,0,.8-.8V7.42a.8.8,0,0,0-.24-.56A.77.77,0,0,0,19.08,6.63Zm-.79,1.58v2.58H16.54V8.21Zm-5.91,8.38a.8.8,0,0,1-.79.79H4.92a.81.81,0,0,1-.8-.8.8.8,0,0,1,.8-.79h6.67A.8.8,0,0,1,12.38,16.59ZM4.92,14.88H8.25a.8.8,0,0,0,.79-.8.79.79,0,0,0-.79-.79H4.92a.87.87,0,0,0-.56.23.84.84,0,0,0-.24.56A.81.81,0,0,0,4.92,14.88Z"/><rect class="cls-2" width="24" height="24"/></g></g></svg>