<svg xmlns="http://www.w3.org/2000/svg" width="46" height="35" viewBox="0 0 46 35">
  <path id="Path_3075" data-name="Path 3075" d="M1202.4,666.027h-38.589a3.556,3.556,0,0,0-3.667,3.426V697.6a3.558,3.558,0,0,0,3.667,3.428H1202.4a3.632,3.632,0,0,0,3.744-3.5v-28A3.632,3.632,0,0,0,1202.4,666.027Zm-38.512,32a.521.521,0,0,1-.535-.5v-28a.519.519,0,0,1,.535-.5h24.07v29Zm39.046-.5a.519.519,0,0,1-.535.5h-11.233v-29H1202.4a.517.517,0,0,1,.535.5Zm-1.07-24a1.556,1.556,0,0,1-1.6,1.5h-6.419a1.5,1.5,0,1,1,0-3h6.419A1.555,1.555,0,0,1,1201.862,673.527Zm0,6a1.556,1.556,0,0,1-1.6,1.5h-6.419a1.5,1.5,0,1,1,0-3h6.419A1.555,1.555,0,0,1,1201.862,679.527Zm0,6a1.556,1.556,0,0,1-1.6,1.5h-6.419a1.5,1.5,0,1,1,0-3h6.419A1.555,1.555,0,0,1,1201.862,685.527Z" transform="translate(-1160.141 -666.027)" fill="#4d4d4d"/>
</svg>
