<svg xmlns="http://www.w3.org/2000/svg" width="20" height="26.121" viewBox="0 0 20 26.121">
  <g id="Group_3428" data-name="Group 3428" transform="translate(-21 -410)">
    <rect id="Rectangle_17" data-name="Rectangle 17" width="20" height="20" transform="translate(21 410)" fill="none"/>
    <rect id="Rectangle_16" data-name="Rectangle 16" width="20" height="20" transform="translate(21 410)" fill="none"/>
    <rect id="Rectangle_15" data-name="Rectangle 15" width="20" height="20" transform="translate(21 410)" fill="none"/>
    <path id="_11" data-name="11" d="M18.926,4C14.034,4,11,6.946,11,11.634c0,5.938,5.027,13.393,7.382,16.3a.219.219,0,0,0,.072.05.221.221,0,0,0,.172,0,.218.218,0,0,0,.072-.05c2.989-3.572,7.926-10.8,7.926-16.34C26.671,6.009,22.5,4,18.926,4Zm.5,10.581a3.087,3.087,0,0,1-1.9-.234,3.028,3.028,0,0,1-1.382-1.3,2.971,2.971,0,0,1,.534-3.537,3.08,3.08,0,0,1,3.588-.526,3.022,3.022,0,0,1,1.319,1.362,2.965,2.965,0,0,1,.237,1.868,3.05,3.05,0,0,1-.843,1.535,3.121,3.121,0,0,1-1.557.831Z" transform="translate(12.5 407.5)" fill="none" stroke="#666" stroke-miterlimit="10" stroke-width="1.25"/>
  </g>
</svg>
