<svg xmlns="http://www.w3.org/2000/svg" width="47.999" height="48" viewBox="0 0 47.999 48"><path d="M24,0a24,24,0,0,0-8.746,46.356,23.05,23.05,0,0,1,.083-6.892c.436-1.873,2.814-11.929,2.814-11.929a8.663,8.663,0,0,1-.718-3.563c0-3.337,1.934-5.828,4.343-5.828,2.047,0,3.037,1.537,3.037,3.381,0,2.059-1.311,5.138-1.988,7.991a3.485,3.485,0,0,0,3.554,4.337c4.266,0,7.545-4.5,7.545-10.99,0-5.746-4.129-9.764-10.025-9.764A10.388,10.388,0,0,0,13.061,23.513a9.334,9.334,0,0,0,1.786,5.477.718.718,0,0,1,.166.688c-.182.758-.587,2.388-.667,2.722-.1.439-.348.533-.8.321-3-1.4-4.871-5.777-4.871-9.3,0-7.571,5.5-14.523,15.857-14.523,8.325,0,14.8,5.932,14.8,13.861,0,8.271-5.215,14.928-12.454,14.928-2.432,0-4.718-1.263-5.5-2.756,0,0-1.2,4.582-1.5,5.705a26.825,26.825,0,0,1-2.983,6.291A24,24,0,1,0,24,0Z" fill="#666"/></svg>