<svg xmlns="http://www.w3.org/2000/svg" viewBox="0 0 24 24"><defs><style>.cls-1{fill:#222;}.cls-2{fill:none;}</style></defs><g id="Layer_2" data-name="Layer 2"><g id="Layer_13" data-name="Layer 13"><path id="icon46" class="cls-1" d="M5.25,21.75a2.45,2.45,0,0,1-2.5-2.34V4.62A2.47,2.47,0,0,1,5.33,2.25a2.59,2.59,0,0,1,1.16.33L20,10a2.4,2.4,0,0,1,.91.85,2.26,2.26,0,0,1,0,2.4,2.4,2.4,0,0,1-.91.85L6.48,21.43A2.48,2.48,0,0,1,5.25,21.75Zm0-18a1,1,0,0,0-1,.9V19.38a.82.82,0,0,0,.13.4,1,1,0,0,0,1.37.34l13.54-7.39a.87.87,0,0,0,.34-.32.76.76,0,0,0,0-.82,1,1,0,0,0-.34-.32L5.76,3.89a1.1,1.1,0,0,0-.49-.14Z"/><rect id="Rectangle_1608" data-name="Rectangle 1608" class="cls-2" width="24" height="24"/></g></g></svg>