<svg xmlns="http://www.w3.org/2000/svg" width="19" height="19" viewBox="0 0 19 19">
  <path id="all-post-4squares" d="M.554,10.52H7.567a.6.6,0,0,1,.544.648v6.826a.6.6,0,0,1-.544.648H.554a.605.605,0,0,1-.544-.648V11.168A.605.605,0,0,1,.554,10.52Zm9.879-9.7h7.013a.6.6,0,0,1,.544.648V8.289a.6.6,0,0,1-.544.648H10.433a.6.6,0,0,1-.544-.648V1.463a.6.6,0,0,1,.544-.648ZM.544.815H7.558a.6.6,0,0,1,.544.648V8.289a.6.6,0,0,1-.544.648H.544A.6.6,0,0,1,0,8.289V1.463A.6.6,0,0,1,.544.815Zm9.9,9.878h7.013a.605.605,0,0,1,.544.648v6.826a.605.605,0,0,1-.544.648H10.442a.6.6,0,0,1-.544-.648V11.341a.6.6,0,0,1,.544-.648Z" transform="translate(0.5 -0.315)" fill="none" stroke="#222" stroke-width="1" fill-rule="evenodd"/>
</svg>
