<svg xmlns="http://www.w3.org/2000/svg" viewBox="0 0 24 24"><defs><style>.cls-1{fill:#222;}.cls-2{fill:none;}</style></defs><g id="Layer_2" data-name="Layer 2"><g id="Heart"><path class="cls-1" d="M20.33,3.63H3.67a2.09,2.09,0,0,0-2,2.15V18.22a2.11,2.11,0,0,0,2,2.16H20.33a2.12,2.12,0,0,0,2.05-2.16V5.78A2.11,2.11,0,0,0,20.33,3.63Zm-8.09,7.91a.49.49,0,0,1-.41.06L4.51,5.26h15Zm8.55,6.68a.49.49,0,0,1-.46.52H3.67a.49.49,0,0,1-.46-.52V6.27l7.67,6.64a1.93,1.93,0,0,0,2.17,0l7.74-6.68Z"/><rect class="cls-2" width="24" height="24"/></g></g></svg>