<svg xmlns="http://www.w3.org/2000/svg" viewBox="0 0 24 24"><defs><style>.cls-1{fill:#222;}.cls-2{fill:none;}</style></defs><g id="Layer_2" data-name="Layer 2"><g id="Heart"><path class="cls-1" d="M22.58,5.41a.75.75,0,0,0-.67-.26,4.35,4.35,0,0,0,.25-.63.74.74,0,0,0-.24-.81.76.76,0,0,0-.85-.07,7.37,7.37,0,0,1-2,.81,4.91,4.91,0,0,0-6.54.1A4.74,4.74,0,0,0,11,8v.1A10.94,10.94,0,0,1,4,4.26.76.76,0,0,0,3.33,4a.77.77,0,0,0-.59.36,4.74,4.74,0,0,0-.13,4.57A.75.75,0,0,0,2.43,9a.78.78,0,0,0-.37.67,4.76,4.76,0,0,0,1.61,3.56.77.77,0,0,0-.14.7,4.84,4.84,0,0,0,2.58,2.88A7.62,7.62,0,0,1,3,17.48a8.85,8.85,0,0,1-.89-.05A.74.74,0,0,0,1.6,18.8a12.22,12.22,0,0,0,6.65,1.95A12.24,12.24,0,0,0,20.71,8.51V8.36a9.08,9.08,0,0,0,1.91-2A.75.75,0,0,0,22.58,5.41Zm-3.07,2A.73.73,0,0,0,19.2,8c0,.16,0,.32,0,.49A10.73,10.73,0,0,1,8.28,19.25h0A10.89,10.89,0,0,1,5,18.75,9.13,9.13,0,0,0,8.54,17.1a.75.75,0,0,0,.25-.83.74.74,0,0,0-.7-.51A3.37,3.37,0,0,1,5.52,14.5a5.32,5.32,0,0,0,.78-.14.75.75,0,0,0,0-1.46,3.36,3.36,0,0,1-2.49-2.13,5.27,5.27,0,0,0,.88.1.74.74,0,0,0,.74-.52.76.76,0,0,0-.3-.86A3.26,3.26,0,0,1,3.65,6.13a12.49,12.49,0,0,0,8.16,3.58.76.76,0,0,0,.77-.94A3,3,0,0,1,12.49,8a3.29,3.29,0,0,1,1-2.39,3.41,3.41,0,0,1,4.76.14A.76.76,0,0,0,19,6l.14,0a.77.77,0,0,0-.2.79.74.74,0,0,0,.72.51Z"/><rect class="cls-2" width="24" height="24"/></g></g></svg>