<svg xmlns="http://www.w3.org/2000/svg" viewBox="0 0 24 24"><defs><style>.cls-1{fill:#222;}.cls-2{fill:none;}</style></defs><g id="Layer_2" data-name="Layer 2"><g id="Heart"><path class="cls-1" d="M12,2.25a9.58,9.58,0,0,0-9.75,9.36,9.14,9.14,0,0,0,3,6.78L4.62,20.8a.75.75,0,0,0,.25.77.74.74,0,0,0,.8.11l2.84-1.34A9.48,9.48,0,0,0,12,21a9.59,9.59,0,0,0,9.77-9.38A9.58,9.58,0,0,0,12,2.25Zm0,17.22h0a8.53,8.53,0,0,1-3.23-.64.78.78,0,0,0-.6,0l-1.66.78.35-1.3a.76.76,0,0,0-.25-.79,7.63,7.63,0,0,1-2.85-5.91,8.08,8.08,0,0,1,8.06-7.88H12a8.07,8.07,0,0,1,8.23,7.84A8.09,8.09,0,0,1,12,19.47Zm6.4-9.68-4.7,4.7a.74.74,0,0,1-1,0l-2.35-2-3.85,2.1a.76.76,0,0,1-1-.21.76.76,0,0,1,.07-1l4.7-4.7a.74.74,0,0,1,1,0l2.35,2,3.85-2.1a.75.75,0,0,1,.89,1.19Z"/><rect class="cls-2" width="24" height="24"/></g></g></svg>