<svg xmlns="http://www.w3.org/2000/svg" viewBox="0 0 24 24"><defs><style>.cls-1{fill:#222;}.cls-2{fill:none;}</style></defs><g id="Layer_2" data-name="Layer 2"><g id="Layer_13" data-name="Layer 13"><path class="cls-1" d="M19.2,8.55H18.15V3a.76.76,0,0,0-.75-.75H6.6A.76.76,0,0,0,5.85,3V8.55h-1A2.55,2.55,0,0,0,2.25,11.1v4.5A2.55,2.55,0,0,0,4.8,18.15h1V21a.76.76,0,0,0,.75.75H17.4a.76.76,0,0,0,.75-.75V18.15H19.2a2.55,2.55,0,0,0,2.55-2.55V11.1A2.55,2.55,0,0,0,19.2,8.55ZM7.35,3.75h9.3v4.8H7.35Zm9.3,16.5H7.35v-5.7h9.3Zm3.6-4.65a1,1,0,0,1-1.05,1H18.15V13.8a.76.76,0,0,0-.75-.75H6.6a.76.76,0,0,0-.75.75v2.85h-1a1,1,0,0,1-1-1V11.1a1,1,0,0,1,1-1H19.2a1,1,0,0,1,1.05,1Z"/><rect class="cls-2" width="24" height="24"/></g></g></svg>