<svg xmlns="http://www.w3.org/2000/svg" viewBox="0 0 12.85 20.1"><defs><style>.cls-1{fill:#fff;}</style></defs><g id="Layer_2" data-name="Layer 2"><g id="Layer_13" data-name="Layer 13"><path class="cls-1" d="M12.14,4.77,8.08.71,8,.63A2.33,2.33,0,0,0,6.37,0a2.3,2.3,0,0,0-1.6.71l-4,4.06A2.1,2.1,0,0,0,0,6.43V17.79A2.38,2.38,0,0,0,2.36,20.1h8.12a2.44,2.44,0,0,0,1.66-.71,2.14,2.14,0,0,0,.71-1.66V6.43A2.36,2.36,0,0,0,12.14,4.77ZM7.61,5.87l-.06.06a1.63,1.63,0,0,1-1.16.45,1.59,1.59,0,0,1-1.14-.51h0l-.06-.06A1.63,1.63,0,0,1,5.25,3.5l.06-.06A1.64,1.64,0,0,1,6.43,3h0a1.61,1.61,0,0,1,1.14.51.12.12,0,0,1,0,.05A1.63,1.63,0,0,1,7.61,5.87ZM12.8,17.73Z"/></g></g></svg>