<svg xmlns="http://www.w3.org/2000/svg" viewBox="0 0 24 24"><defs><style>.cls-1{fill:#222;}.cls-2{fill:none;}</style></defs><g id="Layer_2" data-name="Layer 2"><g id="Heart"><path class="cls-1" d="M8.5,14.5a1,1,0,0,1,1-1h5a1,1,0,0,1,0,2h-5A1,1,0,0,1,8.5,14.5ZM23,2.5v5a1.47,1.47,0,0,1-1,1.39v11A3.12,3.12,0,0,1,18.88,23H5.12A3.12,3.12,0,0,1,2,19.88v-11A1.47,1.47,0,0,1,1,7.5v-5A1.5,1.5,0,0,1,2.5,1h19A1.5,1.5,0,0,1,23,2.5ZM20,9H4V19.88A1.12,1.12,0,0,0,5.12,21H18.88A1.12,1.12,0,0,0,20,19.88Zm1-6H3V7H21Z"/><rect class="cls-2" width="24" height="24"/></g></g></svg>