<svg xmlns="http://www.w3.org/2000/svg" width="12.421" height="18.996" viewBox="0 0 12.421 18.996">
  <path id="tag-multiple-2" d="M-12308.179,480.468a1.5,1.5,0,0,0,2.178,0,1.521,1.521,0,0,0,0-2.191,1.5,1.5,0,0,0-2.178,0,1.518,1.518,0,0,0,0,2.191h0m6.795,10.641a1.885,1.885,0,0,1-.618,1.46,2.186,2.186,0,0,1-1.456.626h-7.267a2.08,2.08,0,0,1-2.08-2.034h0V480.938a1.9,1.9,0,0,1,.624-1.461l3.636-3.651a2,2,0,0,1,2.906,0h0l3.637,3.651a2.1,2.1,0,0,1,.618,1.461v10.171" transform="translate(12313.305 -474.7)" fill="none" stroke="#222" stroke-linecap="round" stroke-linejoin="round" stroke-miterlimit="10" stroke-width="1"/>
</svg>
