<svg xmlns="http://www.w3.org/2000/svg" viewBox="0 0 24 24"><defs><style>.cls-1{fill:#222;}.cls-2{fill:none;}</style></defs><g id="Layer_2" data-name="Layer 2"><g id="Layer_13" data-name="Layer 13"><path class="cls-1" d="M8.08,10.56a5.38,5.38,0,0,0-1.55-.22,4.87,4.87,0,0,0-.54,0c.47-1.18,1.26-2.54,2.44-2.72a1.22,1.22,0,0,0,1-.89l.45-1.58a1.28,1.28,0,0,0-.12-.94A1.23,1.23,0,0,0,9,3.65l-.16,0c-2.93-.4-6,2.46-7.15,6.69-.64,2.29-.81,5.77.82,8a5.14,5.14,0,0,0,4.2,2.1,5,5,0,0,0,5-5A5,5,0,0,0,8.08,10.56Zm1.14,7.33a3.52,3.52,0,0,1-2.48,1,3.63,3.63,0,0,1-3-1.49c-1.23-1.68-1.18-4.59-.58-6.72C4.07,7.45,6.23,5.08,8.3,5.08h0L8,6.19c-2.32.47-3.44,3.35-3.91,5a.79.79,0,0,0,.23.77.76.76,0,0,0,.79.12,3.32,3.32,0,0,1,1.39-.28A4,4,0,0,1,7.67,12h0a3.53,3.53,0,0,1,1.54,5.89Zm12.88-5h0a5,5,0,0,0-3-2.37,5.43,5.43,0,0,0-1.55-.22,3.33,3.33,0,0,0-.55,0c.47-1.18,1.26-2.54,2.44-2.72a1.22,1.22,0,0,0,1-.89l.45-1.58A1.23,1.23,0,0,0,20,3.65l-.17,0c-2.93-.4-6,2.46-7.15,6.69-.64,2.29-.81,5.77.82,8a5.15,5.15,0,0,0,4.2,2.1,5,5,0,0,0,5-5A5.05,5.05,0,0,0,22.1,12.93Zm-1.88,5a3.52,3.52,0,0,1-2.48,1,3.65,3.65,0,0,1-3-1.48c-1.23-1.69-1.18-4.6-.58-6.73.91-3.26,3.08-5.63,5.14-5.63h0L19,6.19c-2.32.47-3.44,3.35-3.91,5a.77.77,0,0,0,.24.77.74.74,0,0,0,.78.12,3.29,3.29,0,0,1,1.39-.28,4.09,4.09,0,0,1,1.15.16,3.52,3.52,0,0,1,2.11,1.67h0a3.46,3.46,0,0,1,.46,1.72A3.53,3.53,0,0,1,20.22,17.89Z"/><rect class="cls-2" width="24" height="24"/></g></g></svg>