<svg xmlns="http://www.w3.org/2000/svg" width="19.2" height="19.201" viewBox="0 0 19.2 19.201">
  <path id="Path_847" data-name="Path 847" d="M124.659,1.069a2.761,2.761,0,0,0-3.9,0L109.809,12.014a.613.613,0,0,0-.157.27l-1.439,5.2a.613.613,0,0,0,.755.755l5.2-1.439a.613.613,0,0,0,.27-.157L124.717,6.356l.017-.017.645-.645a2.763,2.763,0,0,0,0-3.9Zm.074,5.287-1.575-1.582L121.864,3.48l-.721-.721-1-1.03" transform="translate(-107.683 0.437)" fill="none" stroke="#4d4d4d" stroke-linejoin="round" stroke-width="1"/>
</svg>
