<svg xmlns="http://www.w3.org/2000/svg" width="18.805" height="21.368" viewBox="0 0 18.805 21.368">
  <g id="Group_1818" data-name="Group 1818" transform="translate(-981.938 -566.311)">
    <path id="Path_384" data-name="Path 384" d="M800.8,755.6h-15.08a.7.7,0,0,0-.493.23.765.765,0,0,0-.23.493v.066l1.248,13.6a.871.871,0,0,0,.394.657h.033c.033.033.1.033.164.066.066,0,.1.033.164.033h12.485a.686.686,0,0,0,.657-.427.121.121,0,0,0,.033-.1v-.066c0-.033.033-.066.033-.1v-.066l1.281-13.635a.591.591,0,0,0-.23-.493A.6.6,0,0,0,800.8,755.6Zm.263.756-1.281,13.7v.033a.333.333,0,0,1-.3.2H787l-.131-.033-.033-.033a.436.436,0,0,1-.2-.329l-1.248-13.6v-.033a.28.28,0,0,1,.1-.164.535.535,0,0,1,.2-.1h15.08a.375.375,0,0,1,.2.1.723.723,0,0,1,.1.164v.1Z" transform="translate(198.16 -183.467)" fill="none" stroke="#4d4d4d" stroke-width="0.8"/>
    <rect id="Rectangle_171" data-name="Rectangle 171" width="0.526" height="9.101" transform="translate(987.99 575.123)" fill="none" stroke="#4d4d4d" stroke-width="0.8"/>
    <rect id="Rectangle_172" data-name="Rectangle 172" width="0.526" height="9.101" transform="translate(991.309 575.123)" fill="none" stroke="#4d4d4d" stroke-width="0.8"/>
    <rect id="Rectangle_173" data-name="Rectangle 173" width="0.526" height="9.101" transform="translate(994.627 575.123)" fill="none" stroke="#4d4d4d" stroke-width="0.8"/>
    <path id="Path_385" data-name="Path 385" d="M800.5,741.236a.544.544,0,0,0-.164-.394.528.528,0,0,0-.361-.164h-5.947v-.756a.823.823,0,0,0-.756-.821h-3.483a.793.793,0,0,0-.558.23.775.775,0,0,0-.23.526h0v.788h-5.947a.544.544,0,0,0-.394.164.527.527,0,0,0-.164.361v1.906a.212.212,0,0,0,.2.2h17.61a.212.212,0,0,0,.2-.2Zm-.394,1.643H782.894v-1.807h6.341a.189.189,0,0,0,.2-.2v-1.018a.491.491,0,0,1,.1-.23.66.66,0,0,1,.263-.131h3.45a.341.341,0,0,1,.263.131.373.373,0,0,1,.1.263v.953a.189.189,0,0,0,.2.2h6.242v1.84Z" transform="translate(199.839 -172.389)" fill="none" stroke="#4d4d4d" stroke-width="0.8"/>
  </g>
</svg>
