<svg xmlns="http://www.w3.org/2000/svg" width="39.729" height="52.493" viewBox="0 0 39.729 52.493"><g transform="translate(-697.75 -5269.75)"><path d="M8,50.352V1.641A.641.641,0,0,1,8.642,1H31.989a.642.642,0,0,1,.454.188l12.6,12.57a.641.641,0,0,1,.188.453V50.352a.641.641,0,0,1-.642.641H8.642A.641.641,0,0,1,8,50.352Z" transform="translate(691 5270)" fill="none" stroke="#000" stroke-linecap="round" stroke-linejoin="round" stroke-width="2.5"/><path d="M30.295,1.6V13.139a1.282,1.282,0,0,0,1.282,1.282H43.755" transform="translate(692.42 5270.039)" fill="none" stroke="#000" stroke-width="2.5"/><path d="M15.026,19.679a1.6,1.6,0,0,0,0,3.2Zm18.16,3.2a1.6,1.6,0,0,0,0-3.2Zm-18.16,0h18.16v-3.2H15.026Z" transform="translate(691.345 5271.189)"/><path d="M15.026,25.705a1.6,1.6,0,0,0,0,3.2Zm18.16,3.2a1.6,1.6,0,1,0,0-3.2Zm-18.16,0h18.16v-3.2H15.026Z" transform="translate(691.345 5271.573)"/><path d="M15.026,31.731a1.6,1.6,0,1,0,0,3.2Zm18.16,3.2a1.6,1.6,0,1,0,0-3.2Zm-18.16,0h18.16v-3.2H15.026Z" transform="translate(691.345 5271.957)"/><path d="M15.026,37.756a1.6,1.6,0,0,0,0,3.2Zm11.751,3.2a1.6,1.6,0,0,0,0-3.2Zm-11.751,0H26.777v-3.2H15.026Z" transform="translate(691.345 5272.341)"/></g></svg>