<svg xmlns="http://www.w3.org/2000/svg" viewBox="0 0 24 24"><defs><style>.cls-1{fill:#222;}.cls-2{fill:none;}</style></defs><g id="Layer_2" data-name="Layer 2"><g id="Layer_13" data-name="Layer 13"><path class="cls-1" d="M16.29,22.75H3A1.72,1.72,0,0,1,1.25,21V3A1.72,1.72,0,0,1,3,1.25H16.29A1.73,1.73,0,0,1,18,2.78,2.7,2.7,0,0,1,21.47,3l.5.48a2.56,2.56,0,0,1,0,3.68l-4,3.93H18V21A1.72,1.72,0,0,1,16.29,22.75ZM3,2.75A.23.23,0,0,0,2.75,3V21a.23.23,0,0,0,.23.23H16.29a.22.22,0,0,0,.22-.23V12.45l-2.07,2a1.13,1.13,0,0,1-.51.29l-3.57,1a1.3,1.3,0,0,1-.62,0A1.16,1.16,0,0,1,9,15.16a1.13,1.13,0,0,1-.1-.88l1-3.47a1.28,1.28,0,0,1,.31-.51l6.29-6.1V3a.22.22,0,0,0-.22-.23Zm8.35,8.56-.8,2.8,2.93-.79,6.46-6.26-2-2h-.14ZM18.91,4,21,6a1,1,0,0,0-.07-1.45l-.49-.48h0A1.18,1.18,0,0,0,18.91,4Z"/><rect class="cls-2" width="24" height="24"/></g></g></svg>