<svg xmlns="http://www.w3.org/2000/svg" viewBox="0 0 24 24"><defs><style>.cls-1{fill:#222;}.cls-2{fill:none;}</style></defs><g id="Layer_2" data-name="Layer 2"><g id="Layer_13" data-name="Layer 13"><path class="cls-1" d="M2.27,11V9A4.76,4.76,0,0,1,7,4.26h12L16.42,1.62A.78.78,0,1,1,17.52.51l4,4h0a.74.74,0,0,1,.17.25.78.78,0,0,1,0,.6.74.74,0,0,1-.17.25l-4,4a.78.78,0,1,1-1.1-1.11l2.64-2.64H7A3.2,3.2,0,0,0,3.83,9v2a.78.78,0,0,1-1.56,0ZM21,12.21a.78.78,0,0,0-.78.78v2a3.2,3.2,0,0,1-3.2,3.2h-12l2.64-2.64a.78.78,0,0,0-1.1-1.11l-4,4h0a.74.74,0,0,0-.17.25.78.78,0,0,0,0,.6.74.74,0,0,0,.17.25l4,4a.77.77,0,0,0,1.1,0,.77.77,0,0,0,0-1.1L4.94,19.74H17A4.76,4.76,0,0,0,21.73,15V13A.78.78,0,0,0,21,12.21Z"/><rect id="Rectangle_1608" data-name="Rectangle 1608" class="cls-2" width="24" height="24"/></g></g></svg>