<svg xmlns="http://www.w3.org/2000/svg" viewBox="0 0 24 24"><defs><style>.cls-1{fill:#222;}.cls-2{fill:none;}</style></defs><g id="Layer_2" data-name="Layer 2"><g id="Heart"><path class="cls-1" d="M21.26,3a1.16,1.16,0,0,0-.45-.78A1.19,1.19,0,0,0,20,2H3.94a1.11,1.11,0,0,0-.82.3,1.15,1.15,0,0,0-.39.84V20.83a1.14,1.14,0,0,0,.74,1,1.18,1.18,0,0,0,1.23-.15l7.12-5.46,7.51,5.5a1.27,1.27,0,0,0,.73.24,1,1,0,0,0,.4-.08,1.14,1.14,0,0,0,.81-1.07V3Zm-8.7,12-.14-.08a1.57,1.57,0,0,0-.6-.12,1.53,1.53,0,0,0-.6.12l-7,5.36V3.47H19.8V20.3Z"/><rect class="cls-2" width="24" height="24"/></g></g></svg>