<svg xmlns="http://www.w3.org/2000/svg" viewBox="0 0 24 24"><defs><style>.cls-1{fill:#222;}.cls-2{fill:none;}</style></defs><g id="Layer_2" data-name="Layer 2"><g id="Layer_13" data-name="Layer 13"><path class="cls-1" d="M19,2.25H5A2.75,2.75,0,0,0,2.25,5V21a.74.74,0,0,0,.46.69.74.74,0,0,0,.82-.16l3.78-3.78H19A2.75,2.75,0,0,0,21.75,15V5A2.75,2.75,0,0,0,19,2.25ZM20.25,15A1.25,1.25,0,0,1,19,16.25H7a.75.75,0,0,0-.53.22L3.75,19.19V5A1.25,1.25,0,0,1,5,3.75H19A1.25,1.25,0,0,1,20.25,5Zm-3.5-7a.76.76,0,0,1-.75.75H8a.75.75,0,0,1,0-1.5h8A.76.76,0,0,1,16.75,8Zm0,4a.76.76,0,0,1-.75.75H8a.75.75,0,0,1,0-1.5h8A.76.76,0,0,1,16.75,12Z"/><rect class="cls-2" width="24" height="24"/></g></g></svg>