<svg xmlns="http://www.w3.org/2000/svg" viewBox="0 0 24 24"><defs><style>.cls-1{fill:#fe2222;}.cls-2{fill:none;}</style></defs><g id="Layer_2" data-name="Layer 2"><g id="Layer_13" data-name="Layer 13"><path class="cls-1" d="M21.56,6.51a.69.69,0,0,1,0,.67L13.32,23.63a.7.7,0,0,1-.29.3.73.73,0,0,1-.41.06.67.67,0,0,1-.57-.56l-1.47-8.91-.15-.94L10,13.27,2.61,7.92a.68.68,0,0,1-.25-.75A.7.7,0,0,1,3,6.69l18-.5A.68.68,0,0,1,21.56,6.51ZM18,8l-8,5.29.44.31.15.94,8.18-5.41A.68.68,0,0,0,18,8Z"/><rect class="cls-2" width="24" height="23.96"/></g></g></svg>