<svg xmlns="http://www.w3.org/2000/svg" viewBox="0 0 24 24"><defs><style>.cls-1{fill:#222;}.cls-2{fill:none;}</style></defs><g id="Layer_2" data-name="Layer 2"><g id="Layer_13" data-name="Layer 13"><path class="cls-1" d="M22,11.25H18.82a2.23,2.23,0,0,0-4.22,0H2a.75.75,0,0,0,0,1.5H14.6a2.23,2.23,0,0,0,4.22,0H22a.75.75,0,0,0,0-1.5Zm-5.29,1.5a.75.75,0,1,1,.75-.75A.76.76,0,0,1,16.71,12.75ZM22,18.25H9.4a2.23,2.23,0,0,0-4.22,0H2a.75.75,0,0,0,0,1.5H5.18a2.23,2.23,0,0,0,4.22,0H22a.75.75,0,0,0,0-1.5ZM7.29,19.75A.75.75,0,1,1,8,19,.76.76,0,0,1,7.29,19.75ZM2,5.75H5.18a2.23,2.23,0,0,0,4.22,0H22a.75.75,0,0,0,0-1.5H9.4a2.23,2.23,0,0,0-4.22,0H2a.75.75,0,0,0,0,1.5Zm5.29-1.5A.75.75,0,1,1,6.54,5,.76.76,0,0,1,7.29,4.25Z"/><rect class="cls-2" width="24" height="24"/></g></g></svg>