<svg xmlns="http://www.w3.org/2000/svg" viewBox="0 0 24 24"><defs><style>.cls-1{fill:none;}.cls-2{fill:#222;}</style></defs><g id="Layer_2" data-name="Layer 2"><g id="Heart"><rect class="cls-1" width="24" height="24"/><path class="cls-2" d="M18.52,15.24a3.22,3.22,0,0,0-2.67,1.43L8.58,12.89A3.16,3.16,0,0,0,8.71,12a3.2,3.2,0,0,0-.17-1l7.22-3.63a3.21,3.21,0,0,0,2.61,1.35,3.26,3.26,0,1,0-3.23-3.25,4.4,4.4,0,0,0,0,.51L7.78,9.75a3.18,3.18,0,0,0-2.3-1,3.26,3.26,0,0,0,0,6.51A3.18,3.18,0,0,0,7.86,14.2l7.47,3.89a2.85,2.85,0,0,0,0,.4,3.23,3.23,0,1,0,3.23-3.25ZM18.37,3.75a1.76,1.76,0,1,1-1.73,1.76A1.74,1.74,0,0,1,18.37,3.75Zm-12.89,10A1.76,1.76,0,1,1,7.21,12,1.75,1.75,0,0,1,5.48,13.78Zm13,6.47a1.76,1.76,0,1,1,1.73-1.76A1.75,1.75,0,0,1,18.52,20.25Z"/></g></g></svg>