<svg xmlns="http://www.w3.org/2000/svg" viewBox="0 0 24 24"><defs><style>.cls-1{fill:#222;}.cls-2{fill:none;}</style></defs><g id="Layer_2" data-name="Layer 2"><g id="Heart"><path class="cls-1" d="M6.13,21.73a.77.77,0,0,1-.44-.14.75.75,0,0,1-.3-.73l1.05-6.13L2,10.4a.75.75,0,0,1,.41-1.28l6.18-.9,2.76-5.57a.78.78,0,0,1,1.34,0l2.76,5.57,6.18.9A.75.75,0,0,1,22,10.4l-4.46,4.33,1.05,6.13a.75.75,0,0,1-1.09.79L12,18.75l-5.52,2.9A.85.85,0,0,1,6.13,21.73ZM12,17.16a.85.85,0,0,1,.35.08l4.52,2.37-.86-5a.75.75,0,0,1,.22-.67l3.65-3.55-5-.73a.74.74,0,0,1-.57-.41L12,4.67,9.74,9.24a.74.74,0,0,1-.57.41l-5,.73,3.65,3.55A.75.75,0,0,1,8,14.6l-.86,5,4.52-2.37A.85.85,0,0,1,12,17.16Z"/><rect class="cls-2" width="24" height="24"/></g></g></svg>