<svg xmlns="http://www.w3.org/2000/svg" viewBox="0 0 24 24"><defs><style>.cls-1{fill:#222;}.cls-2{fill:none;}</style></defs><g id="Layer_2" data-name="Layer 2"><g id="Layer_13" data-name="Layer 13"><path class="cls-1" d="M21.09,7.26,19.8,3.4a.77.77,0,0,0-.73-.52H4.93a.77.77,0,0,0-.73.52L2.91,7.26a.78.78,0,0,0,0,.22v.66a3.34,3.34,0,0,0,1.28,2.62v8.31a2.06,2.06,0,0,0,2.05,2.06H17.79a2.06,2.06,0,0,0,2.05-2.06V10.76a3.38,3.38,0,0,0,1.29-2.62V7.48A1.43,1.43,0,0,0,21.09,7.26ZM4.71,6.73l.77-2.32h1.9V6.73Zm4.2,0V4.41h2.32V6.73Zm3.86,0V4.41h2.32V6.73Zm3.86,0V4.41h1.89l.77,2.32Zm-3.47,8v4.89H10.84V14.7Zm.77-1.54H10.07a.78.78,0,0,0-.77.77v5.66H6.21a.51.51,0,0,1-.51-.52V11.44a3.26,3.26,0,0,0,2.44-.58,3.37,3.37,0,0,0,3.86,0,3.37,3.37,0,0,0,3.86,0,3.26,3.26,0,0,0,2.44.58v7.63a.51.51,0,0,1-.51.52H14.7V13.93A.78.78,0,0,0,13.93,13.16Zm1.42-3.91-.07.07a1.78,1.78,0,0,1-1.25.6,1.81,1.81,0,0,1-1.31-.46l-.14-.14A.85.85,0,0,0,12,9.07a.77.77,0,0,0-.56.21l0,0a1.81,1.81,0,0,1-2.56.14l-.14-.14a.8.8,0,0,0-1.12,0l0,0A1.75,1.75,0,0,1,6.21,10,1.8,1.8,0,0,1,4.42,8.27H19.58A1.8,1.8,0,0,1,17.79,10a1.75,1.75,0,0,1-1.35-.63.79.79,0,0,0-.53-.26A.77.77,0,0,0,15.35,9.25Z"/><rect id="Rectangle_1608" data-name="Rectangle 1608" class="cls-2" width="24" height="24"/></g></g></svg>