<svg xmlns="http://www.w3.org/2000/svg" width="51.031" height="52.515" viewBox="0 0 51.031 52.515"><g transform="translate(-195.75 -787.75)"><path d="M24.265,0C10.595,0,0,10.318,0,24.25A24.047,24.047,0,0,0,7.621,42.185a2.039,2.039,0,0,1,.654,1.423l.132,4.446a1.948,1.948,0,0,0,2.724,1.77l4.814-2.188a1.884,1.884,0,0,1,1.294-.1,25.671,25.671,0,0,0,7.026.961c13.671,0,24.265-10.315,24.265-24.247S37.936,0,24.265,0Z" transform="translate(197 788.997)" fill="none" stroke="#000" stroke-width="2.5" fill-rule="evenodd"/><g transform="translate(205.471 811.025)"><ellipse cx="3.423" cy="3.553" rx="3.423" ry="3.553"/><ellipse cx="3.423" cy="3.553" rx="3.423" ry="3.553" transform="translate(11.447 0.08)"/><ellipse cx="3.423" cy="3.553" rx="3.423" ry="3.553" transform="translate(22.894 0.08)"/></g></g></svg>