<svg xmlns="http://www.w3.org/2000/svg" viewBox="0 0 19.5 19.54"><defs><style>.cls-1{fill:#fff;}</style></defs><g id="Layer_2" data-name="Layer 2"><g id="Heart"><path class="cls-1" d="M6.48,14.76a2.39,2.39,0,1,0,2.38,2.39A2.39,2.39,0,0,0,6.48,14.76Zm0,3.28a.89.89,0,1,1,.88-.89A.89.89,0,0,1,6.48,18Zm9.82-3.28a2.39,2.39,0,1,0,2.38,2.39A2.39,2.39,0,0,0,16.3,14.76Zm0,3.28a.89.89,0,1,1,.88-.89A.89.89,0,0,1,16.3,18ZM4.71,11.73,3.42,1.91a.49.49,0,0,0-.15-.27l-.16-.08h0l-1,0C.59,1.59,0,1.6,0,.83A.76.76,0,0,1,.22.26C.49,0,.6,0,2.75,0H3A1.92,1.92,0,0,1,4,.33a2.33,2.33,0,0,1,.25.19A1.9,1.9,0,0,1,4.9,1.71l.32,2.42H18.75a.76.76,0,0,1,.58.27.79.79,0,0,1,.16.63l-1.38,6.86a2.38,2.38,0,0,1-2.34,1.92H7.09A2.39,2.39,0,0,1,4.71,11.73Z"/></g></g></svg>