<svg xmlns="http://www.w3.org/2000/svg" viewBox="0 0 24 24"><defs><style>.cls-1{fill:#222;}.cls-2{fill:none;}</style></defs><g id="Layer_2" data-name="Layer 2"><g id="Layer_13" data-name="Layer 13"><path class="cls-1" d="M12.07,4.15a2.44,2.44,0,0,0-1.8.73,2.42,2.42,0,0,0-.09,3.42l.07.08a2.47,2.47,0,0,0,1.69.75H12a2.49,2.49,0,0,0,1.74-.73,2.46,2.46,0,0,0,0-3.5A2.41,2.41,0,0,0,12.07,4.15Zm.57,3.22a.9.9,0,0,1-.66.26.93.93,0,0,1-.65-.29l-.54.51.48-.57a1,1,0,0,1,.1-1.38A.93.93,0,0,1,12,5.65h0a1,1,0,0,1,.7.34A1,1,0,0,1,12.64,7.37Zm6.48,1a3,3,0,0,0-.91-2.15L14.06,2.08a2.91,2.91,0,0,0-2.13-.83,3,3,0,0,0-2.08.91l-4,4a2.84,2.84,0,0,0-.94,2.19V19.76a3.07,3.07,0,0,0,3.06,3h8.14a3.16,3.16,0,0,0,2.1-.89,2.82,2.82,0,0,0,.94-2.19Zm-2,12.4a1.72,1.72,0,0,1-1.1.48H7.94a1.55,1.55,0,0,1-1.56-1.51V8.35a1.37,1.37,0,0,1,.47-1.07l4.07-4.07a1.49,1.49,0,0,1,1-.46h0a1.52,1.52,0,0,1,1.09.48l4.06,4.06a1.51,1.51,0,0,1,.47,1.09V19.7A1.37,1.37,0,0,1,17.16,20.77Z"/><rect class="cls-2" width="24" height="24"/></g></g></svg>