<svg xmlns="http://www.w3.org/2000/svg" viewBox="0 0 24 24"><defs><style>.cls-1{fill:#222;}.cls-2{fill:none;}</style></defs><g id="Layer_2" data-name="Layer 2"><g id="Layer_13" data-name="Layer 13"><path class="cls-1" d="M21.75,17v3A2.75,2.75,0,0,1,19,22.75H5A2.75,2.75,0,0,1,2.25,20V17a.75.75,0,0,1,1.5,0v3A1.25,1.25,0,0,0,5,21.25H19A1.25,1.25,0,0,0,20.25,20V17a.75.75,0,0,1,1.5,0ZM8.53,6.53l2.72-2.72V16a.75.75,0,0,0,1.5,0V3.81l2.72,2.72a.75.75,0,0,0,1.06,0,.75.75,0,0,0,0-1.06l-4-4a.78.78,0,0,0-.24-.16.73.73,0,0,0-.58,0,.78.78,0,0,0-.24.16l-4,4A.75.75,0,0,0,8.53,6.53Z"/><rect class="cls-2" width="24" height="24"/></g></g></svg>