<svg xmlns="http://www.w3.org/2000/svg" viewBox="0 0 32 32"><defs><style>.cls-1{fill:#222;}.cls-2{fill:none;}</style></defs><g id="Layer_2" data-name="Layer 2"><g id="Heart"><path class="cls-1" d="M16,19.52a8.6,8.6,0,1,0-8.57-8.59A8.59,8.59,0,0,0,16,19.52ZM16,4.33a6.6,6.6,0,1,1-6.57,6.6A6.6,6.6,0,0,1,16,4.33ZM30,28.66a1,1,0,0,1-1,1h0a1,1,0,0,1-1-1,6.42,6.42,0,0,0-6.38-6.4H10.38A6.42,6.42,0,0,0,4,28.67a1,1,0,0,1-1,1,1,1,0,0,1-1-1,8.43,8.43,0,0,1,8.37-8.39H21.62A8.43,8.43,0,0,1,30,28.66Z"/><rect class="cls-2" width="32" height="32" transform="translate(0 32) rotate(-90)"/></g></g></svg>