<svg xmlns="http://www.w3.org/2000/svg" viewBox="0 0 24 24"><defs><style>.cls-1{fill:#222;}.cls-2{fill:none;}</style></defs><g id="Layer_2" data-name="Layer 2"><g id="Layer_13" data-name="Layer 13"><path class="cls-1" d="M12,14.69A6.6,6.6,0,1,0,5.42,8.1,6.59,6.59,0,0,0,12,14.69ZM12,3A5.1,5.1,0,1,1,6.92,8.1,5.1,5.1,0,0,1,12,3ZM22.75,21.75a.75.75,0,0,1-.75.75h0a.75.75,0,0,1-.75-.75,5,5,0,0,0-4.93-4.94H7.68a5,5,0,0,0-4.93,4.94.75.75,0,0,1-1.5,0,6.46,6.46,0,0,1,6.42-6.44h8.65A6.47,6.47,0,0,1,22.75,21.75Z"/><rect class="cls-2" width="24" height="24"/></g></g></svg>