<svg xmlns="http://www.w3.org/2000/svg" viewBox="0 0 24 24"><defs><style>.cls-1{fill:#222;}.cls-2{fill:none;}</style></defs><g id="Layer_2" data-name="Layer 2"><g id="Layer_13" data-name="Layer 13"><path class="cls-1" d="M10,14.3A5.43,5.43,0,1,0,4.56,8.88,5.42,5.42,0,0,0,10,14.3ZM10,5A3.93,3.93,0,1,1,6.06,8.88,3.92,3.92,0,0,1,10,5ZM18.73,19.8a.76.76,0,0,1-.75.75h0a.74.74,0,0,1-.75-.75,3.82,3.82,0,0,0-3.8-3.8H6.52a3.81,3.81,0,0,0-3.79,3.8.74.74,0,0,1-.75.75.75.75,0,0,1-.75-.75,5.32,5.32,0,0,1,5.29-5.3h6.92A5.32,5.32,0,0,1,18.73,19.8Zm3.82-9.09-3.63,3.64a.74.74,0,0,1-.53.22.71.71,0,0,1-.53-.22L16,12.53a.74.74,0,0,1,0-1.06.75.75,0,0,1,1.06,0l1.29,1.29,3.1-3.11a.75.75,0,0,1,1.06,0A.74.74,0,0,1,22.55,10.71Z"/><rect class="cls-2" width="24" height="24"/></g></g></svg>