<svg xmlns="http://www.w3.org/2000/svg" width="14.444" height="21.244" viewBox="0 0 14.444 21.244">
  <g id="Group_3476" data-name="Group 3476" transform="translate(0.599 0.777)">
    <path id="tag-multiple-2" d="M-12299.561,492.764a2.049,2.049,0,0,1-.715,1.612,2.609,2.609,0,0,1-1.69.691h-8.429a2.358,2.358,0,0,1-2.411-2.246h0V481.535a2.043,2.043,0,0,1,.725-1.613l4.214-4.031a2.4,2.4,0,0,1,3.373,0h0l4.219,4.031a2.281,2.281,0,0,1,.715,1.613v11.229" transform="translate(12312.807 -475.2)" fill="#fff" stroke="#fff" stroke-linecap="round" stroke-linejoin="round" stroke-miterlimit="10" stroke-width="1.2"/>
    <path id="Path_2879" data-name="Path 2879" d="M13.852,7.836a2.418,2.418,0,1,0-2.417-2.418A2.418,2.418,0,0,0,13.852,7.836Z" transform="translate(-7.7 2.379)" fill="none" stroke="#222" stroke-linecap="round" stroke-linejoin="round" stroke-miterlimit="10" stroke-width="1"/>
    <path id="Path_2880" data-name="Path 2880" d="M2,37.588a4.558,4.558,0,0,1,.652-2.424,1.94,1.94,0,0,1,1.567-1.008H7.6a1.94,1.94,0,0,1,1.567,1.008,4.558,4.558,0,0,1,.652,2.424" transform="translate(0.483 -22.365)" fill="none" stroke="#222" stroke-linecap="round" stroke-linejoin="round" stroke-miterlimit="10" stroke-width="1"/>
  </g>
</svg>
