<svg xmlns="http://www.w3.org/2000/svg" viewBox="0 0 24 24"><defs><style>.cls-1{fill:#222;}.cls-2{fill:none;}</style></defs><g id="Layer_2" data-name="Layer 2"><g id="Layer_13" data-name="Layer 13"><path class="cls-1" d="M19,2H5A3,3,0,0,0,2,5V19a3,3,0,0,0,3,3H19a3,3,0,0,0,3-3V5A3,3,0,0,0,19,2ZM17.5,8.5H20V11H17.5Zm-2,2.5h-7V4h7Zm-9,0H4V8.5H6.5ZM4,13H6.5v2.5H4Zm4.5,0h7v7h-7Zm9,0H20v2.5H17.5ZM20,5V6.5H17.5V4H19A1,1,0,0,1,20,5ZM5,4H6.5V6.5H4V5A1,1,0,0,1,5,4ZM4,19V17.5H6.5V20H5A1,1,0,0,1,4,19Zm15,1H17.5V17.5H20V19A1,1,0,0,1,19,20Z"/><rect class="cls-2" width="24" height="24"/></g></g></svg>