<svg xmlns="http://www.w3.org/2000/svg" width="25.447" height="17.813" viewBox="0 0 25.447 17.813">
  <path id="youtube" d="M12.179,17.724l6.6-3.817-6.6-3.817v7.634M26.888,7.761a13.154,13.154,0,0,1,.356,2.418c.089,1.018.127,1.9.127,2.659l.076,1.069a25.279,25.279,0,0,1-.56,6.146,2.981,2.981,0,0,1-2.2,2.2,17.938,17.938,0,0,1-3.372.356c-1.654.089-3.168.127-4.568.127l-2.023.076c-5.331,0-8.652-.2-9.963-.56a2.981,2.981,0,0,1-2.2-2.2A13.154,13.154,0,0,1,2.2,17.635c-.089-1.018-.127-1.9-.127-2.659L2,13.907a25.279,25.279,0,0,1,.56-6.146,2.981,2.981,0,0,1,2.2-2.2A17.938,17.938,0,0,1,8.133,5.2c1.654-.089,3.168-.127,4.568-.127L14.724,5c5.331,0,8.652.2,9.963.56A2.981,2.981,0,0,1,26.888,7.761Z" transform="translate(-2 -5)" fill="#4d4d4d"/>
</svg>
