<svg xmlns="http://www.w3.org/2000/svg" viewBox="0 0 24 24"><defs><style>.cls-1{fill:#222;}.cls-2{fill:none;}</style></defs><g id="Layer_2" data-name="Layer 2"><g id="Heart"><path class="cls-1" d="M20.71,10.18a.76.76,0,0,0-.18-.25h0a.71.71,0,0,0-.14-.1l0,0L4.21,2.07a.66.66,0,0,0-.77.14A.67.67,0,0,0,3.32,3l4.35,8.64-2.89,9.5a.7.7,0,0,0,.26.76.67.67,0,0,0,.78,0L20.48,11A.71.71,0,0,0,20.71,10.18ZM17.57,10l-8.8.84L5.41,4.14ZM6.66,19.56l2.25-7.39,8.82-.85Z"/><rect class="cls-2" width="24" height="24" transform="translate(0 24) rotate(-90)"/></g></g></svg>