<svg xmlns="http://www.w3.org/2000/svg" viewBox="0 0 24 24"><defs><style>.cls-1{fill:#222;}.cls-2{fill:none;}</style></defs><g id="Layer_2" data-name="Layer 2"><g id="Layer_13" data-name="Layer 13"><path class="cls-1" d="M22.53,3.53l-11,11a.75.75,0,0,1-1.06,0l-3-3a.75.75,0,0,1,1.06-1.06L11,12.94,21.47,2.47a.75.75,0,0,1,1.06,1.06ZM20,11.25a.76.76,0,0,0-.75.75v7A1.25,1.25,0,0,1,18,20.25H4A1.25,1.25,0,0,1,2.75,19V5A1.25,1.25,0,0,1,4,3.75H15a.75.75,0,0,0,0-1.5H4A2.75,2.75,0,0,0,1.25,5V19A2.75,2.75,0,0,0,4,21.75H18A2.75,2.75,0,0,0,20.75,19V12A.76.76,0,0,0,20,11.25Z"/><rect class="cls-2" width="24" height="24"/></g></g></svg>