<svg xmlns="http://www.w3.org/2000/svg" viewBox="0 0 24 24"><defs><style>.cls-1{fill:#222;}.cls-2{fill:none;}</style></defs><g id="Layer_2" data-name="Layer 2"><g id="Layer_13" data-name="Layer 13"><path class="cls-1" d="M20,3.25H4A2.76,2.76,0,0,0,1.25,6V18A2.76,2.76,0,0,0,4,20.75H20A2.76,2.76,0,0,0,22.75,18V6A2.76,2.76,0,0,0,20,3.25ZM4,4.75H20a1.24,1.24,0,0,1,1.18.91L12,12.08,2.82,5.66A1.24,1.24,0,0,1,4,4.75Zm16,14.5H4A1.25,1.25,0,0,1,2.75,18V7.44l8.82,6.17a.73.73,0,0,0,.86,0l8.82-6.17V18A1.25,1.25,0,0,1,20,19.25Z"/><rect class="cls-2" width="24" height="24"/></g></g></svg>