<svg xmlns="http://www.w3.org/2000/svg" viewBox="0 0 24 24"><defs><style>.cls-1{fill:#222;}.cls-2{fill:none;}</style></defs><g id="Layer_2" data-name="Layer 2"><g id="Layer_13" data-name="Layer 13"><path class="cls-1" d="M22.82,17.67,14.35,3.52a2.76,2.76,0,0,0-3.78-.92,2.89,2.89,0,0,0-.92.92h0L1.17,17.68a2.75,2.75,0,0,0,1,3.75,2.66,2.66,0,0,0,1.35.37h17A2.71,2.71,0,0,0,22.41,21a2.71,2.71,0,0,0,.41-3.3Zm-1.48,2.26a1.23,1.23,0,0,1-.87.37H3.54a1.17,1.17,0,0,1-.61-.17,1.18,1.18,0,0,1-.58-.76,1.2,1.2,0,0,1,.11-.93L10.93,4.3a1.3,1.3,0,0,1,.42-.42,1.25,1.25,0,0,1,1.72.42l8.46,14.13a1.17,1.17,0,0,1,.17.61A1.25,1.25,0,0,1,21.34,19.93ZM11.25,13.05v-4a.75.75,0,0,1,1.5,0v4a.75.75,0,0,1-1.5,0Zm1.28,3.47a.75.75,0,1,1-1.06,0A.77.77,0,0,1,12.53,16.52Z"/><rect class="cls-2" width="24" height="24"/></g></g></svg>