<svg xmlns="http://www.w3.org/2000/svg" viewBox="0 0 24 24"><defs><style>.cls-1{fill:#222;}.cls-2{fill:none;}</style></defs><g id="Layer_2" data-name="Layer 2"><g id="Layer_13" data-name="Layer 13"><path class="cls-1" d="M12,14.5a6,6,0,1,0-6-6A6,6,0,0,0,12,14.5ZM12,4A4.52,4.52,0,1,1,7.49,8.49,4.52,4.52,0,0,1,12,4Zm9.75,16.8a.76.76,0,0,1-.75.76.78.78,0,0,1-.75-.75,4.39,4.39,0,0,0-4.36-4.38H8.11a4.39,4.39,0,0,0-4.36,4.38.76.76,0,0,1-.75.75H3a.76.76,0,0,1-.75-.76A5.9,5.9,0,0,1,8.11,14.9h7.78A5.9,5.9,0,0,1,21.75,20.77ZM9.4,10.74A.75.75,0,0,1,9,9.34l1.47-.85L9,7.64a.76.76,0,0,1-.28-1,.75.75,0,0,1,1-.27l1.47.85V5.49a.75.75,0,0,1,1.5,0v1.7l1.47-.85A.75.75,0,1,1,15,7.64l-1.47.85L15,9.34a.74.74,0,0,1,.28,1,.76.76,0,0,1-.65.38.86.86,0,0,1-.38-.1l-1.47-.85v1.7a.75.75,0,1,1-1.5,0V9.79l-1.47.85A.86.86,0,0,1,9.4,10.74Z"/><rect class="cls-2" width="24" height="24"/></g></g></svg>