<svg xmlns="http://www.w3.org/2000/svg" viewBox="0 0 24 24"><defs><style>.cls-1{fill:#222;}.cls-2{fill:none;}</style></defs><g id="Layer_2" data-name="Layer 2"><g id="Layer_13" data-name="Layer 13"><path class="cls-1" d="M21.48,7.51a3.4,3.4,0,0,1-.93,2.7L12,18.93a5.55,5.55,0,0,1-7.85-.11,5.79,5.79,0,0,1,0-8.11L10.77,4a.72.72,0,0,1,1,0,.72.72,0,0,1,0,1L5.18,11.73a4.34,4.34,0,0,0,0,6.07l.08.07a4.12,4.12,0,0,0,5.84-.08l8.43-8.6a2,2,0,0,0,.52-1.55,2.88,2.88,0,0,0-.85-1.81A2.79,2.79,0,0,0,17.25,5a1.85,1.85,0,0,0-1.33.54l-8.43,8.6a1,1,0,0,0,0,1.34.92.92,0,0,0,1.3,0l8.43-8.61a.72.72,0,0,1,1,0,.74.74,0,0,1,0,1l-8.43,8.6a2.35,2.35,0,0,1-3.34,0,2.43,2.43,0,0,1,0-3.38l8.44-8.61a3.28,3.28,0,0,1,2.35-1,4.22,4.22,0,0,1,3,1.3A4.37,4.37,0,0,1,21.48,7.51Z"/><rect id="Rectangle_1608" data-name="Rectangle 1608" class="cls-2" width="24" height="24"/></g></g></svg>