<svg xmlns="http://www.w3.org/2000/svg" viewBox="0 0 24 24"><defs><style>.cls-1{fill:#222;}.cls-2{fill:none;}</style></defs><g id="Layer_2" data-name="Layer 2"><g id="Layer_13" data-name="Layer 13"><path class="cls-1" d="M21.75,3V9a.75.75,0,0,1-1.5,0V4.81l-5.72,5.72a.75.75,0,0,1-1.06,0,.75.75,0,0,1,0-1.06l5.72-5.72H15a.75.75,0,0,1,0-1.5h6a.75.75,0,0,1,.29.06.71.71,0,0,1,.4.4A.75.75,0,0,1,21.75,3ZM9.47,13.47,3.75,19.19V15a.75.75,0,0,0-1.5,0v6a.76.76,0,0,0,.46.69.75.75,0,0,0,.29.06H9a.75.75,0,0,0,0-1.5H4.81l5.72-5.72a.75.75,0,0,0-1.06-1.06Z"/><rect class="cls-2" width="24" height="24"/></g></g></svg>