<svg xmlns="http://www.w3.org/2000/svg" viewBox="0 0 24 24"><defs><style>.cls-1{fill:#222;}.cls-2{fill:none;}</style></defs><g id="Layer_2" data-name="Layer 2"><g id="Layer_13" data-name="Layer 13"><path class="cls-1" d="M22.19,8.08a5.94,5.94,0,0,0-.48-1.67,7.94,7.94,0,0,0-.92-1.54,7.22,7.22,0,0,0-1.24-1.29,5.51,5.51,0,0,0-1.49-.89,7,7,0,0,0-2.59-.5,6.78,6.78,0,0,0-5.21,2.48,7.71,7.71,0,0,0-3.72.5,8.91,8.91,0,0,0-1.82,1,7.46,7.46,0,0,0-2.9,7,7.58,7.58,0,0,0,2.51,4.7L4.7,21a.91.91,0,0,0,.36.63,1,1,0,0,0,.58.2h.13l.12,0,2.64-1.91,0,0a7.57,7.57,0,0,0,3.68-.5,7.09,7.09,0,0,0,1.66-.93,7.58,7.58,0,0,0,2.23-2.79,6.61,6.61,0,0,0,1.54-.32l2.45,1,.19.06h.15a.93.93,0,0,0,.91-.83v-.1L21,12.81h0a6.69,6.69,0,0,0,1.18-3A6.38,6.38,0,0,0,22.19,8.08ZM13,17.2a5.43,5.43,0,0,1-1.33.75,5.93,5.93,0,0,1-2.93.4,1.4,1.4,0,0,0-.76.09,1,1,0,0,0-.21.12L6.07,19.84l-.25-2.13a1.39,1.39,0,0,0-.49-.88,6.29,6.29,0,0,1-2-3.82,6,6,0,0,1,2.3-5.6,7.49,7.49,0,0,1,1.51-.85A6,6,0,0,1,9.4,6.11a6.09,6.09,0,0,1,1.12.12,6.28,6.28,0,0,1,.85.23l.08,0a6.06,6.06,0,0,1,.86.38h0A6.31,6.31,0,0,1,13.8,8l.09.1a7.79,7.79,0,0,1,.51.63.86.86,0,0,0,.07.1,6.58,6.58,0,0,1,.42.73l.13.3c.07.17.13.34.19.51s.07.23.11.34a7.7,7.7,0,0,1,.17.86,2.09,2.09,0,0,1,0,.25,3.46,3.46,0,0,1,0,.46,1.5,1.5,0,0,1,0,.2c0,.19,0,.38-.06.58l0,.11a5.2,5.2,0,0,1-.17.68l0,.1A6.53,6.53,0,0,1,13,17.2Zm7.69-7.62a5.23,5.23,0,0,1-.91,2.36,1.22,1.22,0,0,0-.28.7c0,.08,0,.17,0,.16v.08l.23,1.65-1.6-.66a1.85,1.85,0,0,0-.47-.08h0a1.16,1.16,0,0,0-.45.09l-.46.13a5.88,5.88,0,0,0,.16-.7c0-.05,0-.09,0-.13a6.34,6.34,0,0,0,.07-.75,1.93,1.93,0,0,0,0-.24,6.74,6.74,0,0,0,0-.79v0a9.39,9.39,0,0,0-.19-.95c0-.16-.1-.32-.15-.48s-.09-.3-.15-.44A4,4,0,0,0,16.28,9c-.07-.15-.14-.3-.22-.45l-.22-.38-.38-.54c-.05-.07-.1-.15-.16-.22a7.69,7.69,0,0,0-1.47-1.38l-.05,0a5.57,5.57,0,0,0-.57-.37L13,5.52l-.11-.06c-.29-.14-.58-.27-.87-.38l0,0a5.27,5.27,0,0,1,3.53-1.37,5.59,5.59,0,0,1,2,.39,4.14,4.14,0,0,1,1.09.65,6.28,6.28,0,0,1,1,1A6.79,6.79,0,0,1,20.35,7a4.1,4.1,0,0,1,.35,1.24A4.79,4.79,0,0,1,20.71,9.58Z"/><rect id="Rectangle_1608" data-name="Rectangle 1608" class="cls-2" width="24" height="24"/></g></g></svg>