<svg xmlns="http://www.w3.org/2000/svg" viewBox="0 0 24 24"><defs><style>.cls-1{fill:none;}.cls-2{fill:#222;}</style></defs><g id="Layer_2" data-name="Layer 2"><g id="Layer_13" data-name="Layer 13"><rect class="cls-1" width="24" height="24"/><path id="Path_860" data-name="Path 860" class="cls-2" d="M8.81,20a1,1,0,0,1-.68-.27l-5.57-5.6a1.15,1.15,0,0,1-.26-.49,1,1,0,0,1,.26-1,1,1,0,0,1,.67-.31,1.08,1.08,0,0,1,.78.3L8.8,17.33,20,4.41a1,1,0,0,1,.79-.36,1,1,0,0,1,.76.37l-.18.15.21-.11a1.1,1.1,0,0,1-.09,1.4L9.58,19.59a1,1,0,0,1-.69.36ZM2.94,13.6h0ZM21.11,5.37l0,0Zm-.77-.52,0,0Z"/></g></g></svg>