<svg xmlns="http://www.w3.org/2000/svg" viewBox="0 0 24 24"><defs><style>.cls-1{fill:#222;}.cls-2{fill:none;}</style></defs><g id="Layer_2" data-name="Layer 2"><g id="Layer_13" data-name="Layer 13"><path class="cls-1" d="M20,2.25H4A1.76,1.76,0,0,0,2.25,4V20A1.76,1.76,0,0,0,4,21.75H20A1.76,1.76,0,0,0,21.75,20V4A1.76,1.76,0,0,0,20,2.25ZM20.25,20a.26.26,0,0,1-.26.26H4A.26.26,0,0,1,3.75,20V4A.25.25,0,0,1,4,3.75H20a.26.26,0,0,1,.26.26Zm-4-11.49v6a.75.75,0,0,1-1.5,0V10.31L9,16A.75.75,0,0,1,8,16,.75.75,0,0,1,8,15l5.72-5.72H9.53a.75.75,0,0,1,0-1.5h6A.76.76,0,0,1,16.25,8.5Z"/><rect class="cls-2" width="24" height="24"/></g></g></svg>