<svg xmlns="http://www.w3.org/2000/svg" viewBox="0 0 24 24"><defs><style>.cls-1{fill:#222;}.cls-2{fill:none;}</style></defs><g id="Layer_2" data-name="Layer 2"><g id="Layer_13" data-name="Layer 13"><path class="cls-1" d="M19.17,10.67l0-.08h0a.83.83,0,0,0-.13-.18l0,0a.71.71,0,0,0-.14-.1l0,0L7.85,5.07A.77.77,0,0,0,7,5.23a.76.76,0,0,0-.13.86l2.89,5.68L7.83,18a.76.76,0,0,0,.28.83.79.79,0,0,0,.44.14A.73.73,0,0,0,9,18.85l9.93-7.31A.75.75,0,0,0,19.17,10.67Zm-3.5-.23L11,10.89,9.2,7.37ZM9.93,16.3l1.2-3.91,4.72-.45ZM12,1.25A10.75,10.75,0,1,0,22.75,12,10.76,10.76,0,0,0,12,1.25Zm0,20A9.25,9.25,0,1,1,21.25,12,9.26,9.26,0,0,1,12,21.25Z"/><rect class="cls-2" width="24" height="24"/></g></g></svg>