<svg xmlns="http://www.w3.org/2000/svg" viewBox="0 0 24 24"><defs><style>.cls-1{fill:none;}.cls-2{fill:#222;}</style></defs><g id="Layer_2" data-name="Layer 2"><g id="Layer_13" data-name="Layer 13"><rect id="Rectangle_1608" data-name="Rectangle 1608" class="cls-1" width="24" height="24"/><path class="cls-2" d="M20.17,16.39a2.55,2.55,0,0,0-1.77.71l-2.82-1.63a3.64,3.64,0,0,0,.23-1.24,3.86,3.86,0,0,0-3.06-3.75v-3a2.58,2.58,0,1,0-1.5,0v3a3.84,3.84,0,0,0-3.18,3.77,3.75,3.75,0,0,0,.24,1.3L5.57,17.07A2.56,2.56,0,1,0,6.42,19a2.89,2.89,0,0,0-.08-.6l2.74-1.55a3.84,3.84,0,0,0,5.74,0l2.83,1.63a2.52,2.52,0,0,0-.07.56,2.59,2.59,0,1,0,2.59-2.57ZM3.83,20A1.07,1.07,0,1,1,4.92,19,1.08,1.08,0,0,1,3.83,20Zm7-15a1.09,1.09,0,1,1,1.09,1.07A1.08,1.08,0,0,1,10.85,5Zm1.09,11.54a2.35,2.35,0,1,1,2.37-2.35A2.36,2.36,0,0,1,11.94,16.58ZM20.17,20A1.07,1.07,0,1,1,21.25,19,1.08,1.08,0,0,1,20.17,20Z"/></g></g></svg>