<svg xmlns="http://www.w3.org/2000/svg" viewBox="0 0 24 24"><defs><style>.cls-1{fill:#222;}.cls-2{fill:none;}</style></defs><g id="Layer_2" data-name="Layer 2"><g id="Layer_13" data-name="Layer 13"><path class="cls-1" d="M20.87,13.13,16.41,8.67,20.87,4.2a.75.75,0,0,0,.22-.53.76.76,0,0,0-.76-.76H4.42V2.33a.76.76,0,1,0-1.51,0V21.67a.76.76,0,1,0,1.51,0V14.43H20.33a.76.76,0,0,0,.54-.23.76.76,0,0,0,0-1.07ZM4.42,12.91V4.43H18.5l-3.7,3.7a.75.75,0,0,0,0,1.07l3.7,3.71Z"/><rect class="cls-2" width="24" height="24"/></g></g></svg>