<svg xmlns="http://www.w3.org/2000/svg" viewBox="0 0 24 24"><defs><style>.cls-1{fill:#222;}.cls-2{fill:none;}</style></defs><g id="Layer_2" data-name="Layer 2"><g id="Heart"><path class="cls-1" d="M13.7,10.94h0a2.39,2.39,0,0,0,1.71-.71,2.43,2.43,0,0,0,0-3.45,2.46,2.46,0,0,0-1.72-.72,2.32,2.32,0,0,0-.94.19,2.44,2.44,0,0,0,.92,4.69Zm-.35-3.31a1.1,1.1,0,0,1,.36-.07h0a.91.91,0,0,1,.66.28.92.92,0,0,1,.28.66,1,1,0,0,1-.28.67,1,1,0,0,1-.67.27.94.94,0,0,1-.35-1.81Z"/><path class="cls-1" d="M15.73,12.17a1.29,1.29,0,0,0-1.81,0l-.77.76L11.23,11a1.28,1.28,0,0,0-1.81,0l-4,4a1.29,1.29,0,0,0,0,1.8,1.3,1.3,0,0,0,.93.4H17.76A1.28,1.28,0,0,0,19,15.93a1.35,1.35,0,0,0-.39-.92ZM6.86,15.75l3.48-3.48,2.81,2.82,1.69-1.69,2.35,2.35Z"/><path class="cls-1" d="M19.31,2.25H4.69A2.45,2.45,0,0,0,2.25,4.69V19.31a2.45,2.45,0,0,0,2.44,2.44H19.31a2.45,2.45,0,0,0,2.44-2.44V4.69A2.45,2.45,0,0,0,19.31,2.25Zm.94,17.06a.94.94,0,0,1-.94.94H4.69a.94.94,0,0,1-.94-.94V4.69a.94.94,0,0,1,.94-.94H19.31a.94.94,0,0,1,.94.94Z"/><rect class="cls-2" width="24" height="24"/></g></g></svg>