<svg xmlns="http://www.w3.org/2000/svg" width="24.205" height="21.148" viewBox="0 0 24.205 21.148">
  <g id="Group_3559" data-name="Group 3559" transform="translate(-899.403 -15572.667)">
    <path id="Subtraction_6" data-name="Subtraction 6" d="M10.8,13.85a.19.19,0,0,1-.069-.013l-2.725-1.11a.813.813,0,0,0-.254-.044.545.545,0,0,0-.223.045,6.673,6.673,0,0,1-1.985.364A7.263,7.263,0,0,0,6.18,9.327,7.61,7.61,0,0,0,0,2.768,6.57,6.57,0,0,1,5.354,0,6.884,6.884,0,0,1,7.875.486a5.253,5.253,0,0,1,1.407.838A7.49,7.49,0,0,1,10.51,2.6a7.658,7.658,0,0,1,.912,1.526,5.574,5.574,0,0,1,.459,1.594,6.31,6.31,0,0,1,.007,1.641,6.486,6.486,0,0,1-1.171,2.987.594.594,0,0,0-.128.312.376.376,0,0,0,0,.09.374.374,0,0,1,0,.09L11,13.66l0,.029A.187.187,0,0,1,10.8,13.85Z" transform="translate(911.169 15573.167)" fill="none" stroke="#4d4d4d" stroke-miterlimit="10" stroke-width="1"/>
    <path id="icon58" d="M.21,14.924H.244L3.4,14.076c.068,0,.136-.034.2-.034a.684.684,0,0,1,.373.1,7.419,7.419,0,0,0,3.563.916,7.224,7.224,0,0,0,1.866-.237,8.168,8.168,0,0,0,5.4-5.291A7.532,7.532,0,0,0,7.574,0,8.9,8.9,0,0,0,5.5.271,7.353,7.353,0,0,0,.278,5.6a7.655,7.655,0,0,0,.543,5.257.765.765,0,0,1,.068.543L.007,14.652A.217.217,0,0,0,.21,14.924Z" transform="matrix(0.927, -0.375, 0.375, 0.927, 900.055, 15579.201)" fill="none" stroke="#4d4d4d" stroke-miterlimit="10" stroke-width="1" fill-rule="evenodd"/>
  </g>
</svg>
