<svg xmlns="http://www.w3.org/2000/svg" width="20.005" height="18.249" viewBox="0 0 20.005 18.249">
  <path id="Path_826" data-name="Path 826" d="M13.8,20.074a1.317,1.317,0,1,1-1.316-1.318A1.317,1.317,0,0,1,13.8,20.074Zm-4.33-11.4c1.474-2.528,4.467-2.792,5.989-.158l6.421,11.124c1.488,2.6.109,5.265-2.859,5.263L6.2,24.9c-2.861,0-4.714-2.406-3.154-5.109L9.474,8.673Zm.6.352L3.657,20.146C2.373,22.369,3.885,24.2,6.2,24.2H19.025c2.438,0,3.469-2.088,2.253-4.217L14.857,8.864c-1.25-2.166-3.577-1.9-4.779.16Zm2.059,2.956a.351.351,0,0,1,.7,0v4.242a.351.351,0,0,1-.7,0Zm.964,8.095a.614.614,0,1,0-.613.613.611.611,0,0,0,.613-.613Z" transform="translate(-2.483 -6.655)" fill="#4d4d4d"/>
</svg>
