<svg xmlns="http://www.w3.org/2000/svg" width="20" height="15" viewBox="0 0 20 15">
  <path id="Path_566" data-name="Path 566" d="M18.333,64H1.667A1.668,1.668,0,0,0,0,65.667V77.333A1.668,1.668,0,0,0,1.667,79H18.333A1.668,1.668,0,0,0,20,77.333V65.667A1.668,1.668,0,0,0,18.333,64Zm-16.667.833H18.333a.786.786,0,0,1,.129.026L10.443,71.37a.89.89,0,0,1-.856.022L1.538,64.859A.781.781,0,0,1,1.667,64.833Zm17.5,12.5a.834.834,0,0,1-.833.833H1.667a.834.834,0,0,1-.833-.833V65.667A.814.814,0,0,1,.887,65.4L9.1,72.066a1.651,1.651,0,0,0,1.773.019.385.385,0,0,0,.069-.045L19.114,65.4a.813.813,0,0,1,.053.263V77.333Z" transform="translate(0 -64)" fill="#4d4d4d"/>
</svg>
