<svg xmlns="http://www.w3.org/2000/svg" width="22.323" height="20.254" viewBox="0 0 22.323 20.254">
  <g id="Layer_20" data-name="Layer 20" transform="translate(0.125 -2.875)">
    <path id="Path_2952" data-name="Path 2952" d="M12.829,12.657a4.829,4.829,0,1,1,4.829-4.829,4.829,4.829,0,0,1-4.829,4.829Zm0-8.967a4.139,4.139,0,1,0,4.139,4.139A4.139,4.139,0,0,0,12.829,3.69Z" transform="translate(-5.241 0)" fill="#4d4d4d" stroke="#4d4d4d" stroke-width="0.25"/>
    <path id="Path_2953" data-name="Path 2953" d="M42,12.657v-.69A4.139,4.139,0,1,0,42,3.69V3a4.829,4.829,0,1,1,0,9.657Z" transform="translate(-27.514 0)" fill="#4d4d4d" stroke="#4d4d4d" stroke-width="0.25"/>
    <path id="Path_2954" data-name="Path 2954" d="M14.83,40.037H.345A.345.345,0,0,1,0,39.692v-3.1a7.588,7.588,0,1,1,15.175,0v3.1A.345.345,0,0,1,14.83,40.037ZM.69,39.347h13.8V36.588a6.9,6.9,0,0,0-13.8,0Z" transform="translate(0 -17.033)" fill="#4d4d4d" stroke="#4d4d4d" stroke-width="0.25"/>
    <path id="Path_2955" data-name="Path 2955" d="M49.243,40.037H43.724v-.69H48.9V36.588a6.9,6.9,0,0,0-6.9-6.9V29a7.588,7.588,0,0,1,7.588,7.588v3.1A.345.345,0,0,1,49.243,40.037Z" transform="translate(-27.514 -17.033)" fill="#4d4d4d" stroke="#4d4d4d" stroke-width="0.25"/>
  </g>
</svg>
