<svg xmlns="http://www.w3.org/2000/svg" width="19.484" height="20.003" viewBox="0 0 19.484 20.003">
  <g id="Group_3069" data-name="Group 3069" transform="translate(-1149.451 -153)">
    <path id="Path_817" data-name="Path 817" d="M256.652,86.633H270.94a.649.649,0,1,0,0-1.3H256.652a.649.649,0,1,0,0,1.3Z" transform="translate(897.346 67.666)" fill="#4d4d4d"/>
    <path id="Path_818" data-name="Path 818" d="M256.652,86.633H270.94a.649.649,0,1,0,0-1.3H256.652a.649.649,0,1,0,0,1.3Z" transform="translate(897.346 77.018)" fill="#4d4d4d"/>
    <path id="Path_819" data-name="Path 819" d="M256.652,86.633H270.94a.649.649,0,1,0,0-1.3H256.652a.649.649,0,1,0,0,1.3Z" transform="translate(897.346 86.37)" fill="#4d4d4d"/>
    <path id="Path_512" data-name="Path 512" d="M192.652,64a.661.661,0,0,0-.65.672V83.2a.65.65,0,1,0,1.3,0V64.673A.661.661,0,0,0,192.652,64Z" transform="translate(957.449 88.999)" fill="#4d4d4d"/>
  </g>
</svg>
