<svg xmlns="http://www.w3.org/2000/svg" viewBox="0 0 24 24"><defs><style>.cls-1{fill:none;}.cls-2{fill:#222;}</style></defs><g id="Layer_2" data-name="Layer 2"><g id="Heart"><rect class="cls-1" width="24" height="24" transform="translate(0 24) rotate(-90)"/><path class="cls-2" d="M19,11.25H17.75V7A5.75,5.75,0,0,0,6.25,7v4.25H5A1.76,1.76,0,0,0,3.25,13v8A1.75,1.75,0,0,0,5,22.75H19A1.75,1.75,0,0,0,20.75,21V13A1.76,1.76,0,0,0,19,11.25ZM7.75,7a4.25,4.25,0,0,1,8.5,0v4.25H7.75Zm11.5,14a.25.25,0,0,1-.25.25H5A.25.25,0,0,1,4.75,21V13A.25.25,0,0,1,5,12.75H19a.25.25,0,0,1,.25.25Z"/></g></g></svg>