<svg xmlns="http://www.w3.org/2000/svg" width="20.508" height="20.508" viewBox="0 0 20.508 20.508">
  <g id="emoji1" transform="translate(-0.742 -0.75)">
    <path id="Path_2594" data-name="Path 2594" d="M11,1a10,10,0,1,0,7.071,2.929A10,10,0,0,0,11,1Zm0,19.167a9.167,9.167,0,1,1,6.482-2.685A9.167,9.167,0,0,1,11,20.167Z" transform="translate(0 0)" stroke="#000" stroke-width="0.5"/>
    <path id="Path_2595" data-name="Path 2595" d="M22.394,29.114a.412.412,0,0,0-.314.05.417.417,0,0,0-.186.26,5.029,5.029,0,0,1-1.761,2.782,4.96,4.96,0,0,1-6.188,0,5.029,5.029,0,0,1-1.758-2.784A.419.419,0,0,0,12,29.166a.415.415,0,0,0-.566.134.422.422,0,0,0-.057.311,5.869,5.869,0,0,0,2.053,3.245,5.788,5.788,0,0,0,7.217,0A5.868,5.868,0,0,0,22.7,29.618a.421.421,0,0,0-.05-.316A.415.415,0,0,0,22.394,29.114Z" transform="translate(-6.04 -16.45)" stroke="#000" stroke-width="0.5"/>
    <path id="Path_2596" data-name="Path 2596" d="M15.858,18.725a.838.838,0,1,0-.836-.838A.837.837,0,0,0,15.858,18.725Z" transform="translate(-8.19 -9.387)" stroke="#000" stroke-width="0.5"/>
    <path id="Path_2597" data-name="Path 2597" d="M31.879,18.725a.838.838,0,1,0-.836-.838A.837.837,0,0,0,31.879,18.725Z" transform="translate(-17.547 -9.387)" stroke="#000" stroke-width="0.5"/>
  </g>
</svg>
