<svg xmlns="http://www.w3.org/2000/svg" viewBox="0 0 24 24"><defs><style>.cls-1{fill:#222;}.cls-2{fill:none;}</style></defs><g id="Layer_2" data-name="Layer 2"><g id="Layer_13" data-name="Layer 13"><path class="cls-1" d="M21.68,10a1,1,0,0,0-.24-.35l0,0a.86.86,0,0,0-.2-.13l0,0L3.68,1.1a1,1,0,0,0-1.15.2,1,1,0,0,0-.17,1.15L7,11.61l-3.1,10.1a1,1,0,0,0,1,1.29,1,1,0,0,0,.59-.19l15.87-11.7A1,1,0,0,0,21.68,10ZM17,9.64l-8.36.79L5.47,4.16ZM6.72,19.4l2.14-7,8.39-.79Z"/><rect class="cls-2" width="24" height="24"/></g></g></svg>