<svg xmlns="http://www.w3.org/2000/svg" viewBox="0 0 24 24"><defs><style>.cls-1{fill:#666;}.cls-2{fill:none;}</style></defs><g id="Layer_2" data-name="Layer 2"><g id="Layer_13" data-name="Layer 13"><path class="cls-1" d="M12,2A10,10,0,1,1,2,12,10,10,0,0,1,12,2ZM9.28,15.78,12,13.06l2.72,2.72a.74.74,0,0,0,.75.19.77.77,0,0,0,.52-.58.76.76,0,0,0-.21-.67L13.06,12l2.72-2.72a.75.75,0,0,0-1.06-1.06L12,10.94,9.28,8.22A.75.75,0,0,0,8.22,9.28L10.94,12,8.22,14.72A.74.74,0,0,0,8.6,16l.15,0A.75.75,0,0,0,9.28,15.78Z"/><rect class="cls-2" width="24" height="24"/></g></g></svg>