<svg xmlns="http://www.w3.org/2000/svg" viewBox="0 0 24 24"><defs><style>.cls-1{fill:#222;}.cls-2{fill:none;}</style></defs><g id="Layer_2" data-name="Layer 2"><g id="Layer_13" data-name="Layer 13"><path id="pin" class="cls-1" d="M3.27,21.5a.74.74,0,0,1-.54-.23.75.75,0,0,1-.08-1l4.54-6.06L4.12,11.14a1.69,1.69,0,0,1-.41-.6,1.87,1.87,0,0,1,1-2.42A1.74,1.74,0,0,1,5.42,8a11,11,0,0,0,5.31-1.1,6.43,6.43,0,0,0,2.78-3.19A2.47,2.47,0,0,1,13.94,3a1.87,1.87,0,0,1,2.64,0L21,7.46a1.85,1.85,0,0,1,0,2.61,1.82,1.82,0,0,1-.65.42,6.29,6.29,0,0,0-3.2,2.81A11.14,11.14,0,0,0,16,18.52a1.73,1.73,0,0,1-.14.73,1.86,1.86,0,0,1-2.42,1,1.82,1.82,0,0,1-.62-.43l-3-3L3.73,21.35A.79.79,0,0,1,3.27,21.5ZM9.87,15a.78.78,0,0,1,.54.23L14,18.76a.29.29,0,0,0,.11.08.29.29,0,0,0,.4-.16.35.35,0,0,0,0-.13,12.85,12.85,0,0,1,1.25-6,7.83,7.83,0,0,1,4-3.54A.57.57,0,0,0,19.88,9a.31.31,0,0,0,0-.43L15.48,4.13h0a.31.31,0,0,0-.42,0,.63.63,0,0,0-.12.18,8.05,8.05,0,0,1-3.48,4A12.68,12.68,0,0,1,5.39,9.51l-.08,0a.35.35,0,0,0-.18.43.19.19,0,0,0,.06.07l3.56,3.56a.78.78,0,0,1,.07,1L7.09,16.91l2.32-1.73A.72.72,0,0,1,9.87,15Z"/><rect id="Rectangle_1608" data-name="Rectangle 1608" class="cls-2" width="24" height="24"/></g></g></svg>