<svg xmlns="http://www.w3.org/2000/svg" width="21.529" height="21.781" viewBox="0 0 21.529 21.781">
  <path id="pin" d="M255.534,122.676a1.23,1.23,0,0,0-1.763-.032,1.8,1.8,0,0,0-.315.48,8.448,8.448,0,0,1-3.652,4.227,13.407,13.407,0,0,1-6.517,1.377,1.244,1.244,0,0,0-.472.1,1.308,1.308,0,0,0-.693,1.665h0a1.219,1.219,0,0,0,.283.416l4.093,4.163-5.7,7.75,7.619-5.8,4.093,4.131a1.2,1.2,0,0,0,.409.288,1.244,1.244,0,0,0,1.637-.7,1.3,1.3,0,0,0,.094-.48,14.181,14.181,0,0,1,1.354-6.6,8.138,8.138,0,0,1,4.156-3.715,1.318,1.318,0,0,0,.441-.288,1.281,1.281,0,0,0,0-1.793Z" transform="translate(-240.175 -121.662)" fill="none" stroke="#262626" stroke-linejoin="round" stroke-width="1.25"/>
</svg>
