<svg xmlns="http://www.w3.org/2000/svg" viewBox="0 0 24 24"><defs><style>.cls-1{fill:#222;}.cls-2{fill:none;}</style></defs><g id="Layer_2" data-name="Layer 2"><g id="Layer_13" data-name="Layer 13"><g id="Layer_13-2" data-name="Layer 13"><path id="Path_3119" data-name="Path 3119" class="cls-1" d="M20.9,17.21a.75.75,0,0,1-.65.38.79.79,0,0,1-.37-.1l-7.07-4.07V21.5a.75.75,0,0,1-1.5,0V13.35L4.12,17.49a.79.79,0,0,1-.37.1.75.75,0,0,1-.65-.38.74.74,0,0,1,.28-1l7.12-4.1L3.38,8A.75.75,0,0,1,3.1,7a.73.73,0,0,1,1-.27l7.19,4.14V2.5a.75.75,0,0,1,1.5,0v8.25l7.07-4.06a.73.73,0,0,1,1,.27.75.75,0,0,1-.28,1l-7.12,4.1,7.12,4.1a.73.73,0,0,1,.35,1Z"/><rect id="Rectangle_1608" data-name="Rectangle 1608" class="cls-2" width="24" height="24"/></g></g></g></svg>