<svg xmlns="http://www.w3.org/2000/svg" viewBox="0 0 24 24"><defs><style>.cls-1{fill:#222;}.cls-2{fill:none;}</style></defs><g id="Layer_2" data-name="Layer 2"><g id="Layer_13" data-name="Layer 13"><path class="cls-1" d="M19.56,2.35H4.43A2.09,2.09,0,0,0,2.35,4.44V15.35a1.4,1.4,0,0,0,.3.85l.38.47-.65,3.57a1.94,1.94,0,0,0,0,.38,1,1,0,0,0,.29.72,1,1,0,0,0,.68.31h.12a1.55,1.55,0,0,0,.31,0L7.31,21l.48.38a1.43,1.43,0,0,0,.86.3H19.57A2,2,0,0,0,21,21a2.06,2.06,0,0,0,.61-1.47V4.45A2.09,2.09,0,0,0,19.56,2.35ZM20,19.56a.42.42,0,0,1-.43.42H8.75l-.55-.44a1.22,1.22,0,0,0-.75-.26.75.75,0,0,0-.21,0l-3.1.55.56-3.09a1.22,1.22,0,0,0-.24-1L4,15.24V4.43A.42.42,0,0,1,4.44,4H19.55a.43.43,0,0,1,.44.43ZM5.38,8a.83.83,0,0,1,.83-.83H17.79a.83.83,0,0,1,0,1.66H6.21A.83.83,0,0,1,5.38,8Zm13.27,4a.83.83,0,0,1-.83.83H6.18a.83.83,0,0,1,0-1.66H17.82A.83.83,0,0,1,18.65,12Zm-7.87,4a.82.82,0,0,1-.82.82H6.3a.82.82,0,1,1,0-1.64H10A.82.82,0,0,1,10.78,16Z"/><rect id="Rectangle_1608" data-name="Rectangle 1608" class="cls-2" width="24" height="24"/></g></g></svg>