<svg xmlns="http://www.w3.org/2000/svg" viewBox="0 0 24 24"><defs><style>.cls-1{fill:#0092ff;}.cls-2{fill:none;}</style></defs><g id="Layer_2" data-name="Layer 2"><g id="Layer_13" data-name="Layer 13"><path class="cls-1" d="M20.8,10.33a.69.69,0,0,1-.27.62L5.67,21.87a.63.63,0,0,1-.39.13.64.64,0,0,1-.4-.13.66.66,0,0,1-.25-.75l2.74-8.63.29-.9-.24-.48L3.27,3a.67.67,0,0,1,.12-.77.69.69,0,0,1,.78-.15L20.42,9.78A.68.68,0,0,1,20.8,10.33ZM17,10,7.42,11.11l.24.48-.29.9,9.75-1.11a.67.67,0,0,0,.59-.75A.68.68,0,0,0,17,10Z"/><rect class="cls-2" width="24" height="24"/></g></g></svg>