<svg xmlns="http://www.w3.org/2000/svg" viewBox="0 0 130 130"><defs><style>.cls-1{fill:#e6e6e6;}.cls-2{fill:#64aadd;}.cls-3{fill:#606060;}.cls-4{fill:#fefefe;}.cls-5{fill:none;}</style></defs><g id="Layer_2" data-name="Layer 2"><g id="Layer_13" data-name="Layer 13"><path class="cls-1" d="M21.53,91.78C12.05,76.27,10.9,60,18.54,43.67c9.49-20.23,26.15-30.08,48.4-30a44.47,44.47,0,0,1,24.83,7.57c-.55,1.65-2.14,1.69-3.42,2.13A74.63,74.63,0,0,0,77,28.18c-2.29,1.25-3.53,2.54-1.48,5a1.48,1.48,0,0,1,.22,1.24c-3,2.67-6.94,3.37-10.32,5.25-1.69.94-2-.71-1.42-2a31.73,31.73,0,0,1,5.24-8.93c1.23-1.42,3.33-3.2,1.23-4.91-1.94-1.57-3.25.82-4.34,2.16a37.54,37.54,0,0,0-8.35,17.73A12.31,12.31,0,0,0,57.51,46c0,1.11.13,2.21,1.32,2.74a2.47,2.47,0,0,0,2.69-.64c1.25-1,2.49-2.1,3.83-3,4.86-3.34,10-6.13,16-6.77,3.11,1.31,6.11,2.77,8.13,5.65-3.32,6.12-7.74,11.46-12.21,16.7A146.91,146.91,0,0,1,47.62,87.11c-1.06.71-2,1.65-3.45,1.65-2.81-2.09-4.32-5.08-5.68-8.19,1.09-7,4.53-12.78,8.86-18.16.93-1.15,2.4-2.24,1.38-3.94s-2.66-1.2-4.14-1a37.84,37.84,0,0,0-18.9,8.81c-1.19,1-3.08,2.24-1.79,4,1.45,1.93,3.18.44,4.44-.72a32.3,32.3,0,0,1,8.8-5.45C38,63.71,39,63,39.79,64c.61.75.15,1.75-.38,2.41-2.14,2.59-2,6.44-4.8,8.66-5.37-1.76-4.48-.86-6.78,3.15-1.89,3.31-3,7-4.26,10.56C23.17,89.91,23.21,91.46,21.53,91.78Z"/><path class="cls-2" d="M21.53,91.78c2-5.11,3.53-10.41,6.19-15.26,2.5-4.56,2.89-4.68,6.76-1.56C36.87,76,38.1,78,38.9,80.38l5.34,8.11c2.06,1.69,2.81,4.2,4,6.43.46.72,1.59,1,1.39,2.17-.46,3,.16,6.21-1.23,9.12-1.06,2.17-2,4.42-4.42,5.49-5.75,4-11.75,5-17.8.88-5.45-3.71-6.91-9.13-5.74-15.41C20.79,95.37,21.17,93.57,21.53,91.78Z"/><path class="cls-2" d="M89.11,43.79l-8-5.18a8.29,8.29,0,0,1-5.5-4.38c-.19-.26-.35-.53-.56-.77-2.76-3.14-2.69-3.44,1-5.65C81,24.87,86.47,23.3,91.77,21.25c3.59-.59,7.12-2,10.81-1.6,10.91,1.14,16.46,12.68,10.69,22-.45.73-.93,1.44-1.4,2.16-1.12,2.58-3.62,3.32-5.87,4.38a15.87,15.87,0,0,1-9.33,0,5.28,5.28,0,0,1-1-.33C93.56,46.47,90.62,46.27,89.11,43.79Z"/><path class="cls-1" d="M106.26,47.46l5.61-3.62A51.28,51.28,0,0,1,44,111.71l3.75-5.58c1.25-.46,2.34.16,3.44.54,17.22,6,36.48-1.06,47.6-14.59,6.77-8.23,9.83-17.76,10.29-28.15A33.17,33.17,0,0,0,107,51.5C106.53,50.22,105.67,49,106.26,47.46Z"/><path class="cls-3" d="M89.11,43.79l6.73,3.49c.49,1.36-.45,2.27-1.07,3.24a118.15,118.15,0,0,1-15.21,19c-8.75,8.9-17.47,17.84-28.11,24.57-1.18.75-2.26,1.77-3.84,1.43l-3.37-7.06A152.68,152.68,0,0,0,87,46.63C87.62,45.65,88.39,44.74,89.11,43.79Z"/><path class="cls-3" d="M75.62,34.23l5.5,4.38C74,40.72,67.32,43.71,61.91,49a3.05,3.05,0,0,1-3.55.8,2.94,2.94,0,0,1-1.68-3.21c.48-9.23,4.69-16.74,10.8-23.34a2.6,2.6,0,0,1,4-.19c1.46,1.4,1.12,3-.09,4.33A38.38,38.38,0,0,0,63.8,39.93,74,74,0,0,1,75.62,34.23Z"/><path class="cls-3" d="M38.9,80.38,34.48,75c1.67-3.58,3-7.31,5.78-11.33a35.84,35.84,0,0,0-11.15,6.29c-.58.48-1.11,1-1.72,1.49-1.35,1-2.81,1.33-4.1,0s-1.1-3,.29-4.28c6.4-5.85,13.67-9.91,22.51-10.6,1.57-.12,3.13-.06,3.88,1.66s-.13,2.85-1.25,4C43.8,67.38,41,73.7,38.9,80.38Z"/><path class="cls-3" d="M106.26,47.46c8.82,19.21.67,43.91-18.48,55.32-12.72,7.59-26.09,9.46-40,3.35.61-2.57,1.31-5.12.57-7.79-.21-.76-.21-1.49.8-1.72a3.88,3.88,0,0,1,2.48-.57,37.68,37.68,0,0,0,22.64-7.81c10.83-8,19.2-17.8,21.59-31.63a29.79,29.79,0,0,0,.24-7.12c0-.71-.35-1.53.49-2.05A18.59,18.59,0,0,0,106.26,47.46Z"/><path class="cls-4" d="M96.55,47.44a27.23,27.23,0,0,1-1.55,16c-7.35,17.12-19.32,29.09-38.11,33.1a23.08,23.08,0,0,1-7.78.1c-.35-.56-1.34-.23-1.5-1.07A156.13,156.13,0,0,0,95.84,47.28Z"/><rect class="cls-5" width="130" height="130"/></g></g></svg>