<svg xmlns="http://www.w3.org/2000/svg" viewBox="0 0 130 130"><defs><style>.cls-1{fill:#e6e6e6;}.cls-2{fill:#e8586d;}.cls-3{fill:#fff;}.cls-4{fill:#606060;}.cls-5{fill:#dd2b43;}.cls-6{fill:none;}</style></defs><g id="Layer_2" data-name="Layer 2"><g id="Layer_13" data-name="Layer 13"><path class="cls-1" d="M59.91,115.81c-15.47-1.29-27.64-8.58-36.56-21C.48,63,20.27,18.58,59.23,14A51.32,51.32,0,0,1,73.47,115.64a26.84,26.84,0,0,1-3.24.17c0-1.48,1.27-1.61,2.16-2,6.08-2.87,8.59-7.89,8.76-14.34,0-1.73-.11-3.5,1.18-4.92,3.87-3,7.72-5.93,10.15-10.35a30.12,30.12,0,0,0,2.59-6.28c.51-1.79-.13-2.47-1.95-2.06-3.49.77-7,1.25-10.58,1.69A140.39,140.39,0,0,1,37.69,76c-3-.58-3.27-.2-2.38,2.8,1.89,6.31,6,10.92,11.23,14.68a8.76,8.76,0,0,1,1.24,1C49,95.82,49,97.46,49,99.09c.08,6.74,2.67,11.93,9.06,14.83C58.85,114.29,60,114.48,59.91,115.81Z"/><path class="cls-2" d="M82.56,95c-.73,1.31-.49,2.74-.5,4.13-.07,7.88-3.54,13-10.75,16a9.88,9.88,0,0,0-1.08.64,26,26,0,0,1-10.32,0c-6-2.32-10.21-6.25-11.61-12.78-.57-2.65.35-5.42-.73-8-.87-4.5-.39-9-.33-13.55,0-2.22,1.39-3,3.48-2.71,3.42.48,6.86.8,10.29,1.13,2.92.47,3.77,2.35,3.75,5.09-.05,5.5-.08,11,.3,16.51a63.86,63.86,0,0,0,.32-8.3c0-2.26,0-4.53,0-6.8,0-5.29,0-5.3,5-6.51,3.11-.27,6.22-.68,9.32-1,2-.24,3.16.64,3.19,2.65C82.94,86,83.42,90.54,82.56,95Z"/><path class="cls-3" d="M83.66,33.64a18.43,18.43,0,0,1,18.49,18.64,18.54,18.54,0,0,1-37.08-.12A18.35,18.35,0,0,1,83.66,33.64Z"/><path class="cls-4" d="M82.56,95c-1-4.25-.31-8.56-.44-12.84-.05-2-.16-3-2.65-2.41a80.08,80.08,0,0,1-9.31,1,37.77,37.77,0,0,1-8.89,0c-3.65-.38-7.33-.61-10.94-1.21-1.85-.31-2.33.15-2.3,1.87.06,3.47,0,6.93,0,10.4,0,1,.31,2.18-.46,3.13C40.8,90.94,36,85.34,34,77.54c-.57-2.24-.38-3.38,2.54-2.75a137.59,137.59,0,0,0,57.08,0c3-.62,3.08.59,2.52,2.77C94.15,85.36,89.37,91,82.56,95Z"/><path class="cls-4" d="M45,49.35c5,0,10.79,4,12.55,8.85.27.75.56,1.47-.19,2s-1.63.23-2.43-.15a22.29,22.29,0,0,0-15.15-1.6,36.05,36.05,0,0,0-4.85,1.75c-.73.27-1.46.56-2.11-.07s-.39-1.37-.12-2.1C34.37,53.46,40.11,49.39,45,49.35Z"/><path class="cls-5" d="M61.27,80.83h8.89c-3.34.08-4,1.85-3.85,5,.3,5.3.09,10.62.07,15.93,0,1.05.24,2.55-1.17,2.64-1.77.11-1.45-1.54-1.46-2.66,0-5.86-.11-11.71,0-17.56C63.84,82.12,63.16,81.14,61.27,80.83Z"/><path class="cls-4" d="M83.63,59.22a7,7,0,0,1-7.14-6.88,7.09,7.09,0,1,1,14.18-.08A6.92,6.92,0,0,1,83.63,59.22Z"/><rect class="cls-6" width="130" height="130"/></g></g></svg>