<svg xmlns="http://www.w3.org/2000/svg" viewBox="0 0 130 130"><defs><style>.cls-1{fill:#e6e6e6;}.cls-2{fill:#292f33;}.cls-3{fill:#606060;}.cls-4{fill:none;}</style></defs><g id="Layer_2" data-name="Layer 2"><g id="Layer_13" data-name="Layer 13"><path class="cls-1" d="M116.43,58.27V72.36c-1,3-.52,6.13-1.56,9.06-6.16,17.31-18,28.82-35.69,33.68-7.61,2.09-15.66,1.61-23.51.69-14.13-1.65-24.62-9.41-33-20.41-6.45-8.45-9.24-18.07-9.09-28.67a111.13,111.13,0,0,1,.74-14c.4-2.78.58-5.81,3.39-7.58,3.43-.1,4.86,2.24,5.82,5C24.62,53.19,25,56.5,26,59.66c1.85,5.81,4.08,7.51,10.24,7.57,3,0,6,0,9,0,5.66-.07,9.44-2.76,11.38-8.09.87-2.41,1.54-4.88,2.17-7.36q1.56-6.14,6.71-6.05c3.16.06,5.27,2.09,6.33,6.12a56.78,56.78,0,0,0,2.36,8c2.08,4.84,5.77,7.24,10.94,7.4,3.41.11,6.83.08,10.24,0,4.15-.09,7-1.92,8.53-6,1.18-3.22,1.8-6.57,2.65-9.87,1.08-4.18,2.79-5.86,6.14-6.25,2,1.09,2.37,3.12,2.76,5.07C116,52.86,115.81,55.62,116.43,58.27Z"/><path class="cls-1" d="M20.54,39.66c7.51-13.21,18.73-21.45,33.46-25,1.2-.29,2.58-.11,3.49-1.22H72.23C83.5,13.9,92.69,19,101,26.25a45.4,45.4,0,0,1,8.55,10.63c.69,1.12,1.6,2.47-.15,3.59-2.11,1-4.19,0-6.29,0-8.94-.27-17.89-.16-26.71,1.37a74,74,0,0,1-24.08-.27,110.66,110.66,0,0,0-27.34-.77C23.34,40.93,21.72,41.16,20.54,39.66Z"/><path class="cls-2" d="M109.82,39.65c4.07,1.24,4.45,2,2.75,5.73a9,9,0,0,0-5.08,7.22A41.47,41.47,0,0,1,104.55,63a8,8,0,0,1-6.41,5.15,46.45,46.45,0,0,1-17.78-.45C77,67,75,64.47,73.46,61.52a37.77,37.77,0,0,1-3.14-10.69c-.52-2.89-2.4-3.91-5-3.95s-4.69,1-5.23,4A37.47,37.47,0,0,1,57,61.61c-1.86,3.64-4.6,6-8.82,6.57a63.12,63.12,0,0,1-14.34.29,9.15,9.15,0,0,1-8.44-6.69,49.9,49.9,0,0,1-2.42-9.26,9,9,0,0,0-5.12-7.2c-1.6-3.66-1.23-4.41,2.72-5.66A157.13,157.13,0,0,1,58.8,41c5.93,1,11.88.23,17.83-.68A142.81,142.81,0,0,1,109.82,39.65Z"/><path class="cls-3" d="M65.16,97.44C54.42,97.23,46,92.52,39.48,84.1c-.67-.87-1.88-1.86-.88-3.06s2.14-.15,3.09.44q23.49,14.68,47,0c.94-.59,2-1.72,3.09-.48s-.17,2.19-.84,3.06C84.41,92.51,76,97.23,65.16,97.44Z"/><rect class="cls-4" width="130" height="130"/></g></g></svg>