<svg xmlns="http://www.w3.org/2000/svg" viewBox="0 0 130 130"><defs><style>.cls-1{fill:#e6e6e6;}.cls-2{fill:#606060;}.cls-3{fill:none;}</style></defs><g id="Layer_2" data-name="Layer 2"><g id="Layer_13" data-name="Layer 13"><path class="cls-1" d="M12.64,73V57.37c1-5.73,1.52-11.51,4.48-16.78,7.27-13,17.54-22.31,32-26.42,6.91-2,14.17-1.42,21.33-1.39,12.34.06,22.53,5.35,31.14,13.54,8.07,7.68,14,16.83,15.07,28.38.94,10.29,1.67,20.64-2.27,30.48C108.41,100,97.65,110,82.76,115.6c-3.43,1.29-7.24,1-10.83,1.71h-15c-3.2-1-6.64-.56-9.83-1.7-16-5.71-26.75-16.7-32.76-32.45C13.11,79.92,13.63,76.32,12.64,73Z"/><path class="cls-2" d="M64.81,95.61A16.35,16.35,0,0,1,49.34,84.26c-.26-.82-.67-1.7,0-2.46.86-1,1.74-.21,2.64.11a37.91,37.91,0,0,0,25.46,0c.9-.31,1.77-1.11,2.66-.22s.32,1.83,0,2.74A16.26,16.26,0,0,1,64.81,95.61Z"/><path class="cls-2" d="M53.13,60.85a11.15,11.15,0,0,1-2.86,8c-2.59,2.74-5.9,2.76-8.56.11-4-4-4-12.34,0-16.32a5.59,5.59,0,0,1,8.58.13A11.13,11.13,0,0,1,53.13,60.85Z"/><path class="cls-2" d="M95.06,64.94c-.13,1.57-1,1.91-2.42,1.25a23.22,23.22,0,0,0-21,0,1.63,1.63,0,0,1-1.83,0,1.56,1.56,0,0,1-.43-1.77c.94-4.31,7.69-9.34,12.64-9.39s12,5,12.93,9.45C95,64.61,95,64.72,95.06,64.94Z"/><path class="cls-2" d="M99.4,52.34a2.64,2.64,0,0,1-1.6,2.6,2.61,2.61,0,0,1-3.25-.62,50.55,50.55,0,0,0-3.66-3.66C86.23,47,80.79,45.93,75,46.4c-2.11.17-4.14.11-4.32-2.58-.16-2.43,1.79-3,3.71-3.18,9-.75,16.94,1.51,23.19,8.37C98.45,50,99.39,50.91,99.4,52.34Z"/><path class="cls-2" d="M49.42,31.81c1.84-.06,3.37.46,3.62,2.47.26,2.18-1.15,3.13-3.12,3.33-7.11.7-12.6,4.25-17,9.66-1.32,1.61-2.83,2.58-4.68,1.07s-1.18-3.05,0-4.57C33.73,37,40.69,32.81,49.42,31.81Z"/><rect class="cls-3" width="130" height="130"/></g></g></svg>