<svg xmlns="http://www.w3.org/2000/svg" viewBox="0 0 130 130"><defs><style>.cls-1{fill:#e6e6e6;}.cls-2{fill:#606060;}.cls-3{fill:none;}</style></defs><g id="Layer_2" data-name="Layer 2"><g id="Layer_13" data-name="Layer 13"><path class="cls-1" d="M57.39,12.81H72.31c6,.79,11.88,1.45,17.32,4.46C101.41,23.78,110,33,114.91,45.6c1.6,4.07,1.3,8.44,2.18,12.63V72.5c-.94,5.72-1.56,11.48-4.48,16.72-7.22,12.92-17.44,22.31-31.82,26.3-8.27,2.29-16.91,1.84-25.42,1-14.15-1.47-24.51-9.27-33-20.09-6.85-8.7-9.59-18.66-9.42-29.61.12-7.66-.17-15.38,3-22.6,6.24-14.1,16.42-24.1,31-29.49C50.34,13.43,54,13.85,57.39,12.81Z"/><path class="cls-2" d="M76.76,85c-.24,4.52-1.51,8.56-4.94,11.66a9.7,9.7,0,0,1-13.26,0C52,90.89,52,79,58.53,73.15A9.66,9.66,0,0,1,72,73.34C75.39,76.51,76.58,80.56,76.76,85Z"/><path class="cls-2" d="M55,50.91c0,6.51-3.1,10.83-7.11,10.85s-7.25-4.43-7.2-9.92a15.15,15.15,0,0,1,.72-4.43c1.15-3.62,3.78-5.8,6.59-5.72s5.36,2.38,6.42,6A23.13,23.13,0,0,1,55,50.91Z"/><path class="cls-2" d="M75.36,51.8a11.19,11.19,0,0,1,2.33-7.54c2.77-3.43,6.89-3.41,9.62,0,3.12,3.93,3.16,10.83.08,14.82-2.68,3.48-6.81,3.6-9.62.23A11,11,0,0,1,75.36,51.8Z"/><rect class="cls-3" width="130" height="130"/></g></g></svg>