<svg xmlns="http://www.w3.org/2000/svg" viewBox="0 0 130 130"><defs><style>.cls-1{fill:#e6e6e6;}.cls-2{fill:#606060;}.cls-3{fill:none;}</style></defs><g id="Layer_2" data-name="Layer 2"><g id="Layer_13" data-name="Layer 13"><path class="cls-1" d="M65.26,12.58c28.77.05,52.22,23.74,52.16,52.68,0,28.77-23.73,52.21-52.68,52.16C36,117.37,12.53,93.7,12.58,64.74,12.63,36,36.31,12.52,65.26,12.58Z"/><path class="cls-2" d="M50.08,58.57c1.73.18,3.46.33,5.17.55,1.87.24,3.92.51,4.08,2.91.21,2.9.57,6-2.43,7.93a5.5,5.5,0,0,1-6.42,0,4.46,4.46,0,0,1-2.25-3.07c-.32-2.63-1.86-2.36-3.73-1.93a21.62,21.62,0,0,0-6.07,2.28c-1.69,1-3.39,1.25-4.54-.64-1.3-2.12.08-3.47,1.8-4.47A28.34,28.34,0,0,1,50.08,58.57Z"/><path class="cls-2" d="M84.71,58.57c1.73.17,3.46.26,5.17.53,4.11.65,4.6,1.43,4.31,6.35a5.62,5.62,0,0,1-5.39,5.49C85.86,71,83.62,69.6,83,66.71c-.46-2.17-1.48-2.22-3.17-1.86a22.23,22.23,0,0,0-6.7,2.46c-1.71,1-3.41,1.14-4.49-.79s0-3.29,1.69-4.27A28.21,28.21,0,0,1,84.71,58.57Z"/><path class="cls-2" d="M46.83,42c2.26,0,3.72.68,3.85,2.65s-1.12,2.88-3,3.09a25,25,0,0,0-17.11,9.64c-1.28,1.57-2.75,2.78-4.67,1.28s-1.25-3.22.06-4.83C31.46,47.07,38.44,42.93,46.83,42Z"/><path class="cls-2" d="M84.21,42.08c8.34,1,15.36,5.3,20.8,12.31,1.16,1.49,1.25,3.08-.32,4.3s-3.07.67-4.24-.79c-4.61-5.76-10.39-9.43-17.85-10.18a2.68,2.68,0,0,1-2.71-3C80.08,42.52,81.69,41.92,84.21,42.08Z"/><path class="cls-2" d="M62,92.71H51.59c-1,0-2.08-.17-2-1.53.07-1.12,1-1.26,1.92-1.29,1.31-.06,2.61-.16,3.91-.15,9,.1,17-3,24.67-7.43,1-.6,2.31-1.82,3.52-.54s0,2.48-.63,3.54C80.3,90,76.41,92.74,70.84,92.71Z"/><rect class="cls-3" width="130" height="130"/></g></g></svg>