<svg xmlns="http://www.w3.org/2000/svg" viewBox="0 0 130 130"><defs><style>.cls-1{fill:#e6e6e6;}.cls-2{fill:#bfbebe;}.cls-3{fill:#606060;}.cls-4{fill:none;}</style></defs><g id="Layer_2" data-name="Layer 2"><g id="Layer_13" data-name="Layer 13"><path class="cls-1" d="M30.34,95.8A43.4,43.4,0,0,1,16.86,67.68c-2.6-26.2,14-48.16,39.73-53.19,28.26-5.52,55.83,17,56.79,45.79.89,26.45-19.64,49.32-46.46,50.36-1.49-1.85-2.09-3.76-.41-5.86a91.18,91.18,0,0,0,.9-12.13c-1.42-2.42-.06-3.33,2-3.88,2.42-.62,4.83-1.28,7.28-1.75,1-.19,1.91-.39,2.86-.64,3.42-.91,4.83-2.28,4.4-4.23s-2.18-2.59-5.73-1.8C70.11,82.18,62,84.08,53.84,86c-.53.12-1.06.27-1.59.36-1.07.19-2.23.47-3-.54s-.2-2.06.39-3c2.82-4.47,1.85-8.92-.07-13.35a6.22,6.22,0,0,0-1.3-1.87C47,66.32,45.58,65.05,43.7,66s-1.14,2.61-.9,4.08c.87,5.39-.13,10-4.65,13.68a18.25,18.25,0,0,0-6.63,10.19A2.67,2.67,0,0,1,30.34,95.8Z"/><path class="cls-2" d="M30.34,95.8C30.83,90.23,33.9,86,38,82.7c4.5-3.63,4.82-8.11,3.79-13.15-.33-1.59-.86-3.25.88-4.41s3.54-.4,5.08.67c4.13,2.86,6.33,13.27,2.64,17.41-.57.63-1.44,1.34-.76,2.22s1.57.28,2.42.08c9.15-2.12,18.32-4.13,27.44-6.37,2.72-.67,4.58-.08,5.42,2.51.9,2.77-.7,4.34-3.22,5-4.17,1.1-8.36,2.15-12.57,3.07-1.74.38-2.53.81-1,2.37.15.15.35.33.37.52.13.84.62,2.11.24,2.48-3.21,3.15,1.55,7.65-1.83,10.57-2.09,1.8.89,3.33,0,5a7.38,7.38,0,0,1-5.2,3.54c-3.72.71-7.41,1.8-11.16,2.11-9,.74-17.55-6.15-19.43-15.36C30.78,99.24,30.6,97.51,30.34,95.8Z"/><path class="cls-3" d="M85.85,41.59c3.48,3.49,4.14,7,2.42,10.86A5.42,5.42,0,0,1,83,56.05c-2.79,0-4.37-1.8-5.25-4.14a9.73,9.73,0,0,1,1.36-9.22c-.57-.5-1.06-.21-1.57-.06-1.8.54-3.38.22-3.86-1.76s1.07-2.62,2.6-3.07a27.11,27.11,0,0,1,19.62,1.29c1.63.75,3.35,1.72,2.28,3.88s-2.67,1.16-4.2.46A17.81,17.81,0,0,0,85.85,41.59Z"/><path class="cls-3" d="M57.08,45.55c0,4.06-2.77,7.62-6,7.62S45,49.74,44.94,45.65s2.69-7.49,6.05-7.51S57,41.28,57.08,45.55Z"/><path class="cls-3" d="M62.39,68.75a26.56,26.56,0,0,1,14.17,4c1.48.89,2.87,2,1.81,3.89s-2.6,1.19-4.14.26A21.53,21.53,0,0,0,58.36,74c-1.84.38-3.7.37-4.13-1.89-.47-2.47,1.64-2.73,3.31-3S60.77,68.86,62.39,68.75Z"/><path class="cls-3" d="M51.53,25.23a24.36,24.36,0,0,1,9.83,1.87c1.51.61,2.85,1.51,2.25,3.37s-2.29,1.7-3.78,1.11a22.17,22.17,0,0,0-16.49,0c-1.74.65-3.63.93-4.34-1.28s1.1-2.79,2.67-3.36A25.93,25.93,0,0,1,51.53,25.23Z"/><rect class="cls-4" width="130" height="130"/></g></g></svg>