<svg xmlns="http://www.w3.org/2000/svg" viewBox="0 0 130 130"><defs><style>.cls-1{fill:#e6e6e6;}.cls-2{fill:#606060;}.cls-3{fill:#f5f3ef;}.cls-4{fill:#f9f8f6;}.cls-5{fill:#fbfbfa;}.cls-6{fill:#fbfaf8;}.cls-7{fill:#faf9f7;}.cls-8{fill:#fbfaf9;}.cls-9{fill:none;}</style></defs><g id="Layer_2" data-name="Layer 2"><g id="Layer_13" data-name="Layer 13"><path class="cls-1" d="M65,12A53,53,0,1,1,12,65.07,53.19,53.19,0,0,1,65,12Z"/><path class="cls-2" d="M65,100.17c-6.83,0-13.65.07-20.48,0-8.6-.1-14.69-6.19-14.7-14.55A14.32,14.32,0,0,1,44.51,71Q65,70.87,85.46,71c8.48.05,14.7,6.31,14.7,14.61s-6.07,14.48-14.66,14.59C78.67,100.24,71.85,100.17,65,100.17Z"/><path class="cls-2" d="M40.07,51.6c0-5.64,3.24-10.06,7.29-10.08s7.52,4.86,7.4,10.4S51.28,62,47.37,62.08,40,57.37,40.07,51.6Z"/><path class="cls-2" d="M89.93,51.71a11.33,11.33,0,0,1-1.86,6.91c-2.8,4.43-7.85,4.63-10.66.26A12.38,12.38,0,0,1,77,45.22c3-5.09,8.55-4.91,11.42.26A11.6,11.6,0,0,1,89.93,51.71Z"/><path class="cls-3" d="M65,76.71c4.08,0,5.84,2.77,4.39,6.43a1.42,1.42,0,0,1-1.54,1c-1.12,0-2.24.09-3.35,0-1.28-.12-3.1.71-3.7-.63a7.9,7.9,0,0,1-.08-5.89C61.52,75.69,63.77,77.14,65,76.71Z"/><path class="cls-4" d="M64.48,94.46c-2,.23-4.43.52-4-3.62.44-4.46-.55-3.6,5.09-3.82,2.73-.11,4.31.2,4,3.62C69.2,94.43,69.47,94.46,64.48,94.46Z"/><path class="cls-5" d="M53,94.34c-3.11.76-4.2-.2-4.32-3.82C48.53,86,51.21,87.29,53.54,87c2.91-.31,4.22.19,4.27,3.75C57.88,94.88,55.84,94.75,53,94.34Z"/><path class="cls-5" d="M77.15,94.45c-4.4,0-6.23-2.8-4.76-6.54a1.16,1.16,0,0,1,1.24-.82c.89,0,1.78,0,2.68,0,5,0,5.86,1,4.84,6C80.52,96.09,78,93.34,77.15,94.45Z"/><path class="cls-6" d="M53.26,84c-2.75.44-4.53.4-4.62-3.59-.08-4.23,2.1-3.63,4.7-3.73,2.92-.12,4.54.07,4.49,3.94S55.89,84.35,53.26,84Z"/><path class="cls-6" d="M77.07,84.22c-1.72-.39-3.86.59-4.35-.68-.68-1.74-.3-3.91-.29-5.9,0-.67.61-.85,1.19-.87.89,0,1.78,0,2.67,0,5.06,0,5.89,1,4.85,6C80.53,85.66,78,83,77.07,84.22Z"/><path class="cls-7" d="M40.81,87.06a8.45,8.45,0,0,1,1.27,0c1.24.23,3.2-.75,3.62.69.53,1.84.22,4,.09,5.95-.06.82-1,.76-1.65.72A8.59,8.59,0,0,1,39.74,93c-1.88-1.29-4.05-3-3.46-5.24C36.72,86.12,39.43,87.47,40.81,87.06Z"/><path class="cls-7" d="M89.21,87c1.53.51,4-.88,4.51.74.63,2.1-1.45,3.74-3.12,5.08a4,4,0,0,1-1.15.67c-1.64.6-3.78,1.94-4.94.48s-1-4.32-.2-6.1S87.54,87.49,89.21,87Z"/><path class="cls-8" d="M40.7,84.17c-1.48-.55-3.89,1-4.43-.83-.59-1.94,1.37-3.55,2.93-4.83a6,6,0,0,1,1.72-1c1.54-.54,3.62-1.67,4.6-.25,1.13,1.65,1,4.31.11,6.06S42.39,83.69,40.7,84.17Z"/><path class="cls-8" d="M89.43,84.09H88.5c-4.06,0-5.85-2.66-4.4-6.42.38-1,1.11-1,1.87-.9a8.34,8.34,0,0,1,4.65,1.61c1.69,1.31,3.73,3,3.07,5.06C93.19,85,90.71,83.69,89.43,84.09Z"/><rect class="cls-9" width="130" height="130"/></g></g></svg>