<svg xmlns="http://www.w3.org/2000/svg" viewBox="0 0 130 130"><defs><style>.cls-1{fill:#e6e6e6;}.cls-2{fill:#606060;}.cls-3{fill:none;}</style></defs><g id="Layer_2" data-name="Layer 2"><g id="Layer_13" data-name="Layer 13"><path class="cls-1" d="M65.05,118a53,53,0,1,1,53-53A53.12,53.12,0,0,1,65.05,118Z"/><path class="cls-2" d="M82.56,87.11c-.3,2-1.46,2-2.91,1.36-8-3.58-16.35-3-24.69-1.68a18.37,18.37,0,0,0-4.11,1.42c-1,.41-2,1.2-3,.12-.77-.86-.27-1.81,0-2.73C50.62,77.83,57.51,72.8,65.28,73A18.23,18.23,0,0,1,82.14,85.77C82.29,86.23,82.43,86.69,82.56,87.11Z"/><path class="cls-2" d="M44.37,44.29c4.43.24,8.48,2.92,11.94,6.75.64.7,1,1.53.34,2.29s-1.77.61-2.72.39c-6.24-1.44-12.07,0-17.63,2.73a28.71,28.71,0,0,0-4.17,2.92c-.71.53-1.36,1.06-2.28.5s-.76-1.43-.68-2.28C29.8,50.72,36.75,44.25,44.37,44.29Z"/><path class="cls-2" d="M85.75,44.28c7.62,0,14.7,6.76,15.11,13.44.06.87.12,1.74-.83,2.21s-1.58-.12-2.26-.67a25.51,25.51,0,0,0-21.83-5.51c-1,.18-2,.48-2.65-.54-.74-1.23.26-2,1-2.8C77.67,46.83,81.64,44.46,85.75,44.28Z"/><rect class="cls-3" width="130" height="130"/></g></g></svg>