<svg xmlns="http://www.w3.org/2000/svg" viewBox="0 0 130 130"><defs><style>.cls-1{fill:#e6e6e6;}.cls-2{fill:#606060;}.cls-3{fill:none;}</style></defs><g id="Layer_2" data-name="Layer 2"><g id="Layer_13" data-name="Layer 13"><path class="cls-1" d="M118.26,57.9V73.14c-.91,5.83-1.64,11.67-4.57,17-6.68,12.15-16.28,20.91-29.2,26-3.82,1.49-8,1.22-11.92,2.06H57.33c-5.83-1-11.71-1.58-17.06-4.57-13.19-7.37-22.81-17.79-26.83-32.48-2.3-8.42-1.89-17.25-1-25.94C13.93,40.7,22,30.24,32.94,21.46c11.3-9.08,24.48-9.93,38.18-9.56,12.56.33,22.88,5.54,31.63,13.85s14.74,18.1,15.18,30.59C118,56.88,117.84,57.45,118.26,57.9Z"/><path class="cls-2" d="M53.46,60.69c0,3.26-.79,6.17-3.12,8.48a5.57,5.57,0,0,1-8.23.15c-4.38-4-4.4-13,0-17.06a5.62,5.62,0,0,1,8.25.09A11.16,11.16,0,0,1,53.46,60.69Z"/><path class="cls-2" d="M91.74,60.62a11.94,11.94,0,0,1-1.33,6C89.12,69.14,87.32,71,84.32,71s-4.65-1.85-5.82-4.21a13,13,0,0,1,0-12.07c1.18-2.38,3-4.13,5.83-4.18s4.65,1.73,5.93,4A11.67,11.67,0,0,1,91.74,60.62Z"/><path class="cls-2" d="M49.08,93a9.27,9.27,0,0,1,4.5-5.25c8.58-5.25,17.93-6.45,27.71-4.92,1.76.28,4.44.63,4.17,2.85-.22,1.78-2.8,1.11-4.34,1.13-7.5.11-15,0-22.31,2.21A78,78,0,0,0,49.08,93Z"/><rect class="cls-3" width="130" height="130"/></g></g></svg>