<svg xmlns="http://www.w3.org/2000/svg" viewBox="0 0 130 130"><defs><style>.cls-1{fill:#e6e6e6;}.cls-2{fill:#606060;}.cls-3{fill:none;}</style></defs><g id="Layer_2" data-name="Layer 2"><g id="Layer_13" data-name="Layer 13"><path class="cls-1" d="M65.26,11.61c29.3.05,53.19,24.18,53.13,53.66,0,29.3-24.17,53.17-53.66,53.12-29.3,0-53.17-24.16-53.12-53.65C11.66,35.44,35.78,11.55,65.26,11.61Z"/><path class="cls-2" d="M50.58,75.37c-5.17.07-11.66-4.53-13.23-9.37-.21-.66-.41-1.31.1-1.89s1.36-.58,2.12-.22a23.81,23.81,0,0,0,21.62,0c.74-.35,1.47-.54,2.13.19s.33,1.2.11,1.87C61.89,70.71,55.64,75.29,50.58,75.37Z"/><path class="cls-2" d="M80.23,75.37c-5.09,0-11.08-4.21-13-9.19-.29-.76-.62-1.48.09-2.15s1.63-.31,2.44.09a24.21,24.21,0,0,0,16.66,1.53A28.5,28.5,0,0,0,90.78,64c.74-.31,1.45-.67,2.18,0s.49,1.37.22,2.14C91.49,70.91,85.33,75.33,80.23,75.37Z"/><path class="cls-2" d="M30.32,53c-2,.13-3.42-.65-3.65-2.63s1.09-3.11,3-3.29c7.45-.7,13.19-4.38,17.82-10,1.36-1.67,3-2.6,4.82-1s1,3.2-.19,4.72C46.47,47.75,39.31,52,30.32,53Z"/><path class="cls-2" d="M99.84,53A31.6,31.6,0,0,1,78,40.17c-1.07-1.41-1.17-3,.27-4.17s3.16-.93,4.38.58c4.82,6,10.78,9.85,18.61,10.57a2.72,2.72,0,0,1,2.6,3.28C103.54,52.6,101.88,53.18,99.84,53Z"/><path class="cls-2" d="M65.35,88.85h11c2,0,3.65.6,3.66,2.9s-1.6,2.94-3.63,2.93q-11.18,0-22.36,0c-2.06,0-3.59-.79-3.5-3.06.07-2.08,1.56-2.77,3.46-2.76Z"/><rect class="cls-3" width="130" height="130"/></g></g></svg>