<svg xmlns="http://www.w3.org/2000/svg" viewBox="0 0 130 130"><defs><style>.cls-1{fill:#e6e6e6;}.cls-2{fill:#5daceb;}.cls-3{fill:#606060;}.cls-4{fill:#fefefd;}.cls-5{fill:none;}</style></defs><g id="Layer_2" data-name="Layer 2"><g id="Layer_13" data-name="Layer 13"><circle class="cls-1" cx="65" cy="65" r="55.29"/><path class="cls-2" d="M41.55,99.52a17.49,17.49,0,0,1-11.41,8.23c-10.49-.23-16.7-5.17-17.68-14-.3-2.71.48-5.22,1.21-7.76A87.87,87.87,0,0,1,33.08,63.32c2.89-1.63,3.22-1.5,4.13,1.53l3.36,9.86A9.11,9.11,0,0,1,43,81.14c.48,2,1.24,3.86,1.16,5.92.4,3.15.83,6.29-.21,9.42C43.52,97.82,43.05,99.06,41.55,99.52Z"/><path class="cls-2" d="M115.52,86.08c4.29,11.78-4,22.78-16.46,21.67a17.54,17.54,0,0,1-11.43-8.17C85,98.35,85,95.78,84.68,93.46A25.09,25.09,0,0,1,85,87c0-2,.76-3.93,1.22-5.87a8.26,8.26,0,0,1,2.38-6.39L92,64.85c.9-3,1.39-3.19,4.2-1.49A87.87,87.87,0,0,1,115.52,86.08Z"/><path class="cls-3" d="M88.59,74.73l-1.44,6.68c-2.23,2.85-5.63,2.28-8.56,2.65a123.59,123.59,0,0,1-32.09-.51A6.73,6.73,0,0,1,42,81.4l-1.44-6.69A124.55,124.55,0,0,0,88.59,74.73Z"/><path class="cls-3" d="M45.5,34.23c2-.1,3.26.66,3.61,2.36s-.58,2.84-2.14,3.46c-2.13.85-4.35,1.52-6.4,2.54A26.14,26.14,0,0,0,28.26,55.14c-1,2.07-2,4.37-4.76,3.09-3-1.39-1.75-3.8-.71-5.91,4.39-9,11.6-14.65,21-17.71A13.26,13.26,0,0,1,45.5,34.23Z"/><path class="cls-3" d="M84.31,34.27c1.2.42,3.19,1,5.07,1.83A33.2,33.2,0,0,1,106.9,53.33c.9,2,1.08,3.93-1.24,5-2.15.95-3.46-.39-4.3-2.26-3.62-8.08-9.86-13.1-18.21-15.65-1.93-.59-3.49-1.53-3-3.86C80.49,34.81,81.77,34.1,84.31,34.27Z"/><path class="cls-3" d="M37.21,64.85c-1-1.65-2.11-2.75-4.13-1.53,2.77-5.32,6.73-9.13,13.05-9.23,5.91-.1,9.73,3.49,12.69,8.18.63,1,1.7,2.17.6,3.42s-2.1.09-3.09-.34A25.32,25.32,0,0,0,37.21,64.85Z"/><path class="cls-3" d="M96.16,63.36c-2-1.23-3.25-.26-4.2,1.49a25,25,0,0,0-19.42.68c-.93.43-1.88,1.18-2.79.13s-.19-2,.33-2.84C73,58,76.76,54.15,82.8,54.09,89.28,54,93.34,57.9,96.16,63.36Z"/><path class="cls-3" d="M86.23,86.58c-.08,4.39-.57,8.83,1.4,13-14.17,11-32.26,11-46.08-.07,2-4.19,1.47-8.64,1.36-13.05,1.43-.67,2.69,0,3.92.58a41.15,41.15,0,0,0,35.48,0C83.54,86.54,84.8,85.84,86.23,86.58Z"/><path class="cls-4" d="M86.23,86.58c-14.46,8-28.9,8.11-43.32-.12L42,81.4a141,141,0,0,0,45.14,0C86.84,83.13,86.53,84.86,86.23,86.58Z"/><rect class="cls-5" width="130" height="130"/></g></g></svg>