<svg xmlns="http://www.w3.org/2000/svg" viewBox="0 0 130 130"><defs><style>.cls-1{fill:#e6e6e6;}.cls-2{fill:#606060;}.cls-3{fill:none;}</style></defs><g id="Layer_2" data-name="Layer 2"><g id="Layer_13" data-name="Layer 13"><path class="cls-1" d="M65.26,11.61c29.3.05,53.19,24.18,53.13,53.66,0,29.3-24.17,53.17-53.66,53.12-29.3,0-53.17-24.16-53.12-53.65C11.66,35.44,35.78,11.55,65.26,11.61Z"/><path class="cls-2" d="M65.3,77c10.94.21,19.56,5.15,26.21,13.81.67.88,1.92,1.93.69,3.13s-2.22,0-3.19-.65q-24-14.93-48,0c-1,.6-2.05,1.82-3.19.69-1.36-1.34.1-2.45.83-3.38C45.38,82,54.05,77.13,65.3,77Z"/><path class="cls-2" d="M53.24,55.22c0,5.67-3.25,10.09-7.3,10s-7.22-4.55-7.23-10.15S41.87,45,45.88,44.91,53.28,49.37,53.24,55.22Z"/><path class="cls-2" d="M76.76,55.14c0-5.67,3.09-10.14,7.11-10.23s7.46,4.5,7.42,10.29c0,5.61-3.29,10.09-7.31,10.07S76.77,60.8,76.76,55.14Z"/><rect class="cls-3" width="130" height="130"/></g></g></svg>