<svg xmlns="http://www.w3.org/2000/svg" viewBox="0 0 130 130"><defs><style>.cls-1{fill:#e6e6e6;}.cls-2{fill:#606060;}.cls-3{fill:#fefefe;}.cls-4{fill:#bfbebe;}.cls-5{fill:#f7f5f3;}.cls-6{fill:#f8f7f5;}.cls-7{fill:none;}</style></defs><g id="Layer_2" data-name="Layer 2"><g id="Layer_13" data-name="Layer 13"><path class="cls-1" d="M65.05,118a53,53,0,1,1,53-53A53.12,53.12,0,0,1,65.05,118Z"/><path class="cls-2" d="M32.56,43.59c4.55-4.25,9.62-7.66,15.72-9.21,6.53-1.66,10.35.7,11.86,7.22a28.93,28.93,0,0,1,.76,8.65c-1.32,4.5-5.2,5.93-9,7.08-7.17,2.16-15.62-1.86-18.78-8.63C32.35,47.08,31.64,45.41,32.56,43.59Z"/><path class="cls-2" d="M69.1,50.24a26.73,26.73,0,0,1,1.58-11.18c1.46-3.74,3.73-5.3,7.72-5.07,7.69.45,13.53,4.71,19,9.59,1.21,4.51-1.46,7.54-4.37,10.1-6,5.28-13.73,5.54-20.39,1.16A7.36,7.36,0,0,1,69.1,50.24Z"/><path class="cls-3" d="M100.7,48.93c1-.93,1.45-.23,2,.55,6,7.78,3.39,17.8-5.7,21.24-7.22,2.74-14.59,3.49-21.71-.51-4.66-2.62-6.92-8.55-5-12.67,2.35-.12,4,1.65,6.16,2.23A19.44,19.44,0,0,0,98,52.25C98.83,51.1,99.31,49.64,100.7,48.93Z"/><path class="cls-3" d="M59.63,57.55c1.78,3.76-.13,9.4-4.11,12.15-6.94,4.81-21.26,3.91-27.43-1.88s-4.31-13.44-.45-18.88c.6-.85,1.11-.38,1.66,0,.9.36,1.28,1.2,1.78,1.92C37.83,60.59,46.73,63,57.44,58,58.13,57.71,58.79,57.23,59.63,57.55Z"/><path class="cls-4" d="M100.7,48.93c-5.2,12.26-19.29,16.26-30.33,8.61-2.06-2.15-1.2-4.8-1.27-7.3,7.93,9.24,20.38,8.91,26.33-.69a12.53,12.53,0,0,0,2-6C98.93,45.11,101.44,46,100.7,48.93Z"/><path class="cls-4" d="M59.63,57.55c-11,7.65-25.13,3.64-30.33-8.62-.75-2.9,1.76-3.81,3.26-5.34.9,6.73,4.82,11,11.18,12.77,7,2,12.66-.65,17.16-6.11C60.83,52.74,61.68,55.39,59.63,57.55Z"/><path class="cls-2" d="M65,84.28a28.75,28.75,0,0,1,8.94,1.14c2,.6,3.13,1.85,2.55,4s-2.35,2.27-4.07,1.77a26.06,26.06,0,0,0-14.85,0c-1.73.5-3.49.32-4.06-1.79s.57-3.37,2.56-4A28.72,28.72,0,0,1,65,84.28Z"/><path class="cls-5" d="M40.48,40.23c1.94.12,3.23,1.12,3.38,3a3,3,0,0,1-3.09,3.54,3,3,0,0,1-3.35-2.94C37.23,41.72,38.48,40.61,40.48,40.23Z"/><path class="cls-6" d="M78.35,43.63c-.33,2-1.43,3.3-3.54,3.16a3,3,0,0,1-3-3.3,3,3,0,0,1,3.47-3.18C77.17,40.41,78.17,41.71,78.35,43.63Z"/><rect class="cls-7" width="130" height="130"/></g></g></svg>