<svg xmlns="http://www.w3.org/2000/svg" viewBox="0 0 130 130"><defs><style>.cls-1{fill:#e6e6e6;}.cls-2{fill:#606060;}.cls-3{fill:#fefdfd;}.cls-4{fill:none;}</style></defs><g id="Layer_2" data-name="Layer 2"><g id="Layer_13" data-name="Layer 13"><path class="cls-1" d="M65.26,12.58c28.77.05,52.22,23.74,52.16,52.68,0,28.77-23.73,52.21-52.68,52.16C36,117.37,12.53,93.7,12.58,64.74,12.63,36,36.31,12.52,65.26,12.58Z"/><path class="cls-2" d="M66.14,67.87c10.66.44,19.93,4.8,26.4,14.41a19,19,0,0,1,3.4,9.85c.22,5-1.94,6.92-6.84,6A121.93,121.93,0,0,0,66.31,95.6,118.24,118.24,0,0,0,42.57,98c-5.62,1.13-8.08-1.12-7.32-6.85.86-6.5,4.42-11.51,9.32-15.62C50.59,70.46,57.63,68.09,66.14,67.87Z"/><path class="cls-2" d="M81.74,58.47C74.89,58.49,69,52.93,68.4,46.9c-.08-.8,0-1.45.71-1.87a1.4,1.4,0,0,1,1.69.35A22,22,0,0,0,90.23,50.3c.72-.15,1.49-.19,1.93.57a1.56,1.56,0,0,1-.43,2C88.76,56.05,85.3,58.35,81.74,58.47Z"/><path class="cls-2" d="M49.24,58.5c-3.39-.15-6.83-2.24-9.79-5.34a1.68,1.68,0,0,1-.57-1.94c.46-.93,1.31-.78,2.17-.64a21.92,21.92,0,0,0,18.76-5.11c.57-.48,1.12-1,1.92-.67s.83,1.06.81,1.81C62.37,52.55,56.22,58.51,49.24,58.5Z"/><path class="cls-2" d="M87.28,43a15.86,15.86,0,0,1-1.81-.47A30.34,30.34,0,0,1,69.36,29.21c-1-1.7-1.79-3.56.33-4.88s3.38.16,4.39,1.93a24.9,24.9,0,0,0,13.84,11.3c1.61.57,2.77,1.52,2.37,3.42C90,42.37,89,43,87.28,43Z"/><path class="cls-2" d="M43.81,43a2.56,2.56,0,0,1-3-2.08c-.36-1.72.59-2.74,2.13-3.27a26.39,26.39,0,0,0,10.83-6.94,35.36,35.36,0,0,0,3.93-5.54,2.48,2.48,0,0,1,3.48-1,2.67,2.67,0,0,1,1.32,3.42C61.05,33.23,49.4,42.83,43.81,43Z"/><path class="cls-3" d="M87.74,84.52a91.31,91.31,0,0,0-22.12-2.64,86.84,86.84,0,0,0-22.18,2.69c5.42-7.82,12.6-10.72,21-11C73.65,73.32,81.65,76,87.74,84.52Z"/><rect class="cls-4" width="130" height="130"/></g></g></svg>