<svg xmlns="http://www.w3.org/2000/svg" viewBox="0 0 130 130"><defs><style>.cls-1{fill:#e6e6e6;}.cls-2{fill:#5daceb;}.cls-3{fill:#606060;}.cls-4{fill:none;}</style></defs><g id="Layer_2" data-name="Layer 2"><g id="Layer_13" data-name="Layer 13"><path class="cls-1" d="M65.05,118a53,53,0,1,1,53-53A53.12,53.12,0,0,1,65.05,118Z"/><path class="cls-2" d="M51.91,112.78c-10.74,5.42-21.19-1.86-22.08-11.87C31,90.14,36.24,81.13,42.32,72.51c1.41-2,2.86-1.93,4.44,0,2.87,3.48,4.74,7.56,7.12,11.33,2.85,1.91,4.2,4.47,3.44,7.94A50.07,50.07,0,0,1,59,98.71C59.64,104.83,56.76,109.34,51.91,112.78Z"/><path class="cls-3" d="M57.32,91.77l-3.44-7.94c9.93-7.63,22-4.67,26.42,6.51.43,1.08,1.24,2.29.08,3.32s-2-.21-3-.57C70.85,90.67,64.1,91,57.32,91.77Z"/><path class="cls-3" d="M38.72,58.35A16.65,16.65,0,0,1,39,56.18c.95-4.48,3.87-7.43,7.18-7.32s6.18,3.28,6.89,7.67a13,13,0,0,1-1.55,9.17c-2.94,4.74-8.13,4.72-11,0A12.68,12.68,0,0,1,38.72,58.35Z"/><path class="cls-3" d="M76.75,59.1c0-5.65,3.09-10.13,7.11-10.24s7.46,4.5,7.43,10.28c0,5.62-3.27,10.09-7.3,10.08S76.77,64.78,76.75,59.1Z"/><path class="cls-3" d="M53.23,34a2.9,2.9,0,0,1-2.87,3.07c-7.38.79-13.17,4.37-17.75,10.1-1.24,1.56-2.78,2.31-4.51.87s-1.21-3.06,0-4.61A31.27,31.27,0,0,1,48.85,31.35C51,31.05,52.79,31.53,53.23,34Z"/><path class="cls-3" d="M80.74,31.28a31.28,31.28,0,0,1,21.39,12.49c1.17,1.51,1.28,3.08-.32,4.33s-3.11.69-4.28-.78c-4.64-5.82-10.48-9.49-18-10.28-2-.21-3-1.42-2.66-3.38S78.79,31.19,80.74,31.28Z"/><rect class="cls-4" width="130" height="130"/></g></g></svg>