<svg xmlns="http://www.w3.org/2000/svg" viewBox="0 0 130 130"><defs><style>.cls-1{fill:#e6e6e6;}.cls-2{fill:#5daceb;}.cls-3{fill:#9cccf2;}.cls-4{fill:#606060;}.cls-5{fill:#e55a6f;}.cls-6{fill:none;}</style></defs><g id="Layer_2" data-name="Layer 2"><g id="Layer_13" data-name="Layer 13"><path class="cls-1" d="M65.25,9.94C95.4,10,120,34.82,119.92,65.16c-.06,30.15-24.87,54.72-55.22,54.66C34.55,119.77,10,95,10,64.61,10.09,34.46,34.91,9.88,65.25,9.94Z"/><path class="cls-2" d="M95.86,64.1c0,14,0,28.05-.15,42.08,0,2.32.83,3.12,3,2.74,2-1.1,4.08-1,6.28-.75a104.2,104.2,0,0,1,10.42,1.69c2,.41,4,1.16,4.87,3.31v1.38c-1,2.21-2.89,3-5.14,3.5-7.44,1.49-15,1-22.52,1.67-.89.07-1.84-.25-2.66.34H85.84a20.21,20.21,0,0,0-8.27,0H52.76a24.1,24.1,0,0,0-9,0H39c-6.65-1.06-13.4-.66-20.08-1.35A19.52,19.52,0,0,1,12,117c-2.82-1.43-3.11-4.78-.32-5.81,6.41-2.38,13-4.19,20-2.26,2.24.41,3-.47,3-2.78-.11-14-.09-28-.12-42,2.22-3.69,9.24-4.66,12.27-1.71,0,14.12.07,28.25-.09,42.37,0,2.91,1,3.43,3.59,3.29a277.24,277.24,0,0,1,30,0c2.46.14,3.45-.36,3.42-3.1-.14-14.13-.09-28.25-.11-42.38,1-2.35,3.11-2,4.92-1.85C91.23,61.07,94.49,60.57,95.86,64.1Z"/><path class="cls-3" d="M43.8,120.06c3-1.32,6-.86,9,0Z"/><path class="cls-3" d="M77.57,120.06a11,11,0,0,1,8.27,0Z"/><path class="cls-4" d="M65.23,101.73c-11-.11-14.43-4.59-11.44-15.28a20.15,20.15,0,0,1,5.52-9.72c3.74-3.46,8-3.59,11.62,0,4.95,4.86,6.91,11,6.35,17.81-.32,3.86-2.44,6-6.26,6.71A53,53,0,0,1,65.23,101.73Z"/><path class="cls-4" d="M52.82,37.31a4.53,4.53,0,0,1-1.42,3C45.58,47.24,38.23,52,30,55.32c-1.86.76-3.46.37-4.28-1.55s.25-3.34,2-4.09C35.39,46.43,42.23,42,47.57,35.45a2.83,2.83,0,0,1,3.43-.8A2.78,2.78,0,0,1,52.82,37.31Z"/><path class="cls-4" d="M80.78,34.43c1.09,0,1.86.8,2.61,1.71,5,5.94,11.22,10,18.24,13.07,2,.86,4.06,1.84,3,4.46-1.1,2.83-3.32,2.12-5.47,1.18A55.35,55.35,0,0,1,80.35,42a13.93,13.93,0,0,1-2.48-3.26A2.91,2.91,0,0,1,80.78,34.43Z"/><path class="cls-4" d="M95.86,64.1a18.6,18.6,0,0,0-12.32-1.46,20.58,20.58,0,0,0-7.63,1.87c-1.89.72-3.51.38-4.3-1.55s.23-3.35,2-4.1c7.94-3.28,16-3.9,24.14-.79,2.15.83,4.78,1.61,3.82,4.68C100.59,66,98,64.64,95.86,64.1Z"/><path class="cls-4" d="M46.77,62.46A21.57,21.57,0,0,0,34.5,64.17c-.77.2-1.53.45-2.3.6a2.8,2.8,0,0,1-3.39-1.65A3,3,0,0,1,30,59.24c5.68-4.09,21.79-4.09,27.44,0,1.38,1,2,2.28,1.24,3.85a2.87,2.87,0,0,1-4,1.48C52.11,63.55,49.58,62.5,46.77,62.46Z"/><path class="cls-5" d="M65,98.6a13.47,13.47,0,0,1-5.42-.77c-2.47-.88-3.52-2.72-3.52-5.32s1-4.51,3.49-5.33A18.33,18.33,0,0,1,70.09,87c2.83.73,4.17,2.58,4.17,5.52A5.17,5.17,0,0,1,70.12,98,16.06,16.06,0,0,1,65,98.6Z"/><rect class="cls-6" width="130" height="130"/></g></g></svg>