<svg xmlns="http://www.w3.org/2000/svg" viewBox="0 0 130 130"><defs><style>.cls-1{fill:#bfbebe;}.cls-2{fill:#e6e6e6;}.cls-3{fill:#606060;}.cls-4{fill:none;}</style></defs><g id="Layer_2" data-name="Layer 2"><g id="Layer_13" data-name="Layer 13"><path class="cls-1" d="M42.8,108c-2.19.87-.74,2.55-.68,3.76.21,4.45.31,4.45-4.1,4.45-5.31,0-10.61-.06-15.92,0-1.92,0-2.67-.3-2.31-2.54,1.66-10.24,3.1-20.53,4.7-30.79A7.6,7.6,0,0,0,23,76.34c-4.43-5.68-5.2-12.69-6-19.59-.17-1.39-.23-2.8-.38-4.2-.45-4.27.84-7.5,3.5-8.73s5-.3,8.25,3.39c.16-.11.44-.19.47-.33C32,33.55,41.05,26,53.42,21.59a4.67,4.67,0,0,0,2.52-1.33c4.89-6.43,11.79-6.74,19.7-6.37-2.49,1.94-4.76,3.23-5.78,6,15,3.8,26.3,12,31.45,27.47.82-.81,1.59-1.62,2.42-2.36,3.29-2.93,7.56-1.87,9.2,2.23,1.06,2.67.43,5.35.2,8-.56,6.49-.82,13.38-4.75,18.65-3.54,4.75-3,9.18-2.11,14.21,1.45,8.53,2.54,17.12,3.92,25.66.32,2-.26,2.45-2.12,2.42-6-.09-11.91-.12-17.86,0-2.12.05-2.68-.76-2.4-2.66.18-1.28.22-2.59.35-3.88.09-.91.13-1.76-1.1-1.9.86-7.63,1.29-15.28,1.41-23-.86,1.33-.1,3.07-1.45,4.2-1.89-.35-1.4-2-1.34-3,.15-2.62-1.05-4-3.24-5.37-6.3-4-11.14-9.51-15.49-15.5C65,62.36,65,62.36,63.06,65c-4.7,6.39-9.85,12.34-16.84,16.36a3.88,3.88,0,0,0-1.9,3.5c-.1,1.25.58,2.87-1.27,3.53-1.3-.84-.75-2.37-1.45-3.87a12.79,12.79,0,0,0-.16,5.16C41.86,95.81,42.34,101.88,42.8,108Z"/><path class="cls-1" d="M85.77,108.49a24.35,24.35,0,0,1-11.43,4.13c-10.35,1.13-20.7,1.64-30.15-4.1-1.26-1.93-1.12-4-.5-6.06,1.24-1.41,2.19-.2,2.94.5,9.25,8.67,27.59,8.5,36.63.06.75-.69,1.66-1.94,3-.63A6.87,6.87,0,0,1,85.77,108.49Z"/><path class="cls-1" d="M44.23,102q0,3.27,0,6.55c-.53,0-1.1.06-1.39-.56-2.33-2.38-1.16-5.53-1.61-8.27-.76-4.64-.67-9.41-.89-14.13-.06-1.27-.23-3,1.62-2.88,1.56.06.81,1.68,1,2.63s-.21,2.17.56,3.1C44.85,92.86,45.75,97.35,44.23,102Z"/><path class="cls-1" d="M85.77,108.49V102a1.65,1.65,0,0,1-.7-1.38c.55-3.84-.52-7.88,1.45-11.54.95-1.47.36-3.14.57-4.7.09-.71-.12-1.68.94-1.73a1.5,1.5,0,0,1,1.62,1.62c0,1.18.06,2.37,0,3.54-.39,5.87-.87,11.72-1.21,17.59a3.31,3.31,0,0,1-1.35,2.39Z"/><path class="cls-2" d="M86.51,89.06,85.76,102a27.92,27.92,0,0,1-20,8.35c-8.23.19-15.63-2.34-21.56-8.36q-.39-6.78-.77-13.56c-.55-4.32.93-7,4.94-9.49,6.22-3.88,11-9.59,15-15.87,1.25-2,1.94-1.91,3.23,0,4.93,7.29,10.59,13.89,18.49,18.16a2.58,2.58,0,0,1,1.36,2.68C86.43,85.61,86.49,87.34,86.51,89.06Z"/><path class="cls-2" d="M100.73,57.82c1.88-.4,1.58-2.09,1.88-3.35.58-2.41.88-4.91,2.71-6.8.73-.75,1.45-1.86,2.7-1.38a3.26,3.26,0,0,1,2.36,2.84c.06,8.93-.48,17.86-5.61,25.52-5,7.41-14.28,8-22.23,1.52A62.74,62.74,0,0,1,69,61.5a15.6,15.6,0,0,1-1.25-2.26c-.61-1.45-1-3,.49-4.13s3-.26,4.08.71c1.8,1.55,3.42,3.31,5.12,5,.75.74,1.56,1.28,2.52.4s.1-1.55-.34-2.25c-1.56-2.46-3.19-4.88-4.67-7.39-1-1.63-1.74-3.62,0-5s3.22-.07,4.45,1.31c1.85,2.11,3.7,4.22,5.6,6.28.71.78,1.21,2.46,2.73,1.19,1.17-1,.24-1.88-.3-2.82a44.94,44.94,0,0,1-3.59-6.88c-1.2-3.35-.53-4.43,3.17-4.68,1.63-.12,2.53,1,3.42,2.08A98.62,98.62,0,0,1,100.73,57.82Z"/><path class="cls-2" d="M43.46,40.79c3.32.88,3.77,1.74,2.7,4.7a38.8,38.8,0,0,1-3.93,7.43c-.58.93-.93,1.8.12,2.53s1.6-.25,2.15-.84c2.12-2.3,4.21-4.64,6.29-7C52,46.29,53.45,45.38,55,46.55s1.12,3,.29,4.43c-1.55,2.72-3.28,5.33-4.94,8-.44.7-1.28,1.38-.34,2.24s1.78.33,2.53-.4c1.7-1.67,3.32-3.43,5.12-5,1.13-1,2.53-1.93,4.08-.71s1.13,2.71.49,4.13C59.92,64.38,55.81,68.14,52,72c-2.79,2.82-5.75,5.51-9.51,7.18A13.87,13.87,0,0,1,24.15,73c-3.85-7.28-4.51-15.21-4.65-23.23a3.58,3.58,0,0,1,2.17-3.35c1.56-.82,2.4.59,3.2,1.51,1.6,1.86,2,4.23,2.48,6.56.28,1.25,0,3,1.91,3.31A103.2,103.2,0,0,1,39.31,43.33C40.36,42,41.41,40.55,43.46,40.79Z"/><path class="cls-2" d="M83.07,38.61c-1.67,1.68-3,3.1-2.44,5.61-2.41-.91-4.28-1.77-6.36-.7-1.66.85-3.53,2.35-3.14,3.77,1.46,5.29-3.39,4.44-5.5,6.21-.64.53-1.2.11-1.73-.32a5.18,5.18,0,0,0-3.58-1.25c-1.4.07-1.8-.4-1.55-2,.8-5.07-2.57-7.84-7.62-6.36-1,.29-1.78.52-1.71-.84.09-1.78-1.32-2.62-2.15-3.84,4.13-1.94,9.62-1.36,14.39,2,2.37,1.68,4,1.82,6.52.08A16.36,16.36,0,0,1,83.07,38.61Z"/><path class="cls-1" d="M43.46,40.79c-5.35,3.73-8.19,9.51-11.89,14.58-.66.9-.81,2.33-2.31,2.43a24.86,24.86,0,0,1-.53-8.11c1.13,2.06,1.9,2.07,3.09.16a56.84,56.84,0,0,1,7.06-9.19A6.81,6.81,0,0,1,46,38.54Z"/><path class="cls-1" d="M100.73,57.82c-1.36-.08-1.57-1.32-2.15-2.17C95,50.51,91.91,45,87,41c-.38-1.28-1.89-1.32-2.66-2.44a6.07,6.07,0,0,1,6.38,1.81,63.69,63.69,0,0,1,7.72,9.91c1.26,1.88,1.92,1.77,2.75-.6C101.24,52.64,101.8,55.27,100.73,57.82Z"/><path class="cls-3" d="M65,89.07c4.1,0,8.2,0,12.3,0,1.71,0,3.28.19,4.23,1.79,1,1.76.23,3.32-.7,4.82-3.43,5.56-12,8.82-19.51,7.38-4.93-1-9.22-3-12.1-7.36-1-1.47-1.77-3-.74-4.82.93-1.6,2.5-1.84,4.21-1.81C56.76,89.11,60.86,89.07,65,89.07Z"/><path class="cls-3" d="M63.61,76.47c-.37,1.61-1.09,2.91-3,2.81S57.77,77.9,57.92,76a2.63,2.63,0,0,1,3-2.65C62.78,73.5,63.41,74.82,63.61,76.47Z"/><path class="cls-3" d="M72.1,76.52a2.7,2.7,0,0,1-3,2.6,2.8,2.8,0,1,1,.24-5.6A2.72,2.72,0,0,1,72.1,76.52Z"/><rect class="cls-4" width="130" height="130"/></g></g></svg>