<svg xmlns="http://www.w3.org/2000/svg" viewBox="0 0 130 130"><defs><style>.cls-1{fill:#e6e6e6;}.cls-2{fill:#606060;}.cls-3{fill:none;}</style></defs><g id="Layer_2" data-name="Layer 2"><g id="Layer_13" data-name="Layer 13"><path class="cls-1" d="M57.51,114.37c-3.59-1.21-7.24-2.27-10.74-3.68A40,40,0,0,1,31.34,100c-1-8,1.22-15.18,5.65-21.78a13.74,13.74,0,0,1,2.74-3c1.53-1.27,2.62-1.17,3,1a16,16,0,0,0,1.21,4.49c1.48,3.17,3.84,4.41,7.32,3.85,6.28-1,10.78-6.55,11.06-13.55.12-2.84-.65-5.54-1.19-8.29-.18-.89-.6-1.92.22-2.65s2-.16,2.89.23c8.69,3.68,13.2,10.37,14,19.65A36.92,36.92,0,0,0,78.85,85c.78,3.53,2.44,5.62,5.17,5.83a7.78,7.78,0,0,0,7.41-3.7A10.8,10.8,0,0,0,92.75,84C93,83.19,93,82.1,94,82s1.59.87,2,1.7a27.78,27.78,0,0,1,2.76,9.84,23.67,23.67,0,0,1-.13,6.51c-6.18,6.81-13.93,10.87-22.75,13.12-1.36.34-2.88.17-4,1.21Z"/><path class="cls-2" d="M98.63,100c-1.33-3.12-.13-6.53-1.18-9.73-.9-2.72-1.47-5.54-3.49-8.42-.61,4.72-2.35,8.07-6.76,9.44s-8.26-.86-9.07-5.33c-.53-2.94-.81-5.93-1.27-8.88-1.36-8.9-7.08-13.87-15.4-16.94.52,3.93,1.83,7.44,1.67,11.19-.26,6.51-4.44,12.27-10.19,13.74-6.24,1.6-10.06-1-11-7.38-.12-.89-.12-1.8-.21-3.25-5.24,4.41-7.53,9.89-9.23,15.83-.92,3.23.16,6.61-1.17,9.73C13.12,82,15,53.47,27.85,38.92c.8,1.24.18,2.42,0,3.54-.5,4-.61,7.87.86,11.67,1.66,4.31,5,6.36,9.21,5.64,4.64-.81,7.39-3.89,7.58-8.51.1-2.34-.74-4.47-1.38-6.67-2.44-8.47-1.55-16.24,5.1-22.69a5.68,5.68,0,0,1,.74-.55c.07,0,.19,0,.57,0l-.15,2.92A17.13,17.13,0,0,0,52,33.07c2.48,5,7.86,7.83,12.8,6.84s8.49-5.38,9-11c.4-4.69-1-9-2.91-13.26,8.76,2.21,17.46,13.18,18.58,22.93.74,6.42-.49,12.61-1.55,18.85a27.4,27.4,0,0,0-.4,5c.09,7.18,6.63,10.85,12.9,7.21,3.92-2.27,5.9-6,7.18-10.19.7-2.26,1.17-4.58,1.78-7.06C115.07,66.19,111.92,87.2,98.63,100Z"/><rect class="cls-3" width="130" height="130"/></g></g></svg>