<svg xmlns="http://www.w3.org/2000/svg" viewBox="0 0 130 130"><defs><style>.cls-1{fill:#f2f2f2;}.cls-2{fill:#e2e0e0;}.cls-3{fill:#d3d3d3;}.cls-4{fill:none;}</style></defs><g id="Layer_2" data-name="Layer 2"><g id="Layer_13" data-name="Layer 13"><path class="cls-1" d="M115.16,75.51c-1,3.74-3.2,5.34-7.66,5.38-6.21-3.3-11.6-7.81-17.42-11.67-4.42-2.93-8.77-6-13.12-9a3.45,3.45,0,0,0-2.36-.92c1.47,1.89,3.4,2.83,5.1,4,9,6.26,18,12.52,27.07,18.69,1.26,3.23,1.17,6.28-1.43,8.84s-5.65,1.84-8.65.76c-3.81-3.79-8.71-6-13.13-8.88C78.48,79.43,73.37,76.16,68.2,73a2.92,2.92,0,0,0-2-.72c.42,1.1,1.39,1.47,2.17,2,8.56,5.44,17.07,11,25.7,16.26a7,7,0,0,1,2.28,1.66c1.44,3.09.08,5.52-2,7.66a6.69,6.69,0,0,1-7.29,1.69c-1-.3-2-.64-3-1-3.64-3.58-8.46-5.31-12.71-7.92a160.08,160.08,0,0,0-17.18-9.39,6.09,6.09,0,0,0,3,2.45c8.66,4.68,17,10,25.68,14.58a1.2,1.2,0,0,1,.54.63c-.74,5-5,7.51-10.9,6.52a25.58,25.58,0,0,1-6.48-2,4.44,4.44,0,0,0-3.54-.48l-.86-1a25.38,25.38,0,0,0-3.19-3.12,10.69,10.69,0,0,0-3.56-1.91L54,98.65l-.63-.19a5.77,5.77,0,0,0-4,.05,2,2,0,0,1-2.68-.87,13,13,0,0,0-7.06-4.82,17.77,17.77,0,0,0-2.24-.47,5.56,5.56,0,0,1-.67-.15,4,4,0,0,1-2.36-2.42c-1.57-3.24-4.34-5-7.39-6.27a15.84,15.84,0,0,1,6.7,5.25,3.68,3.68,0,0,1,0,4.55,16.21,16.21,0,0,1-2.58,3,9.89,9.89,0,0,1,1.43-2.74,3.48,3.48,0,0,0,1.32-2.9h0c-1.33-1.31-11-7-17.62-10.84,1.64,1.24,3.25,2.55,5,3.62a.58.58,0,0,1,.21.94c-.68.73-1.33.42-2-.07q-4-2.91-8.08-5.78a9.21,9.21,0,0,0-1.26-.62c1.2-.57,2,.34,2.8.87,2.48,1.58,4.74,3.47,7.32,4.92-3.2-2.65-6.82-4.74-10-7.36l0,0h0C6.87,74.45,4.31,71.6.91,70V29c10.78-.61,21.58-.9,32.32-2.11a1.74,1.74,0,0,1-.1,1.36c-1.43,4.28.3,7.22,4.74,8.5,4.93,1.42,9.6.1,14.21-1.28a22,22,0,0,1,12-.18,31.48,31.48,0,0,1,10,4.56C86.68,48.51,98.63,58,110.62,67.36c.86.68,1.74,1.35,2.64,2,.41.29.83.58,1.26.85l.17.22.09.12C114.88,72.19,115.63,73.76,115.16,75.51Z"/><path class="cls-2" d="M34,26.81c2-.67,3.57-2.13,5.26-3.33C45.05,19.38,51,17,58.57,17.9c9.29,1.11,18.73,1.1,28,2.55,5.23.82,10.4,2,15.63,2.84,7.61,1.24,15.11-.05,22.58-1.34,4.27-.74,4.26-.79,4.26,3.42,0,12.24,0,24.48,0,36.71,0,2-.38,3-2.53,3.56a58.52,58.52,0,0,0-11.78,4.9l-.09-.08c-9-7-17.72-14.21-26.87-20.94C81.45,44.83,75.62,39.32,68,36.43c-5.37-2-10.7-3-16.33-1.11-3.23,1-6.51,2-10,1.81a17,17,0,0,1-3.09-.4C32.93,35.33,31.41,32.07,34,26.81Z"/><path class="cls-2" d="M34,26.81a1.77,1.77,0,0,1,0,1.6c-1.4,3.89-.11,6.23,3.95,7.45a17.42,17.42,0,0,0,11.43-.66c9.48-3.64,18-1,25.83,4.16,9.14,6,17.68,13,26.25,19.82q6,4.78,12,9.53c.6.47,1.3.82,1.23,1.75-2.82-.13-4.38-2.41-6.29-3.92C96.76,57.33,85.12,48.08,72.77,39.85c-6.1-4.06-12.94-6.05-20.51-3.67-4.66,1.47-9.43,2.7-14.49,1.38-5.65-1.48-7.7-6-4.54-10.68Z"/><path class="cls-2" d="M61.92,106.54c-1,3.86-3.48,5.79-7.48,5.75-4.46,0-7.14-2.12-8-6.24a9.1,9.1,0,0,1-.09-3.71,4.85,4.85,0,0,1,2.26-3.14c3.67-2.25,6.7,0,9.76,1.58C60.64,102,62.28,103.66,61.92,106.54Z"/><path class="cls-2" d="M47,102.42l-.61,3.63c-.26-.68-.51-1.37-.77-2.06-8.14,3.52-14.29.29-13.8-7.23C34,91.88,36.68,91,41.39,93.68c1,.56,2,1,3,1.64C47,97,47.09,99.69,47,102.42Z"/><path class="cls-3" d="M106.77,82c-2.31-.23-3.93-1.81-5.69-3-8.66-5.93-17.25-12-25.85-18-.84-.59-2.43-1.07-1.43-2.48.88-1.24,1.85-.05,2.65.5q14.86,10.17,29.7,20.39a8.84,8.84,0,0,1,1.35,1.44Z"/><path class="cls-3" d="M96.32,92.15c-2.55-.35-4.39-2.12-6.43-3.39-7.89-4.89-15.67-10-23.48-15-.82-.53-2.29-1-1.44-2.26.74-1.1,1.92-.22,2.77.31C76.87,77.61,86,83.41,95.11,89.16a2.58,2.58,0,0,1,1.58,2.45Z"/><path class="cls-3" d="M83.42,100.88C79.84,100,77,97.7,73.91,96c-6.52-3.62-13-7.4-19.43-11.12-.95-.55-2.45-1-1.5-2.44.76-1.12,1.84-.13,2.73.38q13.16,7.51,26.34,15c1.12.63,2.16,1.24,2,2.74Z"/><path class="cls-3" d="M21.47,84.33c-.68.73-1.33.42-2-.07q-4-2.91-8.08-5.78a9.21,9.21,0,0,0-1.26-.62l0-1.61h0a22.28,22.28,0,0,1,6.1,3.51c1.64,1.24,3.25,2.55,5,3.62A.58.58,0,0,1,21.47,84.33Z"/><path class="cls-3" d="M62.5,104.93c-.19.54-.39,1.07-.58,1.61a5.45,5.45,0,0,0-3.3-4.87c-1.43-.74-2.86-1.45-4.33-2.09-3.48-1.51-5.55-.68-7.27,2.84a1.72,1.72,0,0,1-.73.23c-.34,0-.49-.26-.26-1,1-3.25-.56-5.15-3.27-6.53-.83-.42-1.64-.9-2.45-1.36C37.2,92,35,92.56,33,95.69c-.31.5-.54,1-1.18,1.07a1.67,1.67,0,0,1-.16-.12l-.53-.38a9.89,9.89,0,0,1,1.43-2.74,3.48,3.48,0,0,0,1.32-2.9A4.16,4.16,0,0,0,32.16,88c-2.34-1.87-4.35-4.65-8-4-.58.1-.94-.06-.94-.67a.69.69,0,0,1,.71-.72c1,0,2.27-.35,3.08.08,3.2,1.72,6.7,3.27,8,7.08.49,1.4,1.22,1.72,2.63,1.93a13.81,13.81,0,0,1,9.49,5.41c.4.54.42,1.35,1.61,1.06C54.63,96.65,59.8,99.27,62.5,104.93Z"/><path class="cls-2" d="M32.58,93.52a9.89,9.89,0,0,0-1.43,2.74c-7.09,2.18-12.06-1.73-11.33-9.07.15-1.49-.36-1.3-1.32-1.17-6.72.9-9.22-1.55-8.38-8.16a9.21,9.21,0,0,1,1.26.62q4,2.86,8.08,5.78c.68.49,1.33.8,2,.07a.58.58,0,0,0-.21-.94c-1.74-1.07-3.35-2.38-5-3.62,3.7,2.15,8.5,5,13.69,5.14,2.83,1.73,3.35,5.13,3.93,5.7h0A3.48,3.48,0,0,1,32.58,93.52Z"/><rect class="cls-4" width="130" height="130"/></g></g></svg>