<svg xmlns="http://www.w3.org/2000/svg" viewBox="0 0 130 130"><defs><style>.cls-1{fill:#42a5f4;}.cls-2{fill:#e2e0e0;}.cls-3{fill:#349ef3;}.cls-4{fill:#46a7f4;}.cls-5{fill:#57aef4;}.cls-6{fill:#59aff5;}.cls-7{fill:#5298d1;}.cls-8{fill:#4d96d0;}.cls-9{fill:#589bd1;}.cls-10{fill:#378ccf;}.cls-11{fill:#4392d0;}.cls-12{fill:#368ccf;}.cls-13{fill:#2a9af2;}.cls-14{fill:#e6e6e6;}.cls-15{fill:#fec623;}.cls-16{fill:#fec928;}.cls-17{fill:#feb709;}.cls-18{fill:#febd12;}.cls-19{fill:#feb200;}.cls-20{fill:none;}</style></defs><g id="Layer_2" data-name="Layer 2"><g id="Layer_13" data-name="Layer 13"><path class="cls-1" d="M55.29,103.26l-7.77,5.6a1.74,1.74,0,0,0-.89,1.46H37.37l-17.12.05c-.44,0-.69-.07-.69-.61,0-8,0-15.89.05-23.83h.16a.91.91,0,0,0,.46-.07c2.61-1.09,5.18-2.3,7.76-3.46a.82.82,0,0,0,.2-.12,1.19,1.19,0,0,0,.28-.31L36,78.55c.85-.39,1.73-.74,2.55-1.19.64-.35.86-.25,1.07.49a37.78,37.78,0,0,0,4.13,9.41l0,.06c.21.36.4.74.63,1.08a60.84,60.84,0,0,0,4.84,6.24c.79.88,1.54,1.81,2.38,2.65,1.24,1.25,2.55,2.42,3.81,3.65C56.38,101.83,56.31,102.51,55.29,103.26Z"/><path class="cls-1" d="M43.83,87.27a.11.11,0,0,1,0,0l0-.06a37.78,37.78,0,0,1-4.13-9.41c-.21-.74-.43-.84-1.07-.49-.82.45-1.7.8-2.55,1.19L28.47,82a1.19,1.19,0,0,1-.28.31.14.14,0,0,1,0-.06.89.89,0,0,1,.08-.17,1.7,1.7,0,0,1,.95-.73c2.24-1,4.45-2,6.69-3l0,0,.14-.06c.8-.36,1.61-.69,2.4-1.07s1.08-.28,1.33.55a42,42,0,0,0,3.69,8.68C43.69,86.66,43.92,86.94,43.83,87.27Z"/><path class="cls-2" d="M79.37,69.1a1.2,1.2,0,0,1-.11.35l-.06-.25A.59.59,0,0,1,79.37,69.1Z"/><path class="cls-2" d="M66.21,67.8V68a2.27,2.27,0,0,1-.28-.45Z"/><path class="cls-2" d="M49.35,73.48a1.24,1.24,0,0,1-.1.2,1.23,1.23,0,0,1,0-.42A1.43,1.43,0,0,0,49.35,73.48Z"/><path class="cls-2" d="M86,78.09a2.88,2.88,0,0,0-.16-.29,2.36,2.36,0,0,1,.28.35A.67.67,0,0,0,86,78.09Z"/><path class="cls-2" d="M87.42,78.63h-.17l.06-.09L85.8,77.8l-2.61-1.68c-1.49-1-2.76-2.06-3.08-4-.17-1-.49-2-.74-3.07a43.6,43.6,0,0,0-2-8.6c-1.61-4.88-2.23-9.94-3-15a53.79,53.79,0,0,0-.94-5.93,3.79,3.79,0,0,0-4.3-3,4.34,4.34,0,0,0-3.26,4.19V72.88a.58.58,0,0,0-.19.51c0,3.68,0,7.36,0,11,0,2,.5,3.86,2.78,4.5a8.18,8.18,0,0,1,4.79,3.82,15.82,15.82,0,0,0,2.44,3.41,0,0,0,0,1,0,0h0c0,.72-.56,1-1.23,1.23-.87-1.35-1.78-2.67-2.61-4a6.67,6.67,0,0,0-3.83-3,4.87,4.87,0,0,1-3.29-2.82c-.78,2-2.49,2.55-4.13,3.18a5,5,0,0,0-2.47,2c-1,1.59-2.07,3.16-3.11,4.74-.8-.19-1.2-.58-1.22-1.22a.07.07,0,0,1,0,0c.4,0,.5-.42.68-.68.66-1,1.31-2,1.94-3a7.57,7.57,0,0,1,4.13-3.39c2.78-.93,3.2-2,3.22-4.83.05-11.37,0-22.74,0-34.11,0-.36.14-.76-.17-1.08,0-2.8,0-5.6,0-8.4a4.27,4.27,0,0,0-2.1-3.7c-1.93-1.22-4.37-.21-5.25,2.09a15.62,15.62,0,0,0-.68,3.58c-.35,2.38-.67,4.77-1,7.14A46,46,0,0,1,53.21,57a161.19,161.19,0,0,0-3.94,16.23c-.45.51-.6,1.24-1.18,1.67a42.27,42.27,0,0,1-5.79,3.63l.06.09h0l-.12,0a1.26,1.26,0,0,1-.35-1.52,51.49,51.49,0,0,0,4.44-2.7A4,4,0,0,0,48,71.89c.55-2.17.9-4.38,1.36-6.57.71-3.37,2-6.58,2.7-9.94,1-4.43,1.48-9,2.11-13.44.5-3.65.93-7.31,1.4-11l.87-7a5.69,5.69,0,0,1,.2-.93c.44-1.56,1-3.12,2.87-3.36a4.85,4.85,0,0,1,4.88,2.05c.07.1.13.22.2.32s.11.14.23.29A5.09,5.09,0,0,1,69,19.61a3.11,3.11,0,0,1,3.36,1.75,13.64,13.64,0,0,1,1.13,4.95C74.58,35.57,75.7,44.82,77.26,54a60.42,60.42,0,0,0,2,7.57c1,3.11,1.42,6.33,2.09,9.5A5.22,5.22,0,0,0,84,74.89c1.26.7,2.49,1.48,3.73,2.22A1.38,1.38,0,0,1,87.42,78.63Z"/><path class="cls-1" d="M110.42,109.57c0,.61-.17.82-.79.8-1.52-.05-3,0-4.54-.05H83c0-.83-.58-1.27-1.17-1.7q-3.86-2.78-7.68-5.56a1.14,1.14,0,0,1-.26-1.85,5.59,5.59,0,0,1,.73-.73,60.3,60.3,0,0,0,7.08-7.39c.87-1,1.57-2.17,2.53-3.1l.08-.08c.06-.43.39-.71.59-1.06a20.36,20.36,0,0,0,2.07-3.67,12.71,12.71,0,0,0,1-1.82,48.76,48.76,0,0,0,2.15-5.73c.08-.25.07-.68.59-.43,2,1,4.14,1.76,6.11,2.86h0l.76.19c3,1.36,6,2.77,9,4.07a23,23,0,0,0,3.88,1.61q0,6.47,0,13C110.41,102.45,110.4,106,110.42,109.57Z"/><path class="cls-3" d="M110.37,85.94a23,23,0,0,1-3.88-1.61c-3-1.3-6-2.71-9-4.07l-.76-.19h0l0,0c.19-.15.44-.08.69,0h0l.1,0c4.07,1.78,8.12,3.64,12.18,5.46A1.72,1.72,0,0,1,110.37,85.94Z"/><path class="cls-4" d="M96.77,80v0h0c-2-1.1-4.08-1.89-6.11-2.86-.52-.25-.51.18-.59.43a48.76,48.76,0,0,1-2.15,5.73,12.71,12.71,0,0,1-1,1.82,20.36,20.36,0,0,1-2.07,3.67c-.2.35-.53.63-.59,1.06l-.08.08s0-.06,0-.09a1.63,1.63,0,0,1,.42-1.08,30.57,30.57,0,0,0,2.07-3.54l.09-.2,0,0a39.36,39.36,0,0,0,2.87-7c.41-1.27.48-1.29,1.72-.77,1.62.68,3.19,1.47,4.8,2.17C96.44,79.55,96.78,79.64,96.77,80Z"/><path class="cls-5" d="M54.73,103.94c-2.4,1.62-4.69,3.39-7,5.08a6.49,6.49,0,0,0-1.06,1.3h0a1.74,1.74,0,0,1,.89-1.46l7.77-5.6c1-.75,1.09-1.43.19-2.32-1.26-1.23-2.57-2.4-3.81-3.65-.84-.84-1.59-1.77-2.38-2.65a60.84,60.84,0,0,1-4.84-6.24c-.23-.34-.42-.72-.63-1.08l0-.06h0a.57.57,0,0,1,.32.27,61.17,61.17,0,0,0,5.33,7l.09.1.1.11a54.39,54.39,0,0,0,5.2,5.32C56.49,101.4,57.07,102.36,54.73,103.94Z"/><path class="cls-6" d="M73.85,101.21a1.14,1.14,0,0,0,.26,1.85q3.83,2.79,7.68,5.56c.59.43,1.16.87,1.17,1.7a6.38,6.38,0,0,0-2-2q-3.42-2.45-6.79-4.94c-1.18-.87-1.24-1.7-.16-2.71.83-.77,1.68-1.52,2.49-2.31a76.63,76.63,0,0,0,6.82-7.8c.21-.28.36-.7.82-.68h.09l-.08.08c-1,.93-1.66,2.07-2.53,3.1a60.3,60.3,0,0,1-7.08,7.39A5.59,5.59,0,0,0,73.85,101.21Z"/><path class="cls-7" d="M86.93,85.18a20.36,20.36,0,0,1-2.07,3.67c-.2.35-.53.63-.59,1.06l-.08.08c-1,.93-1.66,2.07-2.53,3.1a60.3,60.3,0,0,1-7.08,7.39,5.59,5.59,0,0,0-.73.73,1.14,1.14,0,0,0,.26,1.85q3.83,2.79,7.68,5.56c.59.43,1.16.87,1.17,1.7l-.1,0a6,6,0,0,1-5.16-1.58c-1.54-1.43-3.31-2.6-5-3.89a3.4,3.4,0,0,1-.35-5.35c.7-.72,1.44-1.4,2.17-2.1a6.23,6.23,0,0,0,1.23-1.23h0s0,0,0,0c.25-.23.51-.45.75-.7A51.21,51.21,0,0,0,86,82.32h.1c.42.31.33.77.37,1.2a2.69,2.69,0,0,0,.36,1.5h0Z"/><path class="cls-8" d="M50.61,92.77a7.77,7.77,0,0,1-.13,1.08c-.09.81-.18,1-.81.87l-.38-.08a60.84,60.84,0,0,1-4.84-6.24c-.23-.34-.42-.72-.63-1.08l0-.06a37.78,37.78,0,0,1-4.13-9.41c-.21-.74-.43-.84-1.07-.49-.82.45-1.7.8-2.55,1.19L36,78.28a5.73,5.73,0,0,0-.33-2c1.11-.51,2.19-1.06,3.31-1.52A1.92,1.92,0,0,1,41.47,76c.14.37.26.76.39,1.14a4,4,0,0,0,.44,1.47l.06.09h0a31.67,31.67,0,0,0,2.81,6.46,54.84,54.84,0,0,0,5.27,7.46.3.3,0,0,1,.15,0s0,.08,0,.13A.49.49,0,0,1,50.61,92.77Z"/><path class="cls-9" d="M58.38,102.12a2.76,2.76,0,0,1-1.2,2.58c-2.14,1.54-4.22,3.16-6.27,4.82a3.34,3.34,0,0,1-2.58.85c-.56-.06-1.12,0-1.69-.05h0a1.74,1.74,0,0,1,.89-1.46l7.77-5.6c1-.75,1.09-1.43.19-2.32-1.26-1.23-2.57-2.4-3.81-3.65-.84-.84-1.59-1.77-2.38-2.65a1.2,1.2,0,0,0,.28,0c1.17-.19.47-1.41.84-2a.3.3,0,0,1,.15,0s0,.08,0,.13a.49.49,0,0,1,0,.12c1.1,1.1,2,2.37,3.22,3.38,0,0,0,0,0,0a5.43,5.43,0,0,0,1.22,1.22l2,2A3.88,3.88,0,0,1,58.38,102.12Z"/><path class="cls-10" d="M36.12,78.22c0,.11-.06.22-.08.33L28.47,82a1.19,1.19,0,0,1-.28.31.82.82,0,0,1-.2.12c-2.58,1.16-5.15,2.37-7.76,3.46a.91.91,0,0,1-.46.07h-.16c-.14-2.48-.13-2.46,2.13-3.47l13.39-6a5.34,5.34,0,0,1,.52-.18C36.44,76.82,36.29,77.52,36.12,78.22Z"/><path class="cls-11" d="M98.15,78.16c-.65.5-.46,1.24-.58,1.91a1.06,1.06,0,0,1,0,.19l-.76-.19h0c-2-1.1-4.08-1.89-6.11-2.86-.52-.25-.51.18-.59.43a48.76,48.76,0,0,1-2.15,5.73,12.71,12.71,0,0,1-1,1.82.61.61,0,0,1-.26.1h0c-.17,0-.23-.14-.33-.43-.27-.83,0-1.73-.36-2.53v0h0a38,38,0,0,0,1.33-3.65h0l.06-.09a4.17,4.17,0,0,0,.46-1.45c1.08-2.83,1.56-3,4.39-1.71Z"/><path class="cls-12" d="M110.42,84.62c-.06.43,0,.88,0,1.32a23,23,0,0,1-3.88-1.61c-3-1.3-6-2.71-9-4.07L97.47,80c-.32-1.23-.19-1.5.68-1.86l7.62,3.35c1.24.55,2.45,1.16,3.72,1.64A1.22,1.22,0,0,1,110.42,84.62Z"/><path class="cls-13" d="M28.47,82a1.19,1.19,0,0,1-.28.31.82.82,0,0,1-.2.12c-2.58,1.16-5.15,2.37-7.76,3.46a.91.91,0,0,1-.46.07,24.39,24.39,0,0,1,3.47-1.63c1.67-.77,3.37-1.51,5.05-2.25Z"/><path class="cls-14" d="M63.84,50.12c0,11.37,0,22.74,0,34.11,0,2.82-.44,3.9-3.22,4.83a7.57,7.57,0,0,0-4.13,3.39c-.63,1-1.28,2-1.94,3-.18.26-.28.63-.68.68h0c-1.2-1-2.12-2.28-3.22-3.38a.49.49,0,0,0,0-.12c0-.05,0-.09,0-.13a.3.3,0,0,0-.15,0,54.84,54.84,0,0,1-5.27-7.46,31.67,31.67,0,0,1-2.81-6.46h0l-.06-.09a42.27,42.27,0,0,0,5.79-3.63c.58-.43.73-1.16,1.18-1.67a1.23,1.23,0,0,0,0,.42,1.24,1.24,0,0,0,.1-.2,1.43,1.43,0,0,1-.08-.22A161.19,161.19,0,0,1,53.21,57a46,46,0,0,0,1.36-7.28c.38-2.37.7-4.76,1-7.14A15.62,15.62,0,0,1,56.3,39c.88-2.3,3.32-3.31,5.25-2.09a4.27,4.27,0,0,1,2.1,3.7c0,2.8,0,5.6,0,8.4C64,49.36,63.84,49.76,63.84,50.12Z"/><path class="cls-15" d="M49.35,73.48a1.24,1.24,0,0,1-.1.2,1.23,1.23,0,0,1,0-.42A1.43,1.43,0,0,0,49.35,73.48Z"/><path class="cls-14" d="M87.25,78.65h0A38,38,0,0,1,86,82.29h0s0,0,0,0a51.21,51.21,0,0,1-9.42,13.14c-.24.25-.5.47-.75.7h0a15.82,15.82,0,0,1-2.44-3.41,8.18,8.18,0,0,0-4.79-3.82c-2.28-.64-2.74-2.5-2.78-4.5-.06-3.67,0-7.35,0-11a.58.58,0,0,1,.19-.51v-5.3a2.27,2.27,0,0,0,.28.45V67.8l-.28-.22V40.73a4.34,4.34,0,0,1,3.26-4.19,3.79,3.79,0,0,1,4.3,3,53.79,53.79,0,0,1,.94,5.93c.74,5.05,1.36,10.11,3,15a43.6,43.6,0,0,1,2,8.6.59.59,0,0,0-.17.1l.06.25a1.2,1.2,0,0,0,.11-.35c.25,1,.57,2,.74,3.07.32,1.89,1.59,3,3.08,4L85.8,77.8a2.88,2.88,0,0,1,.16.29.67.67,0,0,1,.12.06,2.36,2.36,0,0,0-.28-.35l1.51.76Z"/><path class="cls-16" d="M66.21,67.8V68a2.27,2.27,0,0,1-.28-.45Z"/><path class="cls-16" d="M79.37,69.1a1.2,1.2,0,0,1-.11.35l-.06-.25A.59.59,0,0,1,79.37,69.1Z"/><path class="cls-17" d="M49.35,73.48a1.24,1.24,0,0,1-.1.2,1.23,1.23,0,0,1,0-.42A1.43,1.43,0,0,0,49.35,73.48Z"/><path class="cls-17" d="M42.36,78.65h0l0-.09Z"/><path class="cls-17" d="M50.61,92.77l-.2-.2a.3.3,0,0,1,.15,0s0,.08,0,.13A.49.49,0,0,1,50.61,92.77Z"/><path class="cls-18" d="M66.21,67.8V68a2.27,2.27,0,0,1-.28-.45Z"/><path class="cls-18" d="M79.37,69.1a1.2,1.2,0,0,1-.11.35l-.06-.25A.59.59,0,0,1,79.37,69.1Z"/><path class="cls-18" d="M86.08,78.15a.67.67,0,0,0-.12-.06,2.88,2.88,0,0,0-.16-.29A2.36,2.36,0,0,1,86.08,78.15Z"/><path class="cls-19" d="M85.8,77.8a2.36,2.36,0,0,1,.28.35.67.67,0,0,0-.12-.06A2.88,2.88,0,0,0,85.8,77.8Z"/><path class="cls-19" d="M87.31,78.56s0,0,0,.08h0Z"/><path class="cls-14" d="M65.93,33.36a20.32,20.32,0,0,1,.19-3.66c.36-1.71,1.49-2.81,3-2.78A3.45,3.45,0,0,1,72.37,30c.23,1.76.48,3.52.72,5.28,0,.21.12.47-.1.61s-.34-.09-.49-.19c-1.75-1.13-4.62-1-6,.56-.11.13-.26.33-.46.17s-.11-.27-.11-.42C65.93,35.12,65.93,34.24,65.93,33.36Z"/><path class="cls-14" d="M63.7,36.65c-2.37-2.06-4.67-2.26-7.21-.59.23-1.86.45-3.55.66-5.24a4.88,4.88,0,0,1,.7-2.39A3.35,3.35,0,0,1,60.91,27a3.07,3.07,0,0,1,2.56,2.65C63.88,31.86,63.55,34.12,63.7,36.65Z"/><path class="cls-14" d="M65.93,25.06c0-2.41.76-3.39,3-3.92a1.64,1.64,0,0,1,2,.91,11.83,11.83,0,0,1,1,3.79c.07.34,0,.56-.46.31a4.38,4.38,0,0,0-5,.14c-.42.28-.55.16-.55-.29Z"/><path class="cls-14" d="M57.7,26.3a14.17,14.17,0,0,1,.51-3.21c.83-2.57,2.25-2.32,4.08-1.36,1.2.64,1.88,3.25,1.36,4.51-.1.26-.24.25-.43.12C61.21,24.91,59.52,25.39,57.7,26.3Z"/><rect class="cls-20" width="130" height="130"/></g></g></svg>