<svg xmlns="http://www.w3.org/2000/svg" viewBox="0 0 130 130"><defs><style>.cls-1{fill:#999;}.cls-2{fill:#606060;}.cls-3{fill:none;}</style></defs><g id="Layer_2" data-name="Layer 2"><g id="Layer_13" data-name="Layer 13"><g id="Layer_13-2" data-name="Layer 13"><path class="cls-1" d="M40.39,111.57a6,6,0,0,0,.31-.55A2.4,2.4,0,0,0,40.39,111.57Zm72.33-42.22a9.91,9.91,0,0,0,2.81-7.73,12.07,12.07,0,0,0-6.54-8.5,3.49,3.49,0,0,0-1.79-.43l-28.13-.06h-.55c0-.37.16-2.48.4-5.31s.55-6.4.84-9.73C81,21.9,72.25,17.35,72.25,17.35a12.33,12.33,0,0,0-6.69-2,12.63,12.63,0,0,0-2.73.31,7.5,7.5,0,0,0-4.44,4.65,3.87,3.87,0,0,0,0,1.79A36.68,36.68,0,0,1,39.24,60.26s3.19,1,3.19,7A45.25,45.25,0,0,0,66.08,22.93a6.88,6.88,0,0,1,2.54,1s4.54,2.76,3.73,12.61c0,.59-1.24,13.52-1.3,15.36a7.72,7.72,0,0,0,1.73,5.79,8.47,8.47,0,0,0,6.88,2.54h26.67c.87.65,1.73,1.52,1.79,2.23s-.65,1.89-2.71,3.57A3.89,3.89,0,0,0,103.9,69a4.08,4.08,0,0,0,1.3,3,5.43,5.43,0,0,1,1.89,3.68c0,1.73-1.89,3.3-3.36,4.33a3.88,3.88,0,0,0-1.62,3,3.72,3.72,0,0,0,1.46,3.09,5.38,5.38,0,0,1,1.89,3.4A7.42,7.42,0,0,1,102,94.14l0,0a3.8,3.8,0,0,0-1.41,2.93,3.67,3.67,0,0,0,1.25,2.92,4.74,4.74,0,0,1,1.46,3,5.46,5.46,0,0,1-2,3h-50l-8.82-2.43s1.62,3-1.73,7.41l9,2.44H102.6a3.66,3.66,0,0,0,2.27-.77,12.61,12.61,0,0,0,6-9.62,10.49,10.49,0,0,0-1.41-5.74A12.36,12.36,0,0,0,112.93,89a11.69,11.69,0,0,0-1.78-5.85,11.56,11.56,0,0,0,3.36-7.47A11,11,0,0,0,112.72,69.35Z"/></g><path class="cls-2" d="M33.39,56.57a8.71,8.71,0,0,1,8.78,8.65v40.62a8.78,8.78,0,0,1-8.78,8.79H23.16a8.72,8.72,0,0,1-8.72-8.72V65.22a8.72,8.72,0,0,1,8.72-8.65Z"/><rect class="cls-3" width="130" height="130"/></g></g></svg>