<svg xmlns="http://www.w3.org/2000/svg" viewBox="0 0 130 130"><defs><style>.cls-1{fill:#e6e6e6;}.cls-2{fill:#606060;}.cls-3{fill:#fefefd;}.cls-4{fill:none;}</style></defs><g id="Layer_2" data-name="Layer 2"><g id="Layer_13" data-name="Layer 13"><path class="cls-1" d="M57.24,11.69H72.47c11.11.54,20.54,5,28.67,12.38,9.7,8.79,16.29,19.2,16.69,32.75a1.74,1.74,0,0,0,.34,1.23V72.62c-1,3.25-.59,6.76-1.78,10-6.36,17.34-18.33,29-36,34.05-8.06,2.31-16.62,1.77-25,.86-14.52-1.6-25.28-9.54-34-20.74C14.58,88,11.72,78,11.84,66.88c.09-9,.15-17.85,4.47-26.09C23.1,27.86,33,18.54,46.91,13.56,50.28,12.35,53.88,12.75,57.24,11.69Z"/><path class="cls-2" d="M64.1,103c-11-.57-20.7-5.17-27.49-15.12a20,20,0,0,1-3.77-11.11c-.08-5,2.18-6.94,7-6a130,130,0,0,0,26.26,2.68,126.56,126.56,0,0,0,23.62-2.54c5.93-1.17,8.55,1.26,7.71,7.36-.94,6.93-4.74,12.26-10,16.62C81,100.34,73.37,102.88,64.1,103Z"/><path class="cls-2" d="M54.79,51.36c0,5.92-3.24,10.41-7.46,10.29-4-.11-7.21-4.76-7.18-10.33s3.39-10.18,7.38-10.16S54.77,45.63,54.79,51.36Z"/><path class="cls-2" d="M75.58,51.37c0-5.74,3.14-10.14,7.24-10.18s7.49,4.73,7.39,10.44-3.45,10.13-7.49,10S75.56,57.13,75.58,51.37Z"/><path class="cls-3" d="M39.68,77.16c4.21.53,8.41,1.2,12.63,1.59A126.67,126.67,0,0,0,87.25,77.5c1-.19,2.39-.84,3,.25s-.79,1.68-1.47,2.31a19.92,19.92,0,0,1-3.87,3.08c-13,7-26.13,7-39.21.13a19.52,19.52,0,0,1-3-2.13c-1.2-1-2.37-2-3.55-3Z"/><rect class="cls-4" width="130" height="130"/></g></g></svg>