<svg xmlns="http://www.w3.org/2000/svg" viewBox="0 0 130 130"><defs><style>.cls-1{fill:#ee4848;}.cls-2{fill:none;}</style></defs><g id="Layer_2" data-name="Layer 2"><g id="Layer_13" data-name="Layer 13"><path class="cls-1" d="M42,19.34a27.86,27.86,0,0,1,19.76,8.38c.87.87,1.77,1.71,2.59,2.63.52.58.84.47,1.33,0A49.28,49.28,0,0,1,71.38,25a28.26,28.26,0,0,1,35.92,1.67,26.31,26.31,0,0,1,8.15,13.22c2.74,10.64.35,20-7.4,27.86C94,82,79.76,96.11,65.62,110.3c-.46.45-.7.51-1.19,0Q43.67,89.5,22.86,68.7a30.69,30.69,0,0,1-7.55-11.14,27.29,27.29,0,0,1-.64-17.9c3.15-10.15,10-16.62,20.2-19.48A27.79,27.79,0,0,1,42,19.34Z"/><rect class="cls-2" width="130" height="130"/></g></g></svg>