<svg xmlns="http://www.w3.org/2000/svg" viewBox="0 0 130 130"><defs><style>.cls-1{fill:#e6e6e6;}.cls-2{fill:#5dadec;}.cls-3{fill:#f2f2f2;}.cls-4{fill:#82b8da;}.cls-5{fill:#606060;}.cls-6{fill:#f7f9f7;}.cls-7{fill:none;}</style></defs><g id="Layer_2" data-name="Layer 2"><g id="Layer_13" data-name="Layer 13"><path class="cls-1" d="M109.67,39.29c16.08,26.09,3.6,62.31-25.4,73.68-32.16,12.61-66.47-7.91-70.64-42.26a48.67,48.67,0,0,1,6.6-31.42C39.72,48.12,60.29,47.67,81,46.42a95.32,95.32,0,0,0,20.55-3.81C104.38,41.79,106.9,40.25,109.67,39.29Z"/><path class="cls-2" d="M83.33,14.57c8.41.48,16.68,1.76,24.5,5,3.86,1.6,7.8,3.6,8.23,8.42.45,5.12-3.77,7.18-7.21,9.63-1,1.85-2.87,2.25-4.58,2.89-8,3-16.48,4.18-25,5A158.09,158.09,0,0,1,40.2,44.21a76.84,76.84,0,0,1-15.5-4c-1.41-.53-2.92-1-3.65-2.55a23.43,23.43,0,0,1-5.33-4.28c-2.73-3.11-2.68-6.63.11-9.68a19.46,19.46,0,0,1,8.35-5,81.32,81.32,0,0,1,22.39-4.15c-.19,1.61-1.69,1.46-2.68,1.95-3.08,1.53-6.46,2.51-9,5C33.83,22.87,32,23,30.81,24c-1.43,1.23-2.51,2.5-.75,4.28,4.27,3.18,9.43,3.24,14.34,4.13,6.69,1.22,13.54,1.2,20.24,1.14,9.23-.07,18.58-.16,27.69-2.27,2.67-.62,5.35-1.19,7.51-3,1.81-1.79.63-3.05-.76-4.27C97.86,23,96,22.87,95,21.53c-2.52-2.53-5.92-3.48-9-5C85,16,83.52,16.17,83.33,14.57Z"/><path class="cls-1" d="M101.21,28.22c-2,2.75-5.09,3.33-8,3.85a159.08,159.08,0,0,1-56.49,0c-2.92-.52-6.05-1.11-8-3.85.4-2.89,3.14-3.64,4.91-5.22A31.55,31.55,0,0,1,38,19.83c4.36-2.19,8.59-4.69,13.55-5.36a33.13,33.13,0,0,0,4.2-.58,70.37,70.37,0,0,1,18.34,0,32.88,32.88,0,0,0,4.2.58c5,.67,9.19,3.16,13.55,5.35,2.45,1.74,4.93,3.43,7.25,5.34C100.12,26,101.21,26.72,101.21,28.22Z"/><path class="cls-3" d="M21.05,37.63c16,7,33,7.73,50.12,7.34a128.49,128.49,0,0,0,22.12-2.39,70.84,70.84,0,0,0,15.56-4.95c.27.55.54,1.11.82,1.66-2.79,3.82-7.33,4.09-11.29,5.17A104.75,104.75,0,0,1,71.68,48c-13.28.12-26.56.23-39.5-3.36-4.2-1.17-8.76-1.78-11.95-5.32Z"/><path class="cls-2" d="M51.79,14.94c-4.79,1.23-9.17,3.49-13.64,5.53-1.09.27-2,1.57-3.3.61,1.93-3.2,5.64-3.51,8.5-5.21a22.8,22.8,0,0,1,3.22-1.3l1.88-.21C49.59,14.36,50.91,13.39,51.79,14.94Z"/><path class="cls-2" d="M91.66,20.45c-4.43-2.06-8.79-4.28-13.55-5.51.88-1.56,2.19-.57,3.34-.58l1.88.21c3.1,1.41,6.22,2.76,9.28,4.26,1,.48,2.37.7,2.44,2.25C93.7,22,92.78,20.69,91.66,20.45Z"/><path class="cls-4" d="M51.79,14.94c-1-.82-2.26-.2-3.34-.58,2.39-1,4.88-.45,7.33-.47A10.28,10.28,0,0,1,51.79,14.94Z"/><path class="cls-4" d="M81.45,14.36c-1.08.38-2.33-.25-3.34.58a10.1,10.1,0,0,1-4-1C76.57,13.92,79.06,13.4,81.45,14.36Z"/><path class="cls-5" d="M64.78,95.22c-11-.31-19.5-5.2-26-13.79-.61-.81-1.69-1.75-.66-2.87s2.18-.14,3.15.47c7,4.4,14.5,7.23,22.78,7.46,8.91.24,17-2.71,24.44-7.35,1-.61,2-1.82,3.19-.72,1.39,1.33-.07,2.43-.8,3.37C84.24,90.32,75.67,95.07,64.78,95.22Z"/><path class="cls-5" d="M50.63,53.62c5,0,11.53,6.45,11.44,11.29a2.63,2.63,0,0,1-2,2.72,2.77,2.77,0,0,1-3.54-1.55,19.75,19.75,0,0,0-2.74-4.81c-2.29-2.58-4.3-2.58-6.53,0a20.45,20.45,0,0,0-2.71,4.83A2.74,2.74,0,0,1,41,67.62a2.52,2.52,0,0,1-1.82-2.76C39.24,59.81,45.54,53.6,50.63,53.62Z"/><path class="cls-5" d="M79.23,53.62c5.1,0,11.38,6.12,11.46,11.2a2.53,2.53,0,0,1-1.79,2.79,2.72,2.72,0,0,1-3.58-1.44A19.24,19.24,0,0,0,82.4,61.1c-2.12-2.32-3.92-2.34-6.09-.09a15.68,15.68,0,0,0-2.83,4.75c-.8,1.8-2.2,2.51-4,1.76s-1.91-2.13-1.42-3.85C69.72,58,74.5,53.65,79.23,53.62Z"/><path class="cls-6" d="M34.85,21.08l3.3-.61c-3.13,2.61-6.71,4.67-9.46,7.75-1.45-2.07-.3-3.52,1.31-4.6A46.48,46.48,0,0,1,34.85,21.08Z"/><path class="cls-6" d="M91.66,20.45l3.39.63a49.59,49.59,0,0,1,4.85,2.54c1.61,1.08,2.75,2.53,1.31,4.6C98.43,25.13,94.85,23,91.66,20.45Z"/><rect class="cls-7" width="130" height="130"/></g></g></svg>