<svg xmlns="http://www.w3.org/2000/svg" viewBox="0 0 130 130"><defs><style>.cls-1{fill:#e6e6e6;}.cls-2{fill:#606060;}.cls-3{fill:none;}</style></defs><g id="Layer_2" data-name="Layer 2"><g id="Layer_13" data-name="Layer 13"><circle class="cls-1" cx="65" cy="65" r="54.46"/><path class="cls-2" d="M66.41,95.31c-8.53,0-15.1-1.5-20.27-6.85a16,16,0,0,1-3.41-5.41c-.34-.86-.49-1.79.47-2.42s1.48,0,2.15.41c10,6.38,20.7,6.25,31.68,3.65a20.5,20.5,0,0,0,7-3.22c.87-.62,1.78-1.75,2.94-.62s.3,2.11-.16,3.12a17.57,17.57,0,0,1-7.8,8.2A26.1,26.1,0,0,1,66.41,95.31Z"/><path class="cls-2" d="M54.34,51.55c0,5.93-3.11,10.43-7.32,10.53s-7.73-4.66-7.69-10.58c.05-5.72,3.47-10.42,7.57-10.4S54.32,45.69,54.34,51.55Z"/><path class="cls-2" d="M75.69,51.48c0-5.88,3.25-10.38,7.46-10.36s7.49,4.72,7.49,10.45a13.17,13.17,0,0,1-.21,2.35c-.88,5.06-3.88,8.29-7.54,8.16s-6.78-3.93-7.2-8.91C75.65,52.61,75.69,52,75.69,51.48Z"/><rect class="cls-3" width="130" height="130"/></g></g></svg>