<svg xmlns="http://www.w3.org/2000/svg" viewBox="0 0 130 130"><defs><style>.cls-1{fill:#e6e6e6;}.cls-2{fill:#ee4848;}.cls-3{fill:#606060;}.cls-4{fill:none;}</style></defs><g id="Layer_2" data-name="Layer 2"><g id="Layer_13" data-name="Layer 13"><path class="cls-1" d="M112.1,44c14.6,30.92-6.76,68.38-40.78,72.41-30,3.55-58.72-19.72-58.07-52.8A46.12,46.12,0,0,1,17.81,44c2.74.65,3.91,3.27,6,4.82A51.69,51.69,0,0,0,43.49,58a6.48,6.48,0,0,0,6.78-2,40.62,40.62,0,0,0,11-26c.33-5.55-1.43-10.86-7-13.86-.51-.28-1.23-.58-.91-1.46a50.08,50.08,0,0,1,23.13,0c.34,1.07-.61,1.3-1.19,1.64-5.18,3-7,8-6.74,13.34a40.94,40.94,0,0,0,11,26.31,6.47,6.47,0,0,0,6.78,2c9-2.13,17-6,23.54-12.74C110.55,44.59,111.05,43.8,112.1,44Z"/><path class="cls-2" d="M112.1,44c-6.79,8.13-15.7,12.59-25.85,14.91-2.86.65-5.21.29-7.26-2.21-7.34-9-12.16-18.82-10.83-30.83.59-5.37,3.62-8.94,8.37-11.22,7.92-2,12.72-.17,17,6.66.72,1.17,1.19,1.72,2.77,1.14,6.68-2.48,12.13-1.24,16,3.38s4.2,10.46.57,16.72C112.57,43,112.35,43.49,112.1,44Z"/><path class="cls-2" d="M53.39,14.62c7.24,3.8,9.74,9.28,8.35,19A44.61,44.61,0,0,1,50.93,56.68c-2.11,2.45-4.41,2.85-7.27,2.2C33.51,56.56,24.61,52.1,17.81,44c-.57-1-1.16-2.09-1.72-3.15A13.39,13.39,0,0,1,32.78,22c1.43.56,2.46,1.39,3.69-.67C40.58,14.4,45.46,12.59,53.39,14.62Z"/><path class="cls-3" d="M65.69,99.64c-11.33,0-21.62-6.37-25.34-15.41a15.2,15.2,0,0,1-.92-2.79c-1.3-6.3.67-8.47,6.89-7.24A96.75,96.75,0,0,0,85,73.92c4.09-.84,5.91.58,5.68,4.73-.49,8.86-6.08,14.13-13.33,18A27,27,0,0,1,65.69,99.64Z"/><rect class="cls-4" width="130" height="130"/></g></g></svg>