<svg xmlns="http://www.w3.org/2000/svg" viewBox="0 0 130 130"><defs><style>.cls-1{fill:#e6e6e6;}.cls-2{fill:#ee4848;}.cls-3{fill:#e5e2df;}.cls-4{fill:#606060;}.cls-5{fill:none;}</style></defs><g id="Layer_2" data-name="Layer 2"><g id="Layer_13" data-name="Layer 13"><path class="cls-1" d="M105.65,33.54c11.38,15,13.77,31.4,7.75,49.14-2.81.58-5.84-.09-8.47,1.58a1.79,1.79,0,0,1-1.86-.22c-1.95-1.27-4.12-1.14-6.28-1.13-6.93,0-9.47,3.9-6.67,10.2a19.74,19.74,0,0,0,7.29,8.13c.79.55,1.79.81,2.29,1.74-15.12,14.57-39.32,17.45-56.33,8.62-.44-2,1.3-2.83,2.37-3.9a21.32,21.32,0,0,0,6-10.19c1.59-6.59-2.11-11.34-9-11.36-.54,0-1.08,0-1.62,0-2.63-.37-5.07.73-7.62,1a19.88,19.88,0,0,0-7.73-1c-2.61-.53-5.1,1.12-7.71.48-9.81-22-3.71-45.19,11.5-59.09C44.38,14.12,61.57,10.17,80.83,16.05c.07,1-.58,1.44-1.28,1.87-4.23,2.69-5.39,5.18-4,9.83,2,6.7,6.53,11.36,12.46,14.78a4.7,4.7,0,0,0,5-.25,31.46,31.46,0,0,0,10.6-7.66C104.1,34,104.58,33.17,105.65,33.54Z"/><path class="cls-2" d="M18.15,86.69a13.79,13.79,0,0,1,7.53-1.33c1.5.49,3.2.4,4.45,1.63s2.38-.08,3.56-.29a12.92,12.92,0,0,1,7.65-1.32c6,1.23,9.12,6.14,7.56,12.11-1.33,5.13-3.48,9.81-8.29,12.71l-1.82,1.34c-7.85,5.87-7.39,6-15.42-.27a26.58,26.58,0,0,1-7.9-10.2C12.79,95.06,13.51,91.33,18.15,86.69Z"/><path class="cls-2" d="M79.55,17.32l1.28-1.27c4.11-2.56,8.16-3,12,.53,1.11,1,1.6.28,2.41-.32,3.53-2.68,7.34-2.91,10.61-.75s4.41,5.58,3.64,9.77c-.56,3.09-2.37,5.58-3.8,8.26-3.67,3.68-7.06,7.75-12.46,9.07a3.13,3.13,0,0,1-2.49-.54c-5.37-3.68-10.27-7.89-12.57-14.18C76.82,24.31,76.07,20.44,79.55,17.32Z"/><path class="cls-2" d="M96.47,82.08c2.49-.37,5-.62,7,1.27.74.67,1.26.37,1.94-.13,2.51-1.84,5.19-1.82,7.94-.54,3.18,2.93,3.79,5.52,2.1,9.54-1.88,4.47-5.25,7.57-9.28,10.14-2.09,1.34-3.44-.34-5.12-.74-4.59-1.54-9.56-8.63-9.37-13.37C91.87,85,93.2,83.26,96.47,82.08Z"/><path class="cls-3" d="M40.61,110.2c2.6-3.32,5.52-6.42,6.88-10.57,2.26-6.87.51-11-6.15-14.25,7.31-.28,12.46,3.76,11.82,9.56a20.08,20.08,0,0,1-5.41,11.9c-1.49,1.56-3.27,2.85-4.38,4.76A5,5,0,0,1,40.61,110.2Z"/><path class="cls-3" d="M96.47,82.08c-4.24,3.11-5,6.16-2.72,11,1.67,3.53,4.48,6.08,7.35,8.57L99.7,103c-6.57-2.36-10.34-7.18-11.65-13.86C87.29,85.21,91.27,82.05,96.47,82.08Z"/><path class="cls-4" d="M65.22,89.5c-11.14,0-19.6-4.92-26.17-13.44-.68-.89-1.86-1.89-.74-3.13s2.18,0,3.12.58Q65.16,88.3,88.8,73.37c.88-.56,1.78-1.64,2.85-.5s0,2.24-.64,3.13C84.46,84.53,76,89.42,65.22,89.5Z"/><path class="cls-4" d="M50.87,47.81C55.7,47.88,62,54,62.14,58.89a2.86,2.86,0,0,1-5.38,1.52,21.43,21.43,0,0,0-2.92-5.06c-2.24-2.43-4.08-2.44-6.29,0a20.89,20.89,0,0,0-2.9,5.07,2.67,2.67,0,0,1-3.31,1.4,2.55,2.55,0,0,1-2-2.95C39.54,53.72,45.77,47.74,50.87,47.81Z"/><path class="cls-4" d="M79.57,47.81c4.9.1,11,6.29,11.1,11.18a2.53,2.53,0,0,1-1.78,2.78,2.74,2.74,0,0,1-3.58-1.43,19.31,19.31,0,0,0-2.91-5.06c-2.13-2.33-3.86-2.34-6.06-.08a13.64,13.64,0,0,0-2.7,4.43c-.79,1.92-2.13,2.88-4.09,2s-1.86-2.62-1.2-4.44C70.49,51.37,74.82,47.71,79.57,47.81Z"/><path class="cls-3" d="M79.55,17.32c-2.7,5-1.64,9.62,1.26,14.07A34.05,34.05,0,0,0,93.19,42.61c-1.49,1.86-3.34,1.89-5.24.83-6.81-3.81-11.78-9.18-13.63-16.95A7.68,7.68,0,0,1,79.55,17.32Z"/><path class="cls-3" d="M33.69,86.7c-1.37,1.94-2.73,2.72-4.67.47-.78-.9-2.21-1.22-3.34-1.81C28.44,85.25,31.24,84.92,33.69,86.7Z"/><rect class="cls-5" width="130" height="130"/></g></g></svg>