<svg xmlns="http://www.w3.org/2000/svg" viewBox="0 0 130 130"><defs><style>.cls-1{fill:#e6e6e6;}.cls-2{fill:#ee4848;}.cls-3{fill:#e5e2df;}.cls-4{fill:#606060;}.cls-5{fill:none;}</style></defs><g id="Layer_2" data-name="Layer 2"><g id="Layer_13" data-name="Layer 13"><path class="cls-1" d="M101.3,104.72a48.38,48.38,0,0,1-28.14,13.65c-29.68,4.12-55.62-14.59-61.36-44C6,44.63,28.19,14.58,58.36,11.4c29.26-3.08,54.09,15.13,59.82,43.92A52.84,52.84,0,0,1,116.34,82c-3.37-.69-6.58-2.36-10.22-1.5-.87.2-1.53-.85-2.1-1.58-4.51-5.73-7.31-6.31-13.67-2.85a10.84,10.84,0,0,1-1.24.59,9,9,0,0,0-6,8.32,29.76,29.76,0,0,0,2.85,15c2.29,5,4.4,6,9.8,5C97.56,104.56,99.41,103.28,101.3,104.72Z"/><path class="cls-2" d="M89.16,76c6.61-5,10.93-4.23,15.76,2.9.61.9,1.19,1.3,2.22.94,3.52-1.22,6.45.11,9.2,2.15,3.9,5.62,3.42,10-1.53,14.78-3.47,3.29-7.84,4.83-12.19,6.43a15.78,15.78,0,0,1-7.17,1.59,4.27,4.27,0,0,1-3.65-2.16,29.22,29.22,0,0,1-5.56-21.87A6.12,6.12,0,0,1,89.16,76Z"/><path class="cls-3" d="M89.16,76c-5.29,8.68-.68,21.13,4,26.9A3.46,3.46,0,0,0,96.52,104c2-.21,4.06-.52,6.1-.78,0,.86-.7,1.15-1.32,1.49-3-.06-5.66,1.39-8.65,1.5-3.22.12-5.1-1.32-6.53-3.88A31.94,31.94,0,0,1,82.2,83.69C82.51,80.06,85.83,76.5,89.16,76Z"/><path class="cls-4" d="M72.13,92.06a42,42,0,0,1,4.29,2.52c3.66,2.79,3.79,7,.22,9.88-3.93,3.12-8.77,3.63-13.55,4.17a1.55,1.55,0,0,1-1.79-1.27c-.19-1.16.65-1.67,1.61-1.79a22.07,22.07,0,0,0,7.21-2c1.59-.81,2.93-2,2.95-3.88s-1.31-3.08-2.87-3.93a19.21,19.21,0,0,0-6.87-2c-1-.12-1.93-.42-2-1.49-.11-1.32,1-1.65,2-1.78a19.22,19.22,0,0,0,6.87-2c1.58-.86,2.89-2,2.86-3.94s-1.41-3.06-3-3.87a21.1,21.1,0,0,0-6.88-1.94c-1.1-.16-2.16-.49-1.93-1.84.19-1.11,1.25-1.17,2.2-1.13A26.94,26.94,0,0,1,74.4,78.3c2.59,1.25,4.7,3.06,4.77,6.16s-2,5-4.53,6.3C73.86,91.18,73.07,91.58,72.13,92.06Z"/><path class="cls-4" d="M52.93,57.37c-.06,6.27-3.13,10.49-7.39,10.51s-7.34-4.21-7.43-10.14a12.56,12.56,0,0,1,1.74-7.17c3.1-4.88,8.6-4.76,11.51.25A11.87,11.87,0,0,1,52.93,57.37Z"/><path class="cls-4" d="M83.12,54.56c5.23,0,11,4.07,13,9.14.31.78.59,1.51-.08,2.2-.82.85-1.67.4-2.49,0-4.41-2.31-9.15-2.64-14-2.16a18.45,18.45,0,0,0-7.13,2.23c-.73.4-1.49.73-2.21.12-.88-.74-.51-1.63-.17-2.5C72.06,58.5,77.79,54.54,83.12,54.56Z"/><path class="cls-4" d="M77.62,37.55c9,.17,16.15,2.83,21.69,9.17,1.47,1.67,2.63,3.6.65,5.37s-3.64.52-5.16-1.26c-4.38-5.1-10.11-7.18-16.72-7.13-1.25,0-2.5.12-3.76.16-1.69.06-2.92-.58-3.17-2.38A2.78,2.78,0,0,1,73.63,38C75.19,37.74,76.78,37.64,77.62,37.55Z"/><path class="cls-4" d="M48.71,26c2.53,0,4,.6,4.15,2.79s-1.09,3.09-3.1,3.28c-7.24.7-12.91,4.28-17.48,9.75-1.46,1.75-3.06,3.1-5.17,1.36s-.85-3.67.53-5.33A32.06,32.06,0,0,1,48.71,26Z"/><rect class="cls-5" width="130" height="130"/></g></g></svg>