<svg xmlns="http://www.w3.org/2000/svg" viewBox="0 0 130 130"><defs><style>.cls-1{fill:#e6e6e6;}.cls-2{fill:#ee4848;}.cls-3{fill:#606060;}.cls-4{fill:none;}</style></defs><g id="Layer_2" data-name="Layer 2"><g id="Layer_13" data-name="Layer 13"><circle class="cls-1" cx="65" cy="65" r="50.06"/><path class="cls-2" d="M42.66,53c7.55,5.14,8.69,16,1,22.6-1.09.77-2.84.21-3.53,1.77-5.79,1.8-11,.87-15-3.8a12.83,12.83,0,0,1-2-14.84c2.65-5.43,7.12-7.91,13.16-7.55a1.28,1.28,0,0,1,.53,1c.39,3,.6,3.07,3.12,1.46C40.79,53.09,41.55,52.28,42.66,53Z"/><path class="cls-2" d="M94.24,51.14c6-.36,10.52,2.12,13.16,7.54a12.83,12.83,0,0,1-2,14.85c-4,4.66-9.24,5.6-15,3.8-.69-1.56-2.45-1-3.54-1.76-3.32-3.15-5.34-6.79-5.15-11.58s2.58-8.23,6.21-11c1.11-.67,1.87.14,2.68.66,2.5,1.59,2.72,1.5,3.11-1.48A1.24,1.24,0,0,1,94.24,51.14Z"/><path class="cls-3" d="M86.87,75.57c.36-.17.72-.32,1.07-.5.84-.45,1.68-1.3,2.67-.43s0,1.8-.21,2.69C86.49,82,82.11,86,76.34,88.33c-12,4.79-25.15,1.45-34.14-8.72l-2-2.27c-.2-.9-1.27-1.85-.19-2.68,1.49-1.16,2.44.71,3.72.9A38.43,38.43,0,0,0,86.87,75.57Z"/><path class="cls-3" d="M42.66,53a8.17,8.17,0,0,0-1.61,1.28c-1.16,1.51-2.37,3-4.43,1.65s-1.16-3.1-.29-4.75c6.46-6.16,14.76-7.39,21.48-3.21a12.73,12.73,0,0,1,4,3.77c.95,1.45,1.11,2.95-.37,4.09s-2.8.48-4-.81C53.17,50.37,47.62,49.64,42.66,53Z"/><path class="cls-3" d="M94.24,51.14c.86,1.65,1.77,3.41-.28,4.75s-3.27-.12-4.42-1.64A8.17,8.17,0,0,0,87.93,53a10.81,10.81,0,0,0-14.58,1.74c-1.23,1.39-2.51,2.33-4.16,1.06s-1.17-3.05,0-4.59C74,44.55,85.8,43.56,92.25,49.24,92.94,49.85,93.58,50.5,94.24,51.14Z"/><rect class="cls-4" width="130" height="130"/></g></g></svg>