<svg xmlns="http://www.w3.org/2000/svg" width="20.505" height="20.539" viewBox="0 0 20.505 20.539">
  <g id="emoji12" transform="translate(-0.742 -0.75)">
    <path id="Path_2608" data-name="Path 2608" d="M11,1a10.007,10.007,0,1,0,7.07,2.934A9.986,9.986,0,0,0,11,1Zm0,19.2a9.173,9.173,0,1,1,6.48-2.689A9.153,9.153,0,0,1,11,20.2Z" transform="translate(0 0)" stroke="#000" stroke-width="0.5"/>
    <path id="Path_2609" data-name="Path 2609" d="M13.05,19.5a1.245,1.245,0,0,0,1.125-1.789A.417.417,0,0,0,13.884,17h-2.5a.418.418,0,1,0,0,.835h.493a1.239,1.239,0,0,0-.077.417A1.251,1.251,0,0,0,13.05,19.5Zm0-1.669a.417.417,0,1,1-.294.122A.416.416,0,0,1,13.05,17.833Z" transform="translate(-5.801 -9.322)" stroke="#000" stroke-width="0.5"/>
    <path id="Path_2610" data-name="Path 2610" d="M33.878,17h-2.5a.418.418,0,0,0,0,.835h.493a1.239,1.239,0,0,0-.077.417,1.25,1.25,0,1,0,2.5,0,1.239,1.239,0,0,0-.125-.537A.417.417,0,0,0,33.879,17Zm-.833,1.669a.416.416,0,1,1,.159-.032A.416.416,0,0,1,33.045,18.668Z" transform="translate(-17.465 -9.322)" stroke="#000" stroke-width="0.5"/>
    <path id="Path_2611" data-name="Path 2611" d="M17.977,31h0c-3.5,0-4.857,1.761-4.914,1.836a.417.417,0,1,0,.665.5c.047-.063,1.194-1.5,4.249-1.5h0c3.055,0,4.2,1.444,4.249,1.5a.417.417,0,0,0,.667-.5C22.836,32.76,21.477,31,17.977,31Z" transform="translate(-6.979 -17.48)" stroke="#000" stroke-width="0.5"/>
  </g>
</svg>
