<svg xmlns="http://www.w3.org/2000/svg" width="20.511" height="20.545" viewBox="0 0 20.511 20.545">
  <g id="emoji9" transform="translate(-0.742 -0.75)">
    <path id="Path_2660" data-name="Path 2660" d="M11,1a10.01,10.01,0,1,0,7.072,2.934A9.989,9.989,0,0,0,11,1Zm0,19.2a9.16,9.16,0,1,1,3.509-.7A9.157,9.157,0,0,1,11,20.2Z" transform="translate(0)" stroke="#000" stroke-width="0.5"/>
    <path id="Path_2661" data-name="Path 2661" d="M15.833,18.7A.835.835,0,1,0,15,17.862.834.834,0,0,0,15.833,18.7Z" transform="translate(-8.165 -9.347)" stroke="#000" stroke-width="0.5"/>
    <path id="Path_2662" data-name="Path 2662" d="M31.832,18.7A.835.835,0,1,0,31,17.862.834.834,0,0,0,31.832,18.7Z" transform="translate(-17.496 -9.347)" stroke="#000" stroke-width="0.5"/>
    <path id="Path_2663" data-name="Path 2663" d="M18,31.05c-3.5,0-4.86,1.762-4.916,1.837a.417.417,0,1,0,.665.5c.047-.063,1.2-1.505,4.251-1.505s4.205,1.444,4.251,1.5a.417.417,0,0,0,.667-.5C22.863,32.812,21.5,31.05,18,31.05Z" transform="translate(-6.999 -17.526)" stroke="#000" stroke-width="0.5"/>
  </g>
</svg>
