<svg xmlns="http://www.w3.org/2000/svg" width="20.508" height="20.543" viewBox="0 0 20.508 20.543">
  <g id="emoji10" transform="translate(-0.742 -0.75)">
    <path id="Path_2598" data-name="Path 2598" d="M11,1a10.009,10.009,0,1,0,7.071,2.934A9.988,9.988,0,0,0,11,1Zm0,19.2a9.159,9.159,0,1,1,3.509-.7A9.156,9.156,0,0,1,11,20.2Z" transform="translate(0 0)" stroke="#000" stroke-width="0.5"/>
    <path id="Path_2599" data-name="Path 2599" d="M32.509,15.04l-1.48.742-1.48-.742a.417.417,0,1,0-.373.747l1.667.835a.417.417,0,0,0,.373,0l1.667-.835a.417.417,0,1,0-.373-.747Z" transform="translate(-16.277 -8.152)" stroke="#000" stroke-width="0.5"/>
    <path id="Path_2600" data-name="Path 2600" d="M13.06,16.665a.417.417,0,0,0,.187-.044l1.667-.835a.417.417,0,1,0-.373-.747l-1.48.742-1.48-.742a.417.417,0,1,0-.373.747l1.667.835A.418.418,0,0,0,13.06,16.665Z" transform="translate(-5.81 -8.152)" stroke="#000" stroke-width="0.5"/>
    <path id="Path_2601" data-name="Path 2601" d="M17.979,31h0c-3.5,0-4.859,1.762-4.915,1.837a.417.417,0,1,0,.666.5c.047-.063,1.195-1.505,4.25-1.505h0c3.056,0,4.2,1.444,4.25,1.5a.417.417,0,0,0,.668-.5C22.84,32.763,21.48,31,17.979,31Z" transform="translate(-6.978 -17.479)" stroke="#000" stroke-width="0.5"/>
  </g>
</svg>
