<svg xmlns="http://www.w3.org/2000/svg" width="20.509" height="20.543" viewBox="0 0 20.509 20.543">
  <g id="emoji4" transform="translate(-0.742 -0.75)">
    <path id="Path_2635" data-name="Path 2635" d="M11,1a10.009,10.009,0,1,0,7.071,2.934A9.988,9.988,0,0,0,11,1Zm0,19.2a9.16,9.16,0,1,1,3.509-.7A9.157,9.157,0,0,1,11,20.2Z" transform="translate(0 0)" stroke="#000" stroke-width="0.5"/>
    <path id="Path_2636" data-name="Path 2636" d="M22.386,29.006a.416.416,0,0,0-.5.31,5,5,0,0,1-9.733-.005.417.417,0,1,0-.811.192,5.833,5.833,0,0,0,11.354.007.418.418,0,0,0-.311-.5Z" transform="translate(-6.018 -16.3)" stroke="#000" stroke-width="0.5"/>
    <path id="Path_2637" data-name="Path 2637" d="M10.324,18.845a.417.417,0,0,0,.288-.116l2.444-2.338a1.947,1.947,0,0,0,.6-1.407A2.013,2.013,0,0,0,11.621,13a1.892,1.892,0,0,0-1.3.622A1.892,1.892,0,0,0,9.028,13,2.013,2.013,0,0,0,6.99,14.983a1.947,1.947,0,0,0,.6,1.409l2.443,2.337a.417.417,0,0,0,.288.115Zm-2.5-3.861a1.178,1.178,0,0,1,1.2-1.148,1.439,1.439,0,0,1,.967.673.431.431,0,0,0,.659,0,1.44,1.44,0,0,1,.967-.673,1.178,1.178,0,0,1,1.2,1.148,1.115,1.115,0,0,1-.346.805L10.324,17.85,8.171,15.79a1.115,1.115,0,0,1-.348-.806Z" transform="translate(-3.49 -6.991)" stroke="#000" stroke-width="0.5"/>
    <path id="Path_2638" data-name="Path 2638" d="M31.587,13a1.892,1.892,0,0,0-1.3.622,1.893,1.893,0,0,0-1.3-.622,2.013,2.013,0,0,0-2.037,1.983,1.947,1.947,0,0,0,.6,1.409L30,18.729a.416.416,0,0,0,.576,0l2.444-2.338a1.947,1.947,0,0,0,.6-1.409A2.013,2.013,0,0,0,31.587,13Zm.858,2.788L30.291,17.85l-2.153-2.06a1.115,1.115,0,0,1-.347-.806,1.178,1.178,0,0,1,1.2-1.148,1.44,1.44,0,0,1,.967.673.431.431,0,0,0,.659,0,1.44,1.44,0,0,1,.967-.673,1.178,1.178,0,0,1,1.2,1.148,1.115,1.115,0,0,1-.346.805Z" transform="translate(-15.122 -6.991)" stroke="#000" stroke-width="0.5"/>
  </g>
</svg>
