<svg xmlns="http://www.w3.org/2000/svg" width="20.509" height="20.543" viewBox="0 0 20.509 20.543">
  <g id="emoji1" transform="translate(-0.742 -0.75)">
    <path id="Path_2594" data-name="Path 2594" d="M11,1a10.009,10.009,0,1,0,7.071,2.934A9.988,9.988,0,0,0,11,1Zm0,19.2a9.175,9.175,0,1,1,6.482-2.69A9.156,9.156,0,0,1,11,20.2Z" transform="translate(0 0)" stroke="#000" stroke-width="0.5"/>
    <path id="Path_2595" data-name="Path 2595" d="M22.421,29.114a.415.415,0,0,0-.5.309,5,5,0,0,1-9.732-.006.418.418,0,0,0-.813.192,5.834,5.834,0,0,0,11.354.007.417.417,0,0,0-.308-.5Z" transform="translate(-6.053 -16.41)" stroke="#000" stroke-width="0.5"/>
    <path id="Path_2596" data-name="Path 2596" d="M15.856,18.72a.835.835,0,1,0-.834-.835A.834.834,0,0,0,15.856,18.72Z" transform="translate(-8.188 -9.372)" stroke="#000" stroke-width="0.5"/>
    <path id="Path_2597" data-name="Path 2597" d="M31.877,18.72a.835.835,0,1,0-.834-.835A.834.834,0,0,0,31.877,18.72Z" transform="translate(-17.543 -9.372)" stroke="#000" stroke-width="0.5"/>
  </g>
</svg>
