<svg xmlns="http://www.w3.org/2000/svg" width="20.509" height="20.543" viewBox="0 0 20.509 20.543">
  <g id="emoji2" transform="translate(-0.742 -0.75)">
    <path id="Path_2625" data-name="Path 2625" d="M11,1a10.009,10.009,0,1,0,7.071,2.934A9.988,9.988,0,0,0,11,1Zm0,19.2a9.16,9.16,0,1,1,3.509-.7A9.157,9.157,0,0,1,11,20.2Z" transform="translate(0)" stroke="#000" stroke-width="0.5"/>
    <path id="Path_2626" data-name="Path 2626" d="M22.4,29.054a.417.417,0,0,0-.5.309,5,5,0,0,1-9.733-.005.417.417,0,1,0-.811.192,5.833,5.833,0,0,0,11.354.007.417.417,0,0,0-.311-.5Z" transform="translate(-6.035 -16.348)" stroke="#000" stroke-width="0.5"/>
    <path id="Path_2627" data-name="Path 2627" d="M31.836,18.7A.835.835,0,1,0,31,17.864.834.834,0,0,0,31.836,18.7Z" transform="translate(-17.501 -9.35)" stroke="#000" stroke-width="0.5"/>
    <path id="Path_2628" data-name="Path 2628" d="M13.433,18.865h2.5a.418.418,0,0,0,0-.835h-2.5a.418.418,0,0,0,0,.835Z" transform="translate(-7.016 -9.934)" stroke="#000" stroke-width="0.5"/>
  </g>
</svg>
