<svg xmlns="http://www.w3.org/2000/svg" width="20.512" height="20.546" viewBox="0 0 20.512 20.546">
  <g id="emoji13" transform="translate(-0.742 -0.75)">
    <path id="Path_2612" data-name="Path 2612" d="M11,1a10.011,10.011,0,1,0,7.072,2.935A9.99,9.99,0,0,0,11,1Zm0,19.2a9.176,9.176,0,1,1,6.483-2.69A9.157,9.157,0,0,1,11,20.2Z" transform="translate(0 0)" stroke="#000" stroke-width="0.5"/>
    <path id="Path_2613" data-name="Path 2613" d="M17.392,29a5.822,5.822,0,0,0-5.387,3.6.417.417,0,1,0,.77.321,5,5,0,0,1,9.235,0,.417.417,0,0,0,.385.257.412.412,0,0,0,.16-.031.418.418,0,0,0,.225-.546A5.822,5.822,0,0,0,17.392,29Z" transform="translate(-6.392 -16.309)" stroke="#000" stroke-width="0.5"/>
    <path id="Path_2614" data-name="Path 2614" d="M15.81,18.67a.835.835,0,1,0-.834-.835A.834.834,0,0,0,15.81,18.67Z" transform="translate(-8.142 -9.32)" stroke="#000" stroke-width="0.5"/>
    <path id="Path_2615" data-name="Path 2615" d="M31.781,18.67a.835.835,0,1,0-.834-.835A.834.834,0,0,0,31.781,18.67Z" transform="translate(-17.445 -9.32)" stroke="#000" stroke-width="0.5"/>
    <path id="Path_2616" data-name="Path 2616" d="M33.852,21.193a4.927,4.927,0,0,0-.906,1.907,1.25,1.25,0,1,0,2.5,0,4.955,4.955,0,0,0-.906-1.907.432.432,0,0,0-.688,0Zm.344,2.325a.418.418,0,0,1-.417-.417,3.116,3.116,0,0,1,.417-.9,3.125,3.125,0,0,1,.417.9.417.417,0,0,1-.419.417Z" transform="translate(-18.61 -11.664)" stroke="#000" stroke-width="0.5"/>
  </g>
</svg>
