<svg xmlns="http://www.w3.org/2000/svg" width="20.509" height="20.543" viewBox="0 0 20.509 20.543">
  <g id="emoji7" transform="translate(-0.742 -0.75)">
    <path id="Path_2649" data-name="Path 2649" d="M11,1a10.009,10.009,0,1,0,7.071,2.934A9.988,9.988,0,0,0,11,1Zm0,19.2A9.184,9.184,0,1,1,17.47,4.52a1.235,1.235,0,0,0-.638-.181,1.251,1.251,0,0,0-1.25,1.252.417.417,0,1,0,.833,0,.417.417,0,1,1,.833,0V5.96a.336.336,0,0,1-.188.3,1.166,1.166,0,0,0-.647,1.048v.368a.417.417,0,1,0,.833,0V7.31a.336.336,0,0,1,.188-.3,1.166,1.166,0,0,0,.647-1.048V5.591a1.24,1.24,0,0,0-.125-.535A9.169,9.169,0,0,1,11,20.2Z" transform="translate(0)" stroke="#000" stroke-width="0.5"/>
    <path id="Path_2650" data-name="Path 2650" d="M16.83,20.7A.835.835,0,1,0,16,19.862.834.834,0,0,0,16.83,20.7Z" transform="translate(-8.747 -10.515)" stroke="#000" stroke-width="0.5"/>
    <path id="Path_2651" data-name="Path 2651" d="M29.827,20.7a.835.835,0,1,0-.833-.835A.834.834,0,0,0,29.827,20.7Z" transform="translate(-16.328 -10.515)" stroke="#000" stroke-width="0.5"/>
    <path id="Path_2652" data-name="Path 2652" d="M29.439,15.858c.01,0,1,.016,1.294.6a.417.417,0,0,0,.745-.373,2.4,2.4,0,0,0-2.039-1.064.417.417,0,0,0,0,.834Z" transform="translate(-16.356 -8.179)" stroke="#000" stroke-width="0.5"/>
    <path id="Path_2653" data-name="Path 2653" d="M12.819,15.206a2.017,2.017,0,0,1,2.1-1.353.417.417,0,0,0,0-.835A2.854,2.854,0,0,0,12.01,15a.418.418,0,0,0,.3.506.433.433,0,0,0,.1.012.417.417,0,0,0,.4-.316Z" transform="translate(-6.414 -7.01)" stroke="#000" stroke-width="0.5"/>
    <path id="Path_2654" data-name="Path 2654" d="M22.581,33.049H13.414a.417.417,0,0,0,0,.835h9.167a.417.417,0,0,0,0-.835Z" transform="translate(-6.997 -18.692)" stroke="#000" stroke-width="0.5"/>
    <path id="Path_2655" data-name="Path 2655" d="M38.409,19.862a.417.417,0,1,0-.417-.417A.417.417,0,0,0,38.409,19.862Z" transform="translate(-21.576 -10.515)" stroke="#000" stroke-width="0.5"/>
  </g>
</svg>
