<svg xmlns="http://www.w3.org/2000/svg" width="20.509" height="20.543" viewBox="0 0 20.509 20.543">
  <g id="emoji3" transform="translate(-0.742 -0.75)">
    <path id="Path_2629" data-name="Path 2629" d="M11,1a10.009,10.009,0,1,0,7.071,2.934A9.988,9.988,0,0,0,11,1Zm0,19.2a9.159,9.159,0,1,1,3.509-.7A9.157,9.157,0,0,1,11,20.2Z" stroke="#000" stroke-width="0.5"/>
    <path id="Path_2630" data-name="Path 2630" d="M22.356,31.033a.416.416,0,0,0-.52.277c-.536,1.761-2.646,3.039-5.019,3.039s-4.486-1.28-5.02-3.043a.417.417,0,1,0-.8.242c.649,2.141,3.041,3.636,5.818,3.636s5.166-1.493,5.816-3.631a.417.417,0,0,0-.278-.519Z" transform="translate(-5.816 -17.486)" stroke="#000" stroke-width="0.5"/>
    <path id="Path_2631" data-name="Path 2631" d="M9.492,24.26a1.251,1.251,0,1,0-.366.885A1.254,1.254,0,0,0,9.492,24.26Zm-1.25.417a.417.417,0,1,1,.295-.122A.416.416,0,0,1,8.242,24.677Z" transform="translate(-3.492 -12.824)" stroke="#000" stroke-width="0.5"/>
    <path id="Path_2632" data-name="Path 2632" d="M38.2,23.008a1.251,1.251,0,1,0,.884.367A1.249,1.249,0,0,0,38.2,23.008Zm0,1.669a.417.417,0,1,1,.295-.122A.416.416,0,0,1,38.2,24.677Z" transform="translate(-20.948 -12.824)" stroke="#000" stroke-width="0.5"/>
    <path id="Path_2633" data-name="Path 2633" d="M15.814,18.675a.835.835,0,1,0-.834-.835A.834.834,0,0,0,15.814,18.675Z" transform="translate(-8.146 -9.326)" stroke="#000" stroke-width="0.5"/>
    <path id="Path_2634" data-name="Path 2634" d="M31.792,18.675a.835.835,0,1,0-.833-.835A.834.834,0,0,0,31.792,18.675Z" transform="translate(-17.457 -9.326)" stroke="#000" stroke-width="0.5"/>
  </g>
</svg>
