<svg xmlns="http://www.w3.org/2000/svg" width="20.508" height="20.543" viewBox="0 0 20.508 20.543">
  <g id="emoji11" transform="translate(-0.742 -0.75)">
    <path id="Path_2602" data-name="Path 2602" d="M11,1a10.009,10.009,0,1,0,7.071,2.934A9.988,9.988,0,0,0,11,1Zm0,19.2a9.174,9.174,0,1,1,6.481-2.689A9.155,9.155,0,0,1,11,20.2Z" transform="translate(0 0)" stroke="#000" stroke-width="0.5"/>
    <path id="Path_2603" data-name="Path 2603" d="M31.78,20.668a.835.835,0,1,0-.833-.835A.834.834,0,0,0,31.78,20.668Z" transform="translate(-17.447 -10.486)" stroke="#000" stroke-width="0.5"/>
    <path id="Path_2604" data-name="Path 2604" d="M15.809,20.668a.835.835,0,1,0-.833-.835A.834.834,0,0,0,15.809,20.668Z" transform="translate(-8.142 -10.486)" stroke="#000" stroke-width="0.5"/>
    <path id="Path_2605" data-name="Path 2605" d="M32.886,14.713l-3.333-1.67a.417.417,0,0,0-.373.747l3.333,1.669a.417.417,0,0,0,.373-.747Z" transform="translate(-16.284 -6.991)" stroke="#000" stroke-width="0.5"/>
    <path id="Path_2606" data-name="Path 2606" d="M23.551,37H19.385a.417.417,0,0,0,0,.835h4.167a.417.417,0,0,0,0-.835Z" transform="translate(-10.468 -20.972)" stroke="#000" stroke-width="0.5"/>
    <path id="Path_2607" data-name="Path 2607" d="M15.105,13.229a.417.417,0,0,0-.559-.188l-3.333,1.671a.417.417,0,1,0,.373.747l3.333-1.67a.418.418,0,0,0,.188-.56Z" transform="translate(-5.816 -6.99)" stroke="#000" stroke-width="0.5"/>
  </g>
</svg>
