<svg xmlns="http://www.w3.org/2000/svg" width="20.509" height="20.543" viewBox="0 0 20.509 20.543">
  <g id="emoji8" transform="translate(-0.742 -0.75)">
    <path id="Path_2656" data-name="Path 2656" d="M11,1a10.009,10.009,0,1,0,7.071,2.934A9.988,9.988,0,0,0,11,1Zm0,19.2a9.16,9.16,0,1,1,3.509-.7A9.157,9.157,0,0,1,11,20.2Z" transform="translate(0)" stroke="#000" stroke-width="0.5"/>
    <path id="Path_2657" data-name="Path 2657" d="M15.835,18.7A.835.835,0,1,0,15,17.864.834.834,0,0,0,15.835,18.7Z" transform="translate(-8.167 -9.35)" stroke="#000" stroke-width="0.5"/>
    <path id="Path_2658" data-name="Path 2658" d="M31.836,18.7A.835.835,0,1,0,31,17.864.834.834,0,0,0,31.836,18.7Z" transform="translate(-17.501 -9.35)" stroke="#000" stroke-width="0.5"/>
    <path id="Path_2659" data-name="Path 2659" d="M22.663,32.822a.417.417,0,0,0-.411-.349H20.168a.417.417,0,1,0-.833,0H18.5a.417.417,0,1,0-.833,0h-.833a.417.417,0,1,0-.834,0h-.833a.417.417,0,0,0-.833,0H13.5a.417.417,0,1,0-.833,0h-.833a.417.417,0,1,0-.834,0v.835a.417.417,0,0,0,.834,0h.833a.417.417,0,1,0,.834,0h.833a.417.417,0,1,0,.833,0H16a.417.417,0,1,0,.833,0h.833a.417.417,0,1,0,.833,0h.833a.417.417,0,1,0,.834,0h.758l-.2,1.195a1.123,1.123,0,1,0,2.215,0Zm-.607,2.053a.289.289,0,0,1-.506-.235l.222-1.332H21.9l.222,1.333a.286.286,0,0,1-.064.234Z" transform="translate(-5.833 -18.115)" stroke="#000" stroke-width="0.5"/>
  </g>
</svg>
