<svg xmlns="http://www.w3.org/2000/svg" width="20.513" height="20.54" viewBox="0 0 20.513 20.54">
  <g id="emoji15" transform="translate(-0.739 -0.75)">
    <path id="Path_2621" data-name="Path 2621" d="M19.76,1.83a1.227,1.227,0,0,0-.457.087,1.241,1.241,0,0,0-2.4,0,1.227,1.227,0,0,0-.458-.087,1.243,1.243,0,0,0-1.242,1.244v1.06a9,9,0,0,0-4.966-1.475,9.191,9.191,0,1,0,8.88,7.161A3.226,3.226,0,0,0,21,6.894V3.073A1.243,1.243,0,0,0,19.76,1.83ZM10.243,20.071a8.292,8.292,0,0,1,0-16.583,8.167,8.167,0,0,1,4.966,1.671v.157l-.2-.224a1.336,1.336,0,1,0-1.95,1.826L15.3,9.14a3.028,3.028,0,0,0,2.478.981,3.2,3.2,0,0,0,.546-.055,8.224,8.224,0,0,1-8.084,10.005ZM20.175,6.894a2.4,2.4,0,0,1-2.394,2.4,2.189,2.189,0,0,1-1.867-.709L13.668,6.36a.509.509,0,0,1,.034-.684.515.515,0,0,1,.365-.15.481.481,0,0,1,.341.136l.909,1.006a.414.414,0,0,0,.72-.28V3.073a.414.414,0,1,1,.828,0V4.731a.414.414,0,1,0,.828,0V2.244a.414.414,0,1,1,.826,0V4.731a.414.414,0,1,0,.828,0V3.073a.414.414,0,1,1,.828,0v3.82Z" stroke="#000" stroke-width="0.5"/>
    <path id="Path_2622" data-name="Path 2622" d="M14.076,20.568a.829.829,0,1,0-.828-.829A.828.828,0,0,0,14.076,20.568Z" transform="translate(-7.145 -10.446)" stroke="#000" stroke-width="0.5"/>
    <path id="Path_2623" data-name="Path 2623" d="M29.967,20.568a.829.829,0,1,0-.828-.829A.828.828,0,0,0,29.967,20.568Z" transform="translate(-16.414 -10.446)" stroke="#000" stroke-width="0.5"/>
    <path id="Path_2624" data-name="Path 2624" d="M20.882,30.86a.415.415,0,0,0-.5.3,4.37,4.37,0,0,1-8.3,0,.414.414,0,1,0-.8.2,5.052,5.052,0,0,0,4.954,3.631,5.053,5.053,0,0,0,4.954-3.63.416.416,0,0,0-.3-.5Z" transform="translate(-5.986 -17.41)" stroke="#000" stroke-width="0.5"/>
  </g>
</svg>
