<svg xmlns="http://www.w3.org/2000/svg" width="20.509" height="20.543" viewBox="0 0 20.509 20.543">
  <g id="emoji5" transform="translate(-0.742 -0.75)">
    <path id="Path_2639" data-name="Path 2639" d="M11,1a10.009,10.009,0,1,0,7.071,2.934A9.988,9.988,0,0,0,11,1Zm0,19.2a9.16,9.16,0,1,1,3.508-.7A9.156,9.156,0,0,1,11,20.2Z" transform="translate(0)" stroke="#000" stroke-width="0.5"/>
    <path id="Path_2640" data-name="Path 2640" d="M15.811,20.671a.835.835,0,1,0-.833-.835A.834.834,0,0,0,15.811,20.671Z" transform="translate(-8.143 -10.488)" stroke="#000" stroke-width="0.5"/>
    <path id="Path_2641" data-name="Path 2641" d="M23.883,37h-2.5a.417.417,0,0,0,0,.835h2.5a.417.417,0,0,0,0-.835Z" transform="translate(-11.632 -20.976)" stroke="#000" stroke-width="0.5"/>
    <path id="Path_2642" data-name="Path 2642" d="M15.571,15.5a.406.406,0,0,0,.1-.013.417.417,0,0,0,.3-.506,2.552,2.552,0,0,0-4.976,0,.417.417,0,0,0,.808.2,1.718,1.718,0,0,1,3.359,0,.417.417,0,0,0,.4.316Z" transform="translate(-5.82 -6.991)" stroke="#000" stroke-width="0.5"/>
    <path id="Path_2643" data-name="Path 2643" d="M31.784,20.671a.835.835,0,1,0-.833-.835A.834.834,0,0,0,31.784,20.671Z" transform="translate(-17.45 -10.488)" stroke="#000" stroke-width="0.5"/>
    <path id="Path_2644" data-name="Path 2644" d="M29.459,13a2.609,2.609,0,0,0-2.488,1.986.417.417,0,1,0,.808.2,1.718,1.718,0,0,1,3.359,0,.417.417,0,0,0,.4.316.41.41,0,0,0,.1-.013.418.418,0,0,0,.3-.506A2.608,2.608,0,0,0,29.459,13Z" transform="translate(-15.124 -6.992)" stroke="#000" stroke-width="0.5"/>
  </g>
</svg>
