<svg xmlns="http://www.w3.org/2000/svg" width="20.509" height="20.543" viewBox="0 0 20.509 20.543">
  <g id="emoji6" transform="translate(-0.742 -0.75)">
    <path id="Path_2645" data-name="Path 2645" d="M11,1a10.009,10.009,0,1,0,7.071,2.934A9.988,9.988,0,0,0,11,1Zm0,19.2a9.175,9.175,0,1,1,6.481-2.69A9.156,9.156,0,0,1,11,20.2Z" transform="translate(0)" stroke="#000" stroke-width="0.5"/>
    <path id="Path_2646" data-name="Path 2646" d="M15.812,18.672a.835.835,0,1,0-.833-.835A.834.834,0,0,0,15.812,18.672Z" transform="translate(-8.145 -9.325)" stroke="#000" stroke-width="0.5"/>
    <path id="Path_2647" data-name="Path 2647" d="M31.787,18.672a.835.835,0,1,0-.833-.835A.834.834,0,0,0,31.787,18.672Z" transform="translate(-17.454 -9.325)" stroke="#000" stroke-width="0.5"/>
    <path id="Path_2648" data-name="Path 2648" d="M22.565,33.006H13.4a.417.417,0,0,0,0,.835h9.167a.417.417,0,0,0,0-.835Z" transform="translate(-6.981 -18.65)" stroke="#000" stroke-width="0.5"/>
  </g>
</svg>
